<svg width="20" height="20" viewBox="0 0 20 20" fill="none" xmlns="http://www.w3.org/2000/svg">
<g clip-path="url(#clip0_38122_8078)">
<path d="M17.5 10C17.5 11.5474 17.0314 12.9854 16.2283 14.1798C14.8816 16.1824 12.5947 17.5 10 17.5C7.4053 17.5 5.11835 16.1824 3.77174 14.1798C2.96864 12.9854 2.5 11.5474 2.5 10C2.5 5.85786 5.85786 2.5 10 2.5C14.1421 2.5 17.5 5.85786 17.5 10Z" stroke="black" stroke-width="1.66667"/>
<path d="M11.6668 7.49998C11.6668 8.42045 10.9206 9.16665 10.0002 9.16665C9.07969 9.16665 8.3335 8.42045 8.3335 7.49998C8.3335 6.57951 9.07969 5.83331 10.0002 5.83331C10.9206 5.83331 11.6668 6.57951 11.6668 7.49998Z" stroke="black" stroke-width="1.66667"/>
<path d="M12.5003 12.5H7.50029C5.9905 12.5 4.71515 13.5038 4.30518 14.8804C5.68069 16.484 7.72184 17.5 10.0003 17.5C12.2787 17.5 14.3199 16.484 15.6954 14.8804C15.2854 13.5038 14.0101 12.5 12.5003 12.5Z" stroke="black" stroke-width="1.66667"/>
</g>
<defs>
<clipPath id="clip0_38122_8078">
<rect width="20" height="20" fill="white"/>
</clipPath>
</defs>
</svg>
