<svg width="32" height="33" viewBox="0 0 32 33" fill="none" xmlns="http://www.w3.org/2000/svg">
<path d="M31.6812 9.95391C31.6812 9.95391 31.3688 7.74766 30.4062 6.77891C29.1875 5.50391 27.825 5.49766 27.2 5.42266C22.725 5.09766 16.0063 5.09766 16.0063 5.09766H15.9937C15.9937 5.09766 9.275 5.09766 4.8 5.42266C4.175 5.49766 2.8125 5.50391 1.59375 6.77891C0.63125 7.74766 0.325 9.95391 0.325 9.95391C0.325 9.95391 0 12.5477 0 15.1352V17.5602C0 20.1477 0.31875 22.7414 0.31875 22.7414C0.31875 22.7414 0.63125 24.9477 1.5875 25.9164C2.80625 27.1914 4.40625 27.1477 5.11875 27.2852C7.68125 27.5289 16 27.6039 16 27.6039C16 27.6039 22.725 27.5914 27.2 27.2727C27.825 27.1977 29.1875 27.1914 30.4062 25.9164C31.3688 24.9477 31.6812 22.7414 31.6812 22.7414C31.6812 22.7414 32 20.1539 32 17.5602V15.1352C32 12.5477 31.6812 9.95391 31.6812 9.95391ZM12.6938 20.5039V11.5102L21.3375 16.0227L12.6938 20.5039Z" fill="#A3A3A3"/>
</svg>
