<svg width="1321" height="326" viewBox="0 0 1321 326" fill="none" xmlns="http://www.w3.org/2000/svg">
<path d="M0.715201 360.372V14.0041H89.4064L182.296 296.346H183.346L275.71 14.0041H360.728V360.372H306.149V71.7321H305.099L209.061 360.372H151.858L56.344 71.7321H55.2944V360.372H0.715201ZM534.006 367.194C511.615 367.194 492.022 363.871 475.229 357.223C458.785 350.226 445.14 340.43 434.294 327.834C423.448 315.239 415.401 300.545 410.153 283.751C404.905 266.608 402.281 247.89 402.281 227.598C402.281 207.655 404.731 188.937 409.629 171.444C414.877 153.601 422.749 137.857 433.245 124.212C443.741 110.567 457.036 99.8963 473.129 92.1993C489.223 84.5022 508.116 80.6536 529.808 80.6536C550.1 80.6536 567.768 84.1523 582.813 91.1497C598.207 98.147 610.802 108.118 620.598 121.063C630.744 133.658 637.742 148.878 641.59 166.721C645.789 184.564 646.663 204.332 644.214 226.023L437.443 229.697V193.486L601.705 190.862L591.209 211.329C592.259 194.535 590.685 180.016 586.486 167.77C582.288 155.175 575.465 145.554 566.019 138.906C556.923 131.909 544.852 128.41 529.808 128.41C513.714 128.41 500.244 132.434 489.398 140.481C478.902 148.528 471.03 159.898 465.782 174.593C460.534 189.287 457.91 206.256 457.91 225.498C457.91 256.986 464.558 280.952 477.853 297.396C491.148 313.84 510.39 322.062 535.581 322.062C547.826 322.062 557.972 320.137 566.019 316.289C574.416 312.44 581.063 307.542 585.961 301.594C590.86 295.297 594.183 288.474 595.933 281.127C597.682 273.78 598.382 266.608 598.032 259.61L651.037 263.284C651.387 277.279 649.287 290.574 644.739 303.169C640.191 315.414 633.019 326.435 623.222 336.231C613.776 345.678 601.531 353.2 586.486 358.798C571.792 364.396 554.299 367.194 534.006 367.194ZM686.379 360.372V0.884046H743.582V360.372H686.379ZM914.281 367.194C889.091 367.194 866.525 361.946 846.582 351.45C826.64 340.954 810.896 325.036 799.35 303.694C788.154 282.352 782.557 255.762 782.557 223.924C782.557 191.736 788.329 165.146 799.875 144.154C811.42 122.813 826.99 106.894 846.582 96.3977C866.525 85.9017 888.916 80.6536 913.756 80.6536C938.947 80.6536 961.338 86.0766 980.931 96.9225C1000.87 107.418 1016.44 123.337 1027.64 144.679C1039.18 166.021 1044.96 192.786 1044.96 224.974C1044.96 257.161 1039.18 283.926 1027.64 305.268C1016.44 326.26 1000.87 341.829 980.931 351.975C961.338 362.121 939.122 367.194 914.281 367.194ZM915.331 322.062C930.375 322.062 943.145 318.388 953.641 311.041C964.487 303.694 972.709 293.023 978.307 279.028C984.255 264.684 987.229 247.54 987.229 227.598C987.229 206.956 984.08 189.287 977.782 174.593C971.834 159.549 963.263 148.003 952.067 139.956C941.221 131.909 928.101 127.886 912.707 127.886C897.663 127.886 884.718 131.734 873.872 139.431C863.376 147.128 855.154 158.149 849.206 172.494C843.258 186.838 840.284 203.807 840.284 223.399C840.284 254.188 846.932 278.328 860.227 295.822C873.522 313.315 891.89 322.062 915.331 322.062ZM1083.57 360.372V224.449L1083.04 88.0008H1134.47L1128.7 212.378H1133.42C1135.52 182.64 1140.24 158.149 1147.59 138.906C1155.29 119.314 1165.96 104.794 1179.6 95.3481C1193.6 85.5518 1210.57 80.6536 1230.51 80.6536C1261.3 80.6536 1284.04 91.4995 1298.73 113.191C1313.43 134.533 1320.78 167.246 1320.78 211.329V360.372H1263.57V215.527C1263.57 186.838 1259.55 165.671 1251.5 152.026C1243.81 138.382 1230.86 131.559 1212.67 131.559C1197.62 131.559 1184.68 136.807 1173.83 147.303C1162.99 157.799 1154.76 173.893 1149.17 195.585C1143.57 216.927 1140.77 244.741 1140.77 279.028V360.372H1083.57Z" fill="url(#paint0_linear_38202_368)" fill-opacity="0.5"/>
<defs>
<linearGradient id="paint0_linear_38202_368" x1="658" y1="-89.5276" x2="658" y2="316.657" gradientUnits="userSpaceOnUse">
<stop stop-color="#E4D7FF"/>
<stop offset="1"/>
</linearGradient>
</defs>
</svg>
