<svg width="16" height="17" viewBox="0 0 16 17" fill="none" xmlns="http://www.w3.org/2000/svg">
<g clip-path="url(#clip0_38202_474)">
<path d="M4.13477 11.6914C4.43838 11.7537 4.66699 12.0227 4.66699 12.3447V13.6777L4.65332 13.8125C4.59114 14.1161 4.32198 14.3446 4 14.3447H2.66699C2.2988 14.3447 2 14.0459 2 13.6777V12.3447L2.01367 12.21C2.076 11.9064 2.34497 11.6777 2.66699 11.6777H4L4.13477 11.6914ZM8.80078 11.6914C9.10455 11.7536 9.33301 12.0226 9.33301 12.3447V13.6777L9.31934 13.8125C9.25711 14.1162 8.98812 14.3447 8.66602 14.3447H7.33301C6.96497 14.3446 6.66602 14.0458 6.66602 13.6777V12.3447L6.67969 12.21C6.74197 11.9065 7.01111 11.6779 7.33301 11.6777H8.66602L8.80078 11.6914ZM13.4678 11.6914C13.7715 11.7536 14 12.0226 14 12.3447V13.6777L13.9863 13.8125C13.9241 14.1162 13.6551 14.3447 13.333 14.3447H12C11.6318 14.3447 11.333 14.0459 11.333 13.6777V12.3447L11.3467 12.21C11.409 11.9063 11.678 11.6777 12 11.6777H13.333L13.4678 11.6914ZM4.13477 7.02441C4.43831 7.08667 4.66684 7.35581 4.66699 7.67773V9.01074L4.65332 9.14551C4.59114 9.44914 4.32198 9.67758 4 9.67773H2.66699C2.2988 9.67773 2 9.37893 2 9.01074V7.67773L2.01367 7.54297C2.07612 7.23954 2.34508 7.01074 2.66699 7.01074H4L4.13477 7.02441ZM8.80078 7.02441C9.10445 7.08657 9.33285 7.35573 9.33301 7.67773V9.01074L9.31934 9.14551C9.25713 9.44924 8.98814 9.67773 8.66602 9.67773H7.33301C6.96497 9.67756 6.66602 9.37882 6.66602 9.01074V7.67773L6.67969 7.54297C6.74206 7.23958 7.0112 7.0109 7.33301 7.01074H8.66602L8.80078 7.02441ZM13.4678 7.02441C13.7714 7.08657 13.9998 7.35573 14 7.67773V9.01074L13.9863 9.14551C13.9241 9.44924 13.6551 9.67773 13.333 9.67773H12C11.6318 9.67773 11.333 9.37893 11.333 9.01074V7.67773L11.3467 7.54297C11.4091 7.23951 11.6781 7.01074 12 7.01074H13.333L13.4678 7.02441ZM4.13477 2.3584C4.43835 2.42072 4.66699 2.6897 4.66699 3.01172V4.34473L4.65332 4.47949C4.59104 4.783 4.3219 5.01156 4 5.01172H2.66699C2.29891 5.01172 2.00018 4.71277 2 4.34473V3.01172L2.01367 2.87695C2.07597 2.57334 2.34495 2.34473 2.66699 2.34473H4L4.13477 2.3584ZM8.80078 2.3584C9.10455 2.42058 9.33301 2.68957 9.33301 3.01172V4.34473L9.31934 4.47949C9.25699 4.78304 8.98801 5.01172 8.66602 5.01172H7.33301C6.96508 5.01154 6.66619 4.71266 6.66602 4.34473V3.01172L6.67969 2.87695C6.74197 2.57344 7.01111 2.34488 7.33301 2.34473H8.66602L8.80078 2.3584ZM13.4678 2.3584C13.7715 2.4206 14 2.68959 14 3.01172V4.34473L13.9863 4.47949C13.924 4.78307 13.655 5.01172 13.333 5.01172H12C11.6319 5.01172 11.3332 4.71277 11.333 4.34473V3.01172L11.3467 2.87695C11.409 2.57334 11.678 2.34473 12 2.34473H13.333L13.4678 2.3584Z" fill="url(#paint0_linear_38202_474)"/>
</g>
<defs>
<linearGradient id="paint0_linear_38202_474" x1="0.99868" y1="3.12651" x2="8.42212" y2="15.932" gradientUnits="userSpaceOnUse">
<stop stop-color="white"/>
<stop offset="0.350508" stop-color="#9573DE"/>
<stop offset="1" stop-color="white"/>
</linearGradient>
<clipPath id="clip0_38202_474">
<rect width="16" height="16" fill="white" transform="translate(0 0.344727)"/>
</clipPath>
</defs>
</svg>
