<svg width="32" height="33" viewBox="0 0 32 33" fill="none" xmlns="http://www.w3.org/2000/svg">
<g clip-path="url(#clip0_38202_362)">
<path d="M16 3.23574C20.275 3.23574 20.7813 3.25449 22.4625 3.32949C24.025 3.39824 24.8688 3.66074 25.4313 3.87949C26.175 4.16699 26.7125 4.51699 27.2688 5.07324C27.8313 5.63574 28.175 6.16699 28.4625 6.91074C28.6813 7.47324 28.9438 8.32324 29.0125 9.87949C29.0875 11.567 29.1063 12.0732 29.1063 16.342C29.1063 20.617 29.0875 21.1232 29.0125 22.8045C28.9438 24.367 28.6813 25.2107 28.4625 25.7732C28.175 26.517 27.825 27.0545 27.2688 27.6107C26.7063 28.1732 26.175 28.517 25.4313 28.8045C24.8688 29.0232 24.0188 29.2857 22.4625 29.3545C20.775 29.4295 20.2688 29.4482 16 29.4482C11.725 29.4482 11.2188 29.4295 9.5375 29.3545C7.975 29.2857 7.13125 29.0232 6.56875 28.8045C5.825 28.517 5.2875 28.167 4.73125 27.6107C4.16875 27.0482 3.825 26.517 3.5375 25.7732C3.31875 25.2107 3.05625 24.3607 2.9875 22.8045C2.9125 21.117 2.89375 20.6107 2.89375 16.342C2.89375 12.067 2.9125 11.5607 2.9875 9.87949C3.05625 8.31699 3.31875 7.47324 3.5375 6.91074C3.825 6.16699 4.175 5.62949 4.73125 5.07324C5.29375 4.51074 5.825 4.16699 6.56875 3.87949C7.13125 3.66074 7.98125 3.39824 9.5375 3.32949C11.2188 3.25449 11.725 3.23574 16 3.23574ZM16 0.354492C11.6563 0.354492 11.1125 0.373242 9.40625 0.448242C7.70625 0.523242 6.5375 0.798242 5.525 1.19199C4.46875 1.60449 3.575 2.14824 2.6875 3.04199C1.79375 3.92949 1.25 4.82324 0.8375 5.87324C0.44375 6.89199 0.16875 8.05449 0.09375 9.75449C0.01875 11.467 0 12.0107 0 16.3545C0 20.6982 0.01875 21.242 0.09375 22.9482C0.16875 24.6482 0.44375 25.817 0.8375 26.8295C1.25 27.8857 1.79375 28.7795 2.6875 29.667C3.575 30.5545 4.46875 31.1045 5.51875 31.5107C6.5375 31.9045 7.7 32.1795 9.4 32.2545C11.1063 32.3295 11.65 32.3482 15.9938 32.3482C20.3375 32.3482 20.8813 32.3295 22.5875 32.2545C24.2875 32.1795 25.4563 31.9045 26.4688 31.5107C27.5188 31.1045 28.4125 30.5545 29.3 29.667C30.1875 28.7795 30.7375 27.8857 31.1438 26.8357C31.5375 25.817 31.8125 24.6545 31.8875 22.9545C31.9625 21.2482 31.9813 20.7045 31.9813 16.3607C31.9813 12.017 31.9625 11.4732 31.8875 9.76699C31.8125 8.06699 31.5375 6.89824 31.1438 5.88574C30.75 4.82324 30.2063 3.92949 29.3125 3.04199C28.425 2.15449 27.5313 1.60449 26.4813 1.19824C25.4625 0.804492 24.3 0.529492 22.6 0.454492C20.8875 0.373242 20.3438 0.354492 16 0.354492Z" fill="#A3A3A3"/>
<path d="M16 8.13574C11.4625 8.13574 7.78125 11.817 7.78125 16.3545C7.78125 20.892 11.4625 24.5732 16 24.5732C20.5375 24.5732 24.2188 20.892 24.2188 16.3545C24.2188 11.817 20.5375 8.13574 16 8.13574ZM16 21.6857C13.0563 21.6857 10.6687 19.2982 10.6687 16.3545C10.6687 13.4107 13.0563 11.0232 16 11.0232C18.9438 11.0232 21.3312 13.4107 21.3312 16.3545C21.3312 19.2982 18.9438 21.6857 16 21.6857Z" fill="#A3A3A3"/>
<path d="M26.4625 7.81133C26.4625 8.87383 25.6 9.73008 24.5438 9.73008C23.4813 9.73008 22.625 8.86758 22.625 7.81133C22.625 6.74883 23.4875 5.89258 24.5438 5.89258C25.6 5.89258 26.4625 6.75508 26.4625 7.81133Z" fill="#A3A3A3"/>
</g>
<defs>
<clipPath id="clip0_38202_362">
<rect width="32" height="32" fill="white" transform="translate(0 0.354492)"/>
</clipPath>
</defs>
</svg>
