<svg width="32" height="33" viewBox="0 0 32 33" fill="none" xmlns="http://www.w3.org/2000/svg">
<g clip-path="url(#clip0_38202_357)">
<path d="M29.6313 0.354492H2.3625C1.05625 0.354492 0 1.38574 0 2.66074V30.042C0 31.317 1.05625 32.3545 2.3625 32.3545H29.6313C30.9375 32.3545 32 31.317 32 30.0482V2.66074C32 1.38574 30.9375 0.354492 29.6313 0.354492ZM9.49375 27.6232H4.74375V12.3482H9.49375V27.6232ZM7.11875 10.267C5.59375 10.267 4.3625 9.03574 4.3625 7.51699C4.3625 5.99824 5.59375 4.76699 7.11875 4.76699C8.6375 4.76699 9.86875 5.99824 9.86875 7.51699C9.86875 9.02949 8.6375 10.267 7.11875 10.267ZM27.2687 27.6232H22.525V20.1982C22.525 18.4295 22.4937 16.1482 20.0562 16.1482C17.5875 16.1482 17.2125 18.0795 17.2125 20.0732V27.6232H12.475V12.3482H17.025V14.4357H17.0875C17.7188 13.2357 19.2688 11.967 21.575 11.967C26.3813 11.967 27.2687 15.1295 27.2687 19.242V27.6232Z" fill="#A3A3A3"/>
</g>
<defs>
<clipPath id="clip0_38202_357">
<rect width="32" height="32" fill="white" transform="translate(0 0.354492)"/>
</clipPath>
</defs>
</svg>
