<svg width="37" height="37" viewBox="0 0 37 37" fill="none" xmlns="http://www.w3.org/2000/svg">
<g filter="url(#filter0_d_38114_12626)">
<rect x="2.5" y="2.43799" width="32" height="32" rx="5.33333" fill="white"/>
<rect x="3.16667" y="3.10465" width="30.6667" height="30.6667" rx="4.66667" stroke="#E4D7FF" stroke-width="1.33333"/>
<g clip-path="url(#clip0_38114_12626)">
<path d="M18.5005 11.7712C22.1822 11.7715 25.1675 14.7565 25.1675 18.4382C25.1673 22.1199 22.1821 25.105 18.5005 25.1052C14.8187 25.1052 11.8336 22.12 11.8335 18.4382C11.8335 14.7563 14.8186 11.7712 18.5005 11.7712ZM16.689 19.3279C16.4832 19.0963 16.1357 19.0333 15.8569 19.1941C15.5781 19.3555 15.4597 19.6881 15.5581 19.9822L15.6138 20.1052L15.7271 20.2878C16.3239 21.181 17.3432 21.7711 18.5005 21.7712C19.7348 21.7709 20.813 21.0996 21.3882 20.1052C21.572 19.7869 21.4629 19.3786 21.145 19.1941C20.8265 19.0099 20.4184 19.1191 20.2339 19.4373C19.8872 20.0366 19.2396 20.4379 18.5005 20.4382C17.8075 20.4381 17.1959 20.0854 16.8364 19.5476L16.7681 19.4373L16.689 19.3279ZM16.5005 15.7712C15.9829 15.7712 15.5568 16.1647 15.5054 16.6687L15.5005 16.7712V16.7781C15.5006 17.3303 15.9483 17.7781 16.5005 17.7781H16.5073C17.0247 17.7777 17.4511 17.3845 17.5024 16.8806L17.5073 16.7781V16.7712C17.5072 16.2539 17.1136 15.8277 16.6099 15.7761L16.5073 15.7712H16.5005ZM20.5005 15.7712C19.9829 15.7712 19.5568 16.1647 19.5054 16.6687L19.5005 16.7712V16.7781C19.5006 17.3303 19.9483 17.7781 20.5005 17.7781H20.5073C21.0247 17.7777 21.4511 17.3845 21.5024 16.8806L21.5073 16.7781V16.7712C21.5072 16.2539 21.1136 15.8277 20.6099 15.7761L20.5073 15.7712H20.5005Z" fill="url(#paint0_linear_38114_12626)"/>
</g>
</g>
<defs>
<filter id="filter0_d_38114_12626" x="0.5" y="0.437988" width="36" height="36" filterUnits="userSpaceOnUse" color-interpolation-filters="sRGB">
<feFlood flood-opacity="0" result="BackgroundImageFix"/>
<feColorMatrix in="SourceAlpha" type="matrix" values="0 0 0 0 0 0 0 0 0 0 0 0 0 0 0 0 0 0 127 0" result="hardAlpha"/>
<feMorphology radius="1.33333" operator="dilate" in="SourceAlpha" result="effect1_dropShadow_38114_12626"/>
<feOffset/>
<feGaussianBlur stdDeviation="0.333333"/>
<feComposite in2="hardAlpha" operator="out"/>
<feColorMatrix type="matrix" values="0 0 0 0 0.929412 0 0 0 0 0.894118 0 0 0 0 1 0 0 0 1 0"/>
<feBlend mode="normal" in2="BackgroundImageFix" result="effect1_dropShadow_38114_12626"/>
<feBlend mode="normal" in="SourceGraphic" in2="effect1_dropShadow_38114_12626" result="shape"/>
</filter>
<linearGradient id="paint0_linear_38114_12626" x1="10.7209" y1="12.6399" x2="18.9695" y2="26.8689" gradientUnits="userSpaceOnUse">
<stop stop-color="white"/>
<stop offset="0.350508" stop-color="#9573DE"/>
<stop offset="1" stop-color="white"/>
</linearGradient>
<clipPath id="clip0_38114_12626">
<rect width="16" height="16" fill="white" transform="translate(10.5 10.438)"/>
</clipPath>
</defs>
</svg>
