<svg width="36" height="37" viewBox="0 0 36 37" fill="none" xmlns="http://www.w3.org/2000/svg">
<g filter="url(#filter0_d_38114_12619)">
<rect x="2" y="2.43799" width="32" height="32" rx="5.33333" fill="white"/>
<rect x="2.66667" y="3.10465" width="30.6667" height="30.6667" rx="4.66667" stroke="#E4D7FF" stroke-width="1.33333"/>
<g clip-path="url(#clip0_38114_12619)">
<path d="M20.667 19.104C22.5077 19.1042 23.9998 20.5973 24 22.438C23.9998 23.5423 23.1043 24.4378 22 24.438H14C12.8957 24.4378 12.0002 23.5423 12 22.438C12.0002 20.5972 13.4931 19.104 15.334 19.104H20.667ZM18 12.438C19.4728 12.438 20.667 13.6322 20.667 15.105C20.6668 16.5776 19.4727 17.772 18 17.772C16.5273 17.772 15.3332 16.5776 15.333 15.105C15.333 13.6322 16.5272 12.438 18 12.438Z" fill="url(#paint0_linear_38114_12619)"/>
</g>
</g>
<defs>
<filter id="filter0_d_38114_12619" x="-5.96046e-08" y="0.437988" width="36" height="36" filterUnits="userSpaceOnUse" color-interpolation-filters="sRGB">
<feFlood flood-opacity="0" result="BackgroundImageFix"/>
<feColorMatrix in="SourceAlpha" type="matrix" values="0 0 0 0 0 0 0 0 0 0 0 0 0 0 0 0 0 0 127 0" result="hardAlpha"/>
<feMorphology radius="1.33333" operator="dilate" in="SourceAlpha" result="effect1_dropShadow_38114_12619"/>
<feOffset/>
<feGaussianBlur stdDeviation="0.333333"/>
<feComposite in2="hardAlpha" operator="out"/>
<feColorMatrix type="matrix" values="0 0 0 0 0.929412 0 0 0 0 0.894118 0 0 0 0 1 0 0 0 1 0"/>
<feBlend mode="normal" in2="BackgroundImageFix" result="effect1_dropShadow_38114_12619"/>
<feBlend mode="normal" in="SourceGraphic" in2="effect1_dropShadow_38114_12619" result="shape"/>
</filter>
<linearGradient id="paint0_linear_38114_12619" x1="10.9987" y1="13.2198" x2="18.4221" y2="26.0252" gradientUnits="userSpaceOnUse">
<stop stop-color="white"/>
<stop offset="0.350508" stop-color="#9573DE"/>
<stop offset="1" stop-color="white"/>
</linearGradient>
<clipPath id="clip0_38114_12619">
<rect width="16" height="16" fill="white" transform="translate(10 10.438)"/>
</clipPath>
</defs>
</svg>
