<svg width="16" height="17" viewBox="0 0 16 17" fill="none" xmlns="http://www.w3.org/2000/svg">
<path d="M7.44824 2.4751C7.97846 2.47524 8.48736 2.68613 8.8623 3.06104L13.5293 7.72803C14.3097 8.50904 14.3099 9.77528 13.5293 10.5562L10.0811 14.0044C9.30018 14.785 8.03394 14.7848 7.25293 14.0044L2.58594 9.3374C2.21103 8.96246 2.00014 8.45355 2 7.92334V3.14209L2.01367 3.00732C2.07597 2.70371 2.34495 2.4751 2.66699 2.4751H7.44824ZM6 5.4751C5.48232 5.4751 5.05621 5.86843 5.00488 6.37256L5 6.4751V6.48193C5.00009 7.03414 5.44777 7.48193 6 7.48193H6.00684C6.52438 7.48185 6.95056 7.08848 7.00195 6.58447L7.00684 6.48193V6.4751C7.00684 5.95748 6.61342 5.53139 6.10938 5.47998L6.00684 5.4751H6Z" fill="url(#paint0_linear_38232_909)"/>
<defs>
<linearGradient id="paint0_linear_38232_909" x1="0.989113" y1="3.26435" x2="8.48348" y2="16.1922" gradientUnits="userSpaceOnUse">
<stop stop-color="white"/>
<stop offset="0.350508" stop-color="#9573DE"/>
<stop offset="1" stop-color="white"/>
</linearGradient>
</defs>
</svg>
