<svg width="13" height="14" viewBox="0 0 13 14" fill="none" xmlns="http://www.w3.org/2000/svg">
<path d="M5.39018 0.114724C6.2589 -0.0317993 7.13938 -0.00300558 7.981 0.188943L8.09037 0.224099C8.3 0.31171 8.45197 0.501217 8.49076 0.725076L8.49955 0.839333V2.07078C8.49977 2.5838 9.05617 2.90448 9.50053 2.64793L10.5679 2.03172L10.6714 1.98289C10.9202 1.8917 11.2042 1.95701 11.3892 2.15672C11.7213 2.51555 12.0199 2.91589 12.274 3.35593C12.5279 3.79576 12.726 4.25344 12.8706 4.72019C12.9627 5.01739 12.8372 5.33979 12.5679 5.49558L11.5005 6.11179C11.0561 6.36837 11.0553 7.01041 11.4996 7.26707L12.566 7.8823C12.8016 8.01849 12.9279 8.28167 12.8941 8.54441L12.8697 8.65672C12.5787 9.59948 12.0783 10.4803 11.3892 11.2231C11.1776 11.4509 10.8362 11.5026 10.5669 11.3471L9.49955 10.7309C9.05518 10.4746 8.50062 10.795 8.50053 11.3081V12.5405C8.50053 12.8516 8.28425 13.1217 7.981 13.1909C6.99311 13.4163 5.98004 13.4094 5.01811 13.1899C4.71505 13.1207 4.49968 12.8504 4.49955 12.5395L4.50053 11.3081L4.49369 11.2143C4.43079 10.7574 3.9161 10.4904 3.49955 10.7309L2.43217 11.3471C2.19618 11.4833 1.90554 11.4603 1.69487 11.2993L1.60893 11.2221C1.27704 10.8634 0.980061 10.4628 0.726115 10.0229C0.472055 9.58288 0.274159 9.12469 0.129436 8.65769L0.104045 8.54539C0.070247 8.2827 0.196557 8.01951 0.43217 7.88328L1.49955 7.26707C1.94385 7.01055 1.94454 6.36856 1.50053 6.11179L0.433147 5.49656C0.163973 5.34097 0.0377648 5.01926 0.129436 4.72215C0.420362 3.77933 0.92076 2.89862 1.6099 2.15574L1.69487 2.07859C1.90557 1.91806 2.19742 1.89562 2.43315 2.03172L3.50053 2.64793C3.9448 2.9039 4.49935 2.5836 4.49955 2.07078V0.838357L4.5103 0.723122C4.55572 0.462478 4.75309 0.248602 5.01811 0.187966L5.39018 0.114724ZM6.50053 4.68992C5.39596 4.68992 4.50053 5.58535 4.50053 6.68992C4.50079 7.79426 5.39612 8.68992 6.50053 8.68992C7.60471 8.68966 8.50027 7.7941 8.50053 6.68992C8.50053 5.58551 7.60487 4.69018 6.50053 4.68992Z" fill="url(#paint0_linear_38216_973)"/>
<defs>
<linearGradient id="paint0_linear_38216_973" x1="-0.969607" y1="0.890745" x2="7.44351" y2="14.823" gradientUnits="userSpaceOnUse">
<stop stop-color="white"/>
<stop offset="0.350508" stop-color="#9573DE"/>
<stop offset="1" stop-color="white"/>
</linearGradient>
</defs>
</svg>
