<svg width="140" height="30" viewBox="0 0 140 30" fill="none" xmlns="http://www.w3.org/2000/svg">
<path d="M22.4191 13.7782C22.0401 14.1595 21.7499 14.6197 21.569 15.1259C21.3882 15.6322 21.3213 16.1721 21.373 16.7072L21.355 16.6892C21.4082 17.3191 21.3232 17.9529 21.1061 18.5466C20.889 19.1402 20.5451 19.6793 20.0982 20.1263C19.6512 20.5732 19.112 20.9173 18.5183 21.1343C17.9247 21.3514 17.2908 21.4364 16.661 21.3832L16.6791 21.4012C15.9257 21.3311 15.1689 21.495 14.512 21.8707C13.8552 22.2464 13.3302 22.8155 13.0087 23.5005C12.6872 24.1855 12.5847 24.9529 12.7153 25.6983C12.846 26.4436 13.2033 27.1305 13.7386 27.6653C14.2739 28.2001 14.9611 28.5568 15.7065 28.6867C16.452 28.8167 17.2193 28.7135 17.904 28.3914C18.5887 28.0692 19.1573 27.5438 19.5324 26.8866C19.9075 26.2294 20.0708 25.4726 20 24.7192L20.019 24.7372C19.9658 24.1074 20.0507 23.4735 20.2678 22.8798C20.4849 22.2862 20.829 21.7471 21.2759 21.3001C21.7229 20.8532 22.262 20.5091 22.8556 20.2921C23.4494 20.075 24.0831 19.99 24.713 20.0432L24.694 20.0252C25.3095 20.0805 25.929 19.9796 26.4951 19.7318C27.0611 19.484 27.5554 19.0973 27.9322 18.6076C28.309 18.1179 28.5562 17.5409 28.6507 16.9303C28.7451 16.3196 28.684 15.695 28.4727 15.1142C28.2615 14.5335 27.9071 14.0155 27.4424 13.6082C26.9777 13.2009 26.4178 12.9175 25.8144 12.7843C25.2109 12.6511 24.5837 12.6723 23.9907 12.846C23.3976 13.0198 22.8582 13.3404 22.4221 13.7782H22.4191Z" fill="#394149"/>
<path d="M15.0422 19.0432L15.0232 19.0252C15.5585 19.0791 16.0991 19.0134 16.606 18.8328C17.1128 18.6522 17.5732 18.3613 17.9538 17.981C18.3343 17.6007 18.6257 17.1405 18.8066 16.6338C18.9876 16.1271 19.0537 15.5866 19.0002 15.0512L19.0192 15.0692C18.966 14.4393 19.051 13.8055 19.268 13.2118C19.4851 12.6182 19.8292 12.0791 20.2761 11.6321C20.7231 11.1852 21.2622 10.8411 21.8558 10.6241C22.4495 10.407 23.0833 10.3221 23.7132 10.3752L23.6942 10.3572C24.4477 10.428 25.2046 10.2646 25.8618 9.88932C26.5191 9.51406 27.0445 8.94519 27.3665 8.26032C27.6885 7.57546 27.7914 6.80793 27.6612 6.06242C27.531 5.31691 27.174 4.62973 26.6388 4.09459C26.1037 3.55946 25.4165 3.20242 24.671 3.0722C23.9255 2.94197 23.158 3.04488 22.4731 3.3669C21.7882 3.68891 21.2194 4.21436 20.8441 4.87157C20.4688 5.52877 20.3054 6.28574 20.3762 7.03922L20.3582 7.02022C20.4115 7.65011 20.3267 8.28405 20.1097 8.87777C19.8927 9.47149 19.5486 10.0107 19.1017 10.4577C18.6547 10.9046 18.1155 11.2487 17.5218 11.4657C16.928 11.6827 16.2941 11.7675 15.6642 11.7142L15.6822 11.7332C15.1469 11.6793 14.6062 11.745 14.0994 11.9256C13.5926 12.1061 13.1322 12.3971 12.7516 12.7774C12.371 13.1577 12.0797 13.6179 11.8987 14.1246C11.7178 14.6313 11.6517 15.1718 11.7052 15.7072L11.6872 15.6892C11.7402 16.319 11.6551 16.9528 11.438 17.5464C11.2208 18.1399 10.8768 18.679 10.4299 19.1259C9.98291 19.5728 9.44387 19.9168 8.85031 20.134C8.25675 20.3511 7.62296 20.4362 6.99315 20.3832L7.01115 20.4012C6.25767 20.3304 5.5007 20.4938 4.84349 20.8691C4.18629 21.2444 3.66084 21.8132 3.33883 22.4981C3.01681 23.183 2.91389 23.9505 3.04412 24.696C3.17435 25.4415 3.53139 26.1287 4.06652 26.6638C4.60166 27.199 5.28884 27.556 6.03435 27.6862C6.77986 27.8164 7.54739 27.7135 8.23226 27.3915C8.91712 27.0695 9.48599 26.5441 9.86125 25.8869C10.2366 25.2296 10.4 24.4727 10.3292 23.7192L10.3482 23.7372C10.295 23.1073 10.38 22.4735 10.5971 21.8798C10.8141 21.2862 11.1582 20.7471 11.6051 20.3001C12.0521 19.8532 12.5912 19.5091 13.1848 19.2921C13.7785 19.075 14.4123 18.99 15.0422 19.0432Z" fill="#394149"/>
<path d="M8.34021 17.0362C8.71923 16.655 9.00941 16.1948 9.19005 15.6885C9.37069 15.1822 9.43733 14.6422 9.38521 14.1072L9.4042 14.1252C9.351 13.4952 9.43596 12.8611 9.65317 12.2673C9.87038 11.6735 10.2146 11.1343 10.6618 10.6873C11.109 10.2403 11.6483 9.89636 12.2422 9.67941C12.8361 9.46245 13.4702 9.37775 14.1002 9.43123L14.0812 9.41323C14.8344 9.4838 15.5911 9.32031 16.248 8.94507C16.9049 8.56984 17.43 8.00111 17.7519 7.31646C18.0737 6.6318 18.1765 5.86455 18.0463 5.11932C17.9161 4.37409 17.5591 3.68717 17.0242 3.15223C16.4893 2.61729 15.8023 2.26037 15.0571 2.13015C14.3119 1.99992 13.5446 2.10274 12.86 2.42456C12.1753 2.74638 11.6066 3.27155 11.2314 3.92845C10.8561 4.58535 10.6926 5.34201 10.7632 6.09523L10.7452 6.07723C10.7984 6.70708 10.7134 7.34095 10.4963 7.93459C10.2792 8.52823 9.93523 9.06734 9.48827 9.5143C9.04132 9.96126 8.5022 10.3053 7.90856 10.5223C7.31492 10.7394 6.68106 10.8244 6.05121 10.7712L6.06921 10.7892C5.45378 10.734 4.83437 10.8351 4.26839 11.083C3.70241 11.3309 3.20816 11.7177 2.83145 12.2075C2.45474 12.6972 2.20776 13.2742 2.11338 13.8848C2.01901 14.4955 2.0803 15.1201 2.29157 15.7007C2.50284 16.2814 2.85727 16.7993 3.322 17.2065C3.78673 17.6138 4.34673 17.8971 4.95011 18.0303C5.55348 18.1634 6.18071 18.1421 6.77368 17.9684C7.36664 17.7946 7.90614 17.474 8.3422 17.0362H8.34021Z" fill="#394149"/>
<path d="M39.3169 7.06223H42.2869V21.5152H39.3169V7.06223Z" fill="#394149"/>
<path d="M43.9689 16.5662C43.9648 15.5276 44.269 14.511 44.843 13.6454C45.417 12.7798 46.235 12.104 47.1934 11.7037C48.1518 11.3033 49.2074 11.1964 50.2266 11.3965C51.2458 11.5966 52.1827 12.0946 52.9186 12.8276C53.6545 13.5605 54.1563 14.4954 54.3605 15.5138C54.5647 16.5322 54.462 17.5883 54.0655 18.5483C53.669 19.5082 52.9965 20.329 52.1332 20.9064C51.2698 21.4839 50.2546 21.7922 49.2159 21.7922C48.5265 21.8001 47.8424 21.6704 47.2036 21.4108C46.5648 21.1512 45.9842 20.7669 45.4957 20.2804C45.0071 19.7938 44.6205 19.2147 44.3584 18.577C44.0962 17.9393 43.9638 17.2557 43.9689 16.5662ZM51.4929 16.5662C51.4805 16.1185 51.3364 15.6844 51.0787 15.3181C50.8209 14.9519 50.4609 14.6697 50.0437 14.507C49.6264 14.3442 49.1705 14.308 48.7328 14.403C48.2951 14.498 47.8951 14.7198 47.5828 15.0409C47.2706 15.3619 47.0598 15.7679 46.9771 16.2081C46.8943 16.6482 46.943 17.103 47.1173 17.5156C47.2916 17.9282 47.5836 18.2802 47.9568 18.5277C48.3301 18.7752 48.7681 18.9072 49.2159 18.9072C49.5226 18.9154 49.8277 18.8599 50.112 18.7443C50.3962 18.6287 50.6534 18.4555 50.8673 18.2356C51.0812 18.0156 51.2473 17.7537 51.3549 17.4664C51.4626 17.1791 51.5096 16.8726 51.4929 16.5662Z" fill="#394149"/>
<path d="M66.2999 11.6162V21.0162C66.2999 24.3422 63.7059 25.7482 61.0729 25.7482C60.1459 25.8176 59.2176 25.6303 58.3899 25.207C57.5623 24.7836 56.8672 24.1405 56.3809 23.3482L58.9149 21.8832C59.1193 22.2962 59.445 22.6369 59.8483 22.8598C60.2517 23.0826 60.7135 23.177 61.1719 23.1302C61.4649 23.1708 61.7633 23.145 62.045 23.0547C62.3266 22.9644 62.5844 22.8119 62.7992 22.6086C63.014 22.4052 63.1803 22.1562 63.2859 21.8798C63.3914 21.6035 63.4334 21.307 63.4089 21.0122V20.1072C63.0611 20.5327 62.6185 20.8708 62.1164 21.0943C61.6143 21.3178 61.0669 21.4205 60.5179 21.3942C59.2117 21.353 57.9728 20.8052 57.0634 19.8666C56.154 18.9281 55.6455 17.6725 55.6455 16.3657C55.6455 15.0589 56.154 13.8033 57.0634 12.8648C57.9728 11.9262 59.2117 11.3784 60.5179 11.3372C61.0669 11.3109 61.6143 11.4136 62.1164 11.6371C62.6185 11.8606 63.0611 12.1987 63.4089 12.6242V11.6142L66.2999 11.6162ZM63.4099 16.3672C63.4299 15.8886 63.3061 15.4149 63.0546 15.0072C62.8031 14.5994 62.4353 14.2763 61.9986 14.0794C61.5619 13.8824 61.0763 13.8207 60.6042 13.9021C60.1321 13.9835 59.6952 14.2043 59.3496 14.5362C59.0041 14.868 58.7658 15.2956 58.6653 15.764C58.5649 16.2324 58.6069 16.7202 58.7861 17.1645C58.9652 17.6088 59.2732 17.9894 59.6704 18.2572C60.0676 18.525 60.5359 18.6678 61.0149 18.6672C61.327 18.689 61.6401 18.6452 61.9342 18.5386C62.2283 18.432 62.4968 18.2649 62.7224 18.0483C62.948 17.8316 63.1258 17.5701 63.2442 17.2805C63.3626 16.991 63.4191 16.6799 63.4099 16.3672Z" fill="#394149"/>
<path d="M67.9821 16.5662C67.978 15.5276 68.2821 14.511 68.8562 13.6454C69.4302 12.7798 70.2482 12.104 71.2066 11.7037C72.165 11.3033 73.2206 11.1964 74.2398 11.3965C75.259 11.5966 76.1959 12.0946 76.9318 12.8276C77.6677 13.5605 78.1695 14.4954 78.3737 15.5138C78.5779 16.5322 78.4752 17.5883 78.0787 18.5483C77.6822 19.5082 77.0097 20.329 76.1464 20.9064C75.283 21.4839 74.2678 21.7922 73.2291 21.7922C72.5397 21.8001 71.8555 21.6704 71.2168 21.4108C70.578 21.1512 69.9974 20.7669 69.5089 20.2804C69.0203 19.7938 68.6337 19.2147 68.3716 18.577C68.1094 17.9393 67.977 17.2557 67.9821 16.5662ZM75.5061 16.5662C75.4937 16.1185 75.3496 15.6844 75.0919 15.3181C74.8341 14.9519 74.4741 14.6697 74.0569 14.507C73.6396 14.3442 73.1836 14.308 72.746 14.403C72.3083 14.498 71.9083 14.7198 71.596 15.0409C71.2838 15.3619 71.073 15.7679 70.9902 16.2081C70.9074 16.6482 70.9562 17.103 71.1305 17.5156C71.3048 17.9282 71.5968 18.2802 71.97 18.5277C72.3433 18.7752 72.7812 18.9072 73.2291 18.9072C73.5358 18.9154 73.8409 18.8599 74.1251 18.7443C74.4094 18.6287 74.6666 18.4555 74.8805 18.2356C75.0944 18.0156 75.2605 17.7537 75.3681 17.4664C75.4758 17.1791 75.5228 16.8726 75.5061 16.5662Z" fill="#394149"/>
<path d="M79.8608 8.96323C79.8608 8.61078 79.9653 8.26625 80.1611 7.97321C80.3569 7.68016 80.6353 7.45175 80.9609 7.31688C81.2865 7.182 81.6448 7.14671 81.9905 7.21547C82.3361 7.28423 82.6537 7.45395 82.9029 7.70317C83.1521 7.95238 83.3218 8.2699 83.3906 8.61558C83.4593 8.96125 83.424 9.31955 83.2892 9.64517C83.1543 9.97079 82.9259 10.2491 82.6328 10.4449C82.3398 10.6407 81.9953 10.7452 81.6428 10.7452C81.1717 10.7405 80.7211 10.5513 80.3879 10.2181C80.0548 9.88493 79.8655 9.43439 79.8608 8.96323ZM80.1608 11.6162H83.1318V21.5162H80.1568L80.1608 11.6162Z" fill="#394149"/>
<path d="M95.9562 16.5662C95.9905 17.2205 95.8952 17.8751 95.6756 18.4924C95.4561 19.1097 95.1167 19.6775 94.6769 20.1632C94.2372 20.6488 93.7057 21.0428 93.1132 21.3224C92.5206 21.6019 91.8787 21.7616 91.2242 21.7922C90.6738 21.8222 90.1237 21.7294 89.6136 21.5205C89.1035 21.3115 88.6464 20.9917 88.2752 20.5842V25.4752H85.3052V11.6162H88.2752V12.5462C88.6465 12.139 89.1038 11.8194 89.6138 11.6107C90.1239 11.4019 90.6739 11.3092 91.2242 11.3392C91.8788 11.3697 92.5209 11.5293 93.1136 11.8089C93.7063 12.0885 94.2378 12.4825 94.6776 12.9683C95.1174 13.4541 95.4568 14.0221 95.6762 14.6396C95.8956 15.257 95.9908 15.9118 95.9562 16.5662ZM92.9862 16.5662C92.9746 16.1029 92.8266 15.6533 92.5607 15.2736C92.2948 14.894 91.9229 14.6012 91.4915 14.432C91.06 14.2627 90.5882 14.2244 90.1351 14.322C89.682 14.4195 89.2678 14.6485 88.9442 14.9803C88.6206 15.3122 88.4021 15.732 88.316 16.1875C88.2299 16.6429 88.28 17.1135 88.4601 17.5406C88.6401 17.9677 88.9422 18.3321 89.3284 18.5884C89.7146 18.8446 90.1677 18.9813 90.6312 18.9812C90.9494 18.9954 91.267 18.9421 91.5632 18.8249C91.8593 18.7078 92.1274 18.5293 92.3497 18.3013C92.5721 18.0732 92.7437 17.8008 92.8534 17.5018C92.9631 17.2028 93.0084 16.8839 92.9862 16.5662Z" fill="#394149"/>
<path d="M105.121 18.5452C105.121 20.8222 103.142 21.7922 101.004 21.7922C100.14 21.8704 99.2728 21.6878 98.5139 21.2677C97.755 20.8477 97.1396 20.2097 96.7471 19.4362L99.3201 17.9712C99.4242 18.3287 99.6478 18.6398 99.9535 18.8523C100.259 19.0649 100.629 19.1662 101 19.1392C101.712 19.1392 102.069 18.9212 102.069 18.5262C102.069 17.4362 97.1981 18.0112 97.1981 14.5862C97.1981 12.4272 99.0201 11.3392 101.079 11.3392C101.853 11.3147 102.619 11.4983 103.298 11.8708C103.977 12.2434 104.544 12.7912 104.939 13.4572L102.405 14.8232C102.294 14.5639 102.109 14.343 101.873 14.1881C101.637 14.0332 101.361 13.9512 101.079 13.9522C100.564 13.9522 100.247 14.1522 100.247 14.5062C100.251 15.6352 105.121 14.8822 105.121 18.5452Z" fill="#394149"/>
<path d="M115.97 11.6162V21.5162H113V20.5852C112.657 20.996 112.222 21.3197 111.73 21.5297C111.238 21.7397 110.704 21.83 110.17 21.7932C108.17 21.7932 106.47 20.3682 106.47 17.6932V11.6162H109.44V17.2582C109.415 17.494 109.442 17.7324 109.519 17.9567C109.595 18.1811 109.72 18.3861 109.884 18.5574C110.048 18.7287 110.247 18.8622 110.468 18.9487C110.688 19.0352 110.925 19.0726 111.162 19.0582C112.251 19.0582 113.003 18.4252 113.003 17.0192V11.6192L115.97 11.6162Z" fill="#394149"/>
<path d="M133 15.4372V21.5152H130.03V15.6942C130.03 14.7042 129.555 14.0712 128.605 14.0712C127.615 14.0712 127.06 14.7642 127.06 15.9322V21.5152H124.091V15.6942C124.091 14.7042 123.616 14.0712 122.665 14.0712C121.675 14.0712 121.121 14.7642 121.121 15.9322V21.5152H118.151V11.6152H121.121V12.5252C121.429 12.1215 121.833 11.8013 122.296 11.594C122.76 11.3866 123.268 11.2987 123.774 11.3382C124.282 11.3133 124.788 11.4206 125.243 11.6495C125.697 11.8783 126.084 12.2211 126.367 12.6442C126.696 12.2015 127.132 11.8495 127.634 11.6211C128.136 11.3927 128.688 11.2954 129.238 11.3382C131.511 11.3392 133 12.9622 133 15.4372Z" fill="#394149"/>
<path d="M135.512 11.5552C136.729 11.5552 137.716 10.5684 137.716 9.35123C137.716 8.13399 136.729 7.14723 135.512 7.14723C134.295 7.14723 133.308 8.13399 133.308 9.35123C133.308 10.5684 134.295 11.5552 135.512 11.5552Z" fill="#394149"/>
</svg>
