<svg width="36" height="37" viewBox="0 0 36 37" fill="none" xmlns="http://www.w3.org/2000/svg">
<g filter="url(#filter0_d_38114_12634)">
<rect x="2" y="2.43799" width="32" height="32" rx="5.33333" fill="white"/>
<rect x="2.66667" y="3.10465" width="30.6667" height="30.6667" rx="4.66667" stroke="#E4D7FF" stroke-width="1.33333"/>
<g clip-path="url(#clip0_38114_12634)">
<path d="M18.0005 11.7712C19.8412 11.7715 21.3335 13.2644 21.3335 15.1052V16.4382H22.6665L22.8013 16.4519C23.1049 16.5142 23.3335 16.7832 23.3335 17.1052V23.1052C23.3332 24.2095 22.4378 25.1051 21.3335 25.1052H14.6665C13.5623 25.105 12.6668 24.2094 12.6665 23.1052V17.1052L12.6802 16.9705C12.7425 16.6669 13.0115 16.4383 13.3335 16.4382H14.6665V15.1052C14.6665 13.2643 16.1595 11.7712 18.0005 11.7712ZM19.6665 19.7712C19.1491 19.7714 18.7228 20.1648 18.6714 20.6687L18.6665 20.7712V20.7781C18.6667 21.3301 19.1145 21.7779 19.6665 21.7781H19.6733C20.1908 21.778 20.6169 21.3845 20.6685 20.8806L20.6733 20.7781V20.7712C20.6732 20.2538 20.2798 19.8275 19.7759 19.7761L19.6733 19.7712H19.6665ZM18.0005 13.1052C16.8959 13.1052 16.0005 14.0007 16.0005 15.1052V16.4382H20.0005V15.1052C20.0005 14.0008 19.1048 13.1055 18.0005 13.1052Z" fill="url(#paint0_linear_38114_12634)"/>
</g>
</g>
<defs>
<filter id="filter0_d_38114_12634" x="-5.96046e-08" y="0.437988" width="36" height="36" filterUnits="userSpaceOnUse" color-interpolation-filters="sRGB">
<feFlood flood-opacity="0" result="BackgroundImageFix"/>
<feColorMatrix in="SourceAlpha" type="matrix" values="0 0 0 0 0 0 0 0 0 0 0 0 0 0 0 0 0 0 127 0" result="hardAlpha"/>
<feMorphology radius="1.33333" operator="dilate" in="SourceAlpha" result="effect1_dropShadow_38114_12634"/>
<feOffset/>
<feGaussianBlur stdDeviation="0.333333"/>
<feComposite in2="hardAlpha" operator="out"/>
<feColorMatrix type="matrix" values="0 0 0 0 0.929412 0 0 0 0 0.894118 0 0 0 0 1 0 0 0 1 0"/>
<feBlend mode="normal" in2="BackgroundImageFix" result="effect1_dropShadow_38114_12634"/>
<feBlend mode="normal" in="SourceGraphic" in2="effect1_dropShadow_38114_12634" result="shape"/>
</filter>
<linearGradient id="paint0_linear_38114_12634" x1="11.7764" y1="12.6399" x2="20.8093" y2="25.1051" gradientUnits="userSpaceOnUse">
<stop stop-color="white"/>
<stop offset="0.350508" stop-color="#9573DE"/>
<stop offset="1" stop-color="white"/>
</linearGradient>
<clipPath id="clip0_38114_12634">
<rect width="16" height="16" fill="white" transform="translate(10 10.438)"/>
</clipPath>
</defs>
</svg>
