<svg width="36" height="37" viewBox="0 0 36 37" fill="none" xmlns="http://www.w3.org/2000/svg">
<g filter="url(#filter0_d_38172_1697)">
<rect x="2" y="2.42139" width="32" height="32" rx="5.33333" fill="white"/>
<rect x="2.66667" y="3.08805" width="30.6667" height="30.6667" rx="4.66667" stroke="#E4D7FF" stroke-width="1.33333"/>
<g clip-path="url(#clip0_38172_1697)">
<path d="M16.8902 11.8467C17.7589 11.7001 18.6394 11.7289 19.481 11.9209L19.5904 11.956C19.8 12.0436 19.952 12.2332 19.9908 12.457L19.9996 12.5713V13.8027C19.9998 14.3157 20.5562 14.6364 21.0005 14.3799L22.0679 13.7636L22.1714 13.7148C22.4202 13.6236 22.7042 13.6889 22.8892 13.8886C23.2213 14.2475 23.5199 14.6478 23.774 15.0879C24.0279 15.5277 24.226 15.9854 24.3706 16.4521C24.4627 16.7493 24.3372 17.0717 24.0679 17.2275L23.0005 17.8437C22.5561 18.1003 22.5553 18.7423 22.9996 18.999L24.066 19.6142C24.3016 19.7504 24.4279 20.0136 24.3941 20.2763L24.3697 20.3886C24.0787 21.3314 23.5783 22.2122 22.8892 22.9551C22.6776 23.1829 22.3362 23.2345 22.0669 23.0791L20.9996 22.4629C20.5552 22.2065 20.0006 22.527 20.0005 23.04V24.2724C20.0005 24.5835 19.7842 24.8536 19.481 24.9228C18.4931 25.1482 17.48 25.1413 16.5181 24.9219C16.215 24.8526 15.9997 24.5823 15.9996 24.2715L16.0005 23.04L15.9937 22.9463C15.9308 22.4894 15.4161 22.2224 14.9996 22.4629L13.9322 23.0791C13.6962 23.2152 13.4055 23.1922 13.1949 23.0312L13.1089 22.9541C12.777 22.5954 12.4801 22.1947 12.2261 21.7549C11.9721 21.3148 11.7742 20.8566 11.6294 20.3896L11.604 20.2773C11.5702 20.0146 11.6966 19.7514 11.9322 19.6152L12.9996 18.999C13.4439 18.7425 13.4445 18.1005 13.0005 17.8437L11.9331 17.2285C11.664 17.0729 11.5378 16.7512 11.6294 16.4541C11.9204 15.5113 12.4208 14.6306 13.1099 13.8877L13.1949 13.8105C13.4056 13.65 13.6974 13.6276 13.9331 13.7636L15.0005 14.3799C15.4448 14.6358 15.9994 14.3155 15.9996 13.8027V12.5703L16.0103 12.4551C16.0557 12.1944 16.2531 11.9805 16.5181 11.9199L16.8902 11.8467ZM18.0005 16.4219C16.896 16.4219 16.0005 17.3173 16.0005 18.4219C16.0008 19.5262 16.8961 20.4219 18.0005 20.4219C19.1047 20.4216 20.0003 19.526 20.0005 18.4219C20.0005 17.3174 19.1049 16.4221 18.0005 16.4219Z" fill="url(#paint0_linear_38172_1697)"/>
</g>
</g>
<defs>
<filter id="filter0_d_38172_1697" x="-5.96046e-08" y="0.421387" width="36" height="36" filterUnits="userSpaceOnUse" color-interpolation-filters="sRGB">
<feFlood flood-opacity="0" result="BackgroundImageFix"/>
<feColorMatrix in="SourceAlpha" type="matrix" values="0 0 0 0 0 0 0 0 0 0 0 0 0 0 0 0 0 0 127 0" result="hardAlpha"/>
<feMorphology radius="1.33333" operator="dilate" in="SourceAlpha" result="effect1_dropShadow_38172_1697"/>
<feOffset/>
<feGaussianBlur stdDeviation="0.333333"/>
<feComposite in2="hardAlpha" operator="out"/>
<feColorMatrix type="matrix" values="0 0 0 0 0.929412 0 0 0 0 0.894118 0 0 0 0 1 0 0 0 1 0"/>
<feBlend mode="normal" in2="BackgroundImageFix" result="effect1_dropShadow_38172_1697"/>
<feBlend mode="normal" in="SourceGraphic" in2="effect1_dropShadow_38172_1697" result="shape"/>
</filter>
<linearGradient id="paint0_linear_38172_1697" x1="10.5304" y1="12.6227" x2="18.9435" y2="26.555" gradientUnits="userSpaceOnUse">
<stop stop-color="white"/>
<stop offset="0.350508" stop-color="#9573DE"/>
<stop offset="1" stop-color="white"/>
</linearGradient>
<clipPath id="clip0_38172_1697">
<rect width="16" height="16" fill="white" transform="translate(10 10.4214)"/>
</clipPath>
</defs>
</svg>
