<svg width="103" height="103" viewBox="0 0 103 103" fill="none" xmlns="http://www.w3.org/2000/svg">
<g filter="url(#filter0_dddd_38184_16510)">
<rect x="2" y="8.27173" width="60" height="60" rx="16.41" transform="rotate(-6 2 8.27173)" fill="white"/>
<g clip-path="url(#clip0_38184_16510)">
<path d="M47.1261 29.0824C48.1071 28.8741 49.0718 29.5006 49.2805 30.4815C50.821 37.7288 46.6673 44.8617 39.8429 47.2266L40.6217 50.8908C40.83 51.8717 40.2033 52.8356 39.2225 53.0442C38.2415 53.2528 37.2771 52.627 37.0683 51.6461L36.2897 47.9829C29.0927 48.5991 22.3956 43.7714 20.855 36.5235C20.6467 35.5426 21.2732 34.5778 22.2541 34.3691C23.2351 34.1606 24.1997 34.7873 24.4084 35.7682C25.6597 41.6551 31.4466 45.413 37.3335 44.1618C43.2204 42.9105 46.9784 37.1238 45.7271 31.2368C45.5188 30.2559 46.1453 29.2911 47.1261 29.0824ZM31.6703 17.5138C35.5948 16.6799 39.4526 19.1857 40.2868 23.1102L42.1748 31.9928C43.0087 35.9172 40.5036 39.7748 36.5793 40.6092C32.6548 41.4433 28.7965 38.9383 27.9621 35.0139L26.074 26.1312C25.2398 22.2066 27.7456 18.348 31.6703 17.5138Z" fill="#FF6259"/>
</g>
</g>
<defs>
<filter id="filter0_dddd_38184_16510" x="-0.842826" y="-0.842795" width="104.795" height="104.795" filterUnits="userSpaceOnUse" color-interpolation-filters="sRGB">
<feFlood flood-opacity="0" result="BackgroundImageFix"/>
<feColorMatrix in="SourceAlpha" type="matrix" values="0 0 0 0 0 0 0 0 0 0 0 0 0 0 0 0 0 0 127 0" result="hardAlpha"/>
<feOffset dx="1.89522" dy="1.89522"/>
<feGaussianBlur stdDeviation="2.36902"/>
<feColorMatrix type="matrix" values="0 0 0 0 0.584314 0 0 0 0 0.45098 0 0 0 0 0.870588 0 0 0 0.1 0"/>
<feBlend mode="normal" in2="BackgroundImageFix" result="effect1_dropShadow_38184_16510"/>
<feColorMatrix in="SourceAlpha" type="matrix" values="0 0 0 0 0 0 0 0 0 0 0 0 0 0 0 0 0 0 127 0" result="hardAlpha"/>
<feOffset dx="5.68565" dy="5.68565"/>
<feGaussianBlur stdDeviation="4.26424"/>
<feColorMatrix type="matrix" values="0 0 0 0 0.584314 0 0 0 0 0.45098 0 0 0 0 0.870588 0 0 0 0.09 0"/>
<feBlend mode="normal" in2="effect1_dropShadow_38184_16510" result="effect2_dropShadow_38184_16510"/>
<feColorMatrix in="SourceAlpha" type="matrix" values="0 0 0 0 0 0 0 0 0 0 0 0 0 0 0 0 0 0 127 0" result="hardAlpha"/>
<feOffset dx="13.2665" dy="13.2665"/>
<feGaussianBlur stdDeviation="5.68565"/>
<feColorMatrix type="matrix" values="0 0 0 0 0.584314 0 0 0 0 0.45098 0 0 0 0 0.870588 0 0 0 0.05 0"/>
<feBlend mode="normal" in2="effect2_dropShadow_38184_16510" result="effect3_dropShadow_38184_16510"/>
<feColorMatrix in="SourceAlpha" type="matrix" values="0 0 0 0 0 0 0 0 0 0 0 0 0 0 0 0 0 0 127 0" result="hardAlpha"/>
<feOffset dx="22.7426" dy="22.7426"/>
<feGaussianBlur stdDeviation="6.63326"/>
<feColorMatrix type="matrix" values="0 0 0 0 0.584314 0 0 0 0 0.45098 0 0 0 0 0.870588 0 0 0 0.01 0"/>
<feBlend mode="normal" in2="effect3_dropShadow_38184_16510" result="effect4_dropShadow_38184_16510"/>
<feBlend mode="normal" in="SourceGraphic" in2="effect4_dropShadow_38184_16510" result="shape"/>
</filter>
<clipPath id="clip0_38184_16510">
<rect width="43.59" height="43.59" fill="white" transform="translate(9.35254 18.3343) rotate(-12)"/>
</clipPath>
</defs>
</svg>
