<svg width="252" height="252" viewBox="0 0 252 252" fill="none" xmlns="http://www.w3.org/2000/svg">
<rect x="70.2349" y="70.127" width="111.53" height="111.53" rx="20" fill="url(#paint0_linear_38144_51824)"/>
<g clip-path="url(#clip0_38144_51824)">
<path d="M110 131.882C111.105 131.882 112 132.778 112 133.882V137.882C112 138.987 112.895 139.882 114 139.882H118C119.105 139.882 120 140.778 120 141.882C120 142.987 119.105 143.882 118 143.882H114C110.686 143.882 108 141.196 108 137.882V133.882C108 132.778 108.895 131.882 110 131.882ZM142 131.882C143.105 131.882 144 132.778 144 133.882V137.882C144 141.196 141.314 143.882 138 143.882H134C132.895 143.882 132 142.987 132 141.882C132 140.778 132.895 139.882 134 139.882H138C139.105 139.882 140 138.987 140 137.882V133.882C140 132.778 140.895 131.882 142 131.882ZM141.154 122.886C142.739 122.967 144 124.277 144 125.882C144 127.487 142.739 128.798 141.154 128.878L141 128.882H111C109.343 128.882 108 127.539 108 125.882C108 124.225 109.343 122.882 111 122.882H141L141.154 122.886ZM118 107.882C119.105 107.882 120 108.778 120 109.882C120 110.987 119.105 111.882 118 111.882H114C112.895 111.882 112 112.778 112 113.882V117.882C112 118.987 111.105 119.882 110 119.882C108.895 119.882 108 118.987 108 117.882V113.882C108 110.569 110.686 107.882 114 107.882H118ZM138 107.882C141.314 107.882 144 110.569 144 113.882V117.882C144 118.987 143.105 119.882 142 119.882C140.895 119.882 140 118.987 140 117.882V113.882C140 112.778 139.105 111.882 138 111.882H134C132.895 111.882 132 110.987 132 109.882C132 108.778 132.895 107.882 134 107.882H138Z" fill="white"/>
</g>
<rect opacity="0.1" x="1.02832" y="0.921387" width="249.943" height="249.943" rx="19.5" stroke="#E4D7FF"/>
<rect opacity="0.3" x="18.4546" y="18.3467" width="215.09" height="215.09" rx="19.5" stroke="#DBC9FF"/>
<rect opacity="0.6" x="35.8818" y="35.7764" width="180.237" height="180.237" rx="19.5" stroke="#C8AFFF"/>
<rect x="53.3081" y="53.2012" width="145.384" height="145.384" rx="19.5" stroke="#B694FF"/>
<defs>
<linearGradient id="paint0_linear_38144_51824" x1="60.9284" y1="77.393" x2="129.923" y2="196.409" gradientUnits="userSpaceOnUse">
<stop stop-color="white"/>
<stop offset="0.350508" stop-color="#9573DE"/>
<stop offset="1" stop-color="white"/>
</linearGradient>
<clipPath id="clip0_38144_51824">
<rect width="48" height="48" fill="white" transform="translate(102 101.883)"/>
</clipPath>
</defs>
</svg>
