<svg width="15" height="14" viewBox="0 0 15 14" fill="none" xmlns="http://www.w3.org/2000/svg">
<path d="M7.50049 0.610352C11.182 0.610703 14.1673 3.59581 14.1675 7.27734C14.1675 10.959 11.1821 13.944 7.50049 13.9443C3.81859 13.9443 0.833496 10.9592 0.833496 7.27734C0.833672 3.5956 3.8187 0.610352 7.50049 0.610352ZM7.49951 8.94434C6.98206 8.94458 6.55571 9.33783 6.50439 9.8418L6.49951 9.94434V9.95117C6.49978 10.5031 6.94762 10.9509 7.49951 10.9512H7.50635C8.02377 10.9511 8.4499 10.5575 8.50146 10.0537L8.50635 9.95117V9.94434C8.50635 9.42673 8.11292 9.00064 7.60889 8.94922L7.50635 8.94434H7.49951ZM6.83252 7.2793C6.83382 7.64719 7.13368 7.94515 7.50146 7.94434C7.86955 7.94304 8.16764 7.64344 8.1665 7.27539L6.83252 7.2793ZM7.49561 3.27832C6.98637 3.27945 6.47467 3.47418 6.08545 3.86328C5.82561 4.12353 5.82563 4.54541 6.08545 4.80566C6.31324 5.03346 6.66545 5.06145 6.92432 4.89062L7.1333 4.7207C7.24352 4.64766 7.37047 4.61072 7.49854 4.61035L7.62646 4.62207C7.75257 4.64628 7.87244 4.70822 7.97021 4.80566C8.10041 4.93586 8.16542 5.10584 8.16553 5.27734L8.15381 5.40527C8.12941 5.53125 8.06871 5.65141 7.97119 5.74902C7.84074 5.87927 7.67029 5.94453 7.49854 5.94434C7.32139 5.94421 7.15008 6.01428 7.0249 6.13965C6.89981 6.26518 6.82994 6.43605 6.83057 6.61328L6.83252 7.2793L7.49561 7.27637V7.27734C7.5005 7.27735 7.50631 7.27645 7.51123 7.27637L8.1665 7.27539L8.16553 7.16016C8.43803 7.06389 8.6957 6.90916 8.91357 6.69141C9.25508 6.3498 9.44803 5.91445 9.49072 5.46875L9.49951 5.27734C9.49939 4.76674 9.30376 4.25354 8.91357 3.86328C8.5713 3.52123 8.13453 3.32829 7.68799 3.28613L7.49561 3.27832Z" fill="url(#paint0_linear_38216_949)"/>
<defs>
<linearGradient id="paint0_linear_38216_949" x1="-0.279136" y1="1.47904" x2="7.96953" y2="15.708" gradientUnits="userSpaceOnUse">
<stop stop-color="white"/>
<stop offset="0.350508" stop-color="#9573DE"/>
<stop offset="1" stop-color="white"/>
</linearGradient>
</defs>
</svg>
