<svg width="154" height="44" viewBox="0 0 154 44" fill="none" xmlns="http://www.w3.org/2000/svg">
<path d="M51.4388 28.4072V11.2952H48.6328V28.4072H51.4388Z" fill="#43505C"/>
<path d="M53.1562 22.7032C53.1562 26.1992 55.5023 28.6832 59.0673 28.6832C62.6323 28.6832 64.9783 26.1992 64.9783 22.7032C64.9783 19.2072 62.6323 16.7232 59.0673 16.7232C55.5023 16.7232 53.1562 19.2072 53.1562 22.7032ZM55.9853 22.7032C55.9853 20.6562 57.2043 19.2302 59.0673 19.2302C60.9303 19.2302 62.1493 20.6562 62.1493 22.7032C62.1493 24.7272 60.9303 26.1762 59.0673 26.1762C57.2043 26.1762 55.9853 24.7272 55.9853 22.7032Z" fill="#43505C"/>
<path d="M65.9224 22.4732C65.9224 25.7852 68.0614 28.1772 71.2584 28.1772C72.9144 28.1772 74.3404 27.5102 75.0534 26.4062V28.3382C75.0534 30.2012 73.8804 31.4432 71.9254 31.4432C70.1774 31.4432 68.9814 30.5922 68.8204 29.0972H65.9914C66.3594 32.0642 68.6364 33.9962 71.7644 33.9962C75.4444 33.9962 77.7904 31.5812 77.7904 27.8322V17.0452H75.3064L75.1454 18.5862C74.4554 17.3902 73.0294 16.6772 71.3504 16.6772C68.1074 16.6772 65.9224 19.1382 65.9224 22.4732ZM68.7744 22.4042C68.7744 20.5182 69.9704 19.1382 71.7414 19.1382C73.6734 19.1382 74.9614 20.5412 74.9614 22.4042C74.9614 24.2902 73.6734 25.7392 71.7414 25.7392C69.9934 25.7392 68.7744 24.3132 68.7744 22.4042Z" fill="#43505C"/>
<path d="M79.1787 22.7032C79.1787 26.1992 81.5247 28.6832 85.0897 28.6832C88.6547 28.6832 91.0007 26.1992 91.0007 22.7032C91.0007 19.2072 88.6547 16.7232 85.0897 16.7232C81.5247 16.7232 79.1787 19.2072 79.1787 22.7032ZM82.0077 22.7032C82.0077 20.6562 83.2267 19.2302 85.0897 19.2302C86.9527 19.2302 88.1717 20.6562 88.1717 22.7032C88.1717 24.7272 86.9527 26.1762 85.0897 26.1762C83.2267 26.1762 82.0077 24.7272 82.0077 22.7032Z" fill="#43505C"/>
<path d="M94.0373 14.7222C94.9573 14.7222 95.7163 13.9862 95.7163 13.0432C95.7163 12.1232 94.9573 11.3872 94.0373 11.3872C93.0943 11.3872 92.3813 12.1232 92.3813 13.0432C92.3813 13.9862 93.0943 14.7222 94.0373 14.7222ZM92.6343 28.4072H95.4403V17.0452H92.6343V28.4072Z" fill="#43505C"/>
<path d="M97.8989 33.6742H100.636V26.8432C101.349 28.0162 102.89 28.7062 104.592 28.7062C107.95 28.7062 109.951 26.1302 109.905 22.5882C109.836 19.0232 107.789 16.7002 104.569 16.7002C102.844 16.7002 101.28 17.4592 100.59 18.7702L100.429 17.0452H97.8989V33.6742ZM100.751 22.7262C100.751 20.6792 101.993 19.2532 103.948 19.2532C105.903 19.2532 107.076 20.7022 107.076 22.7262C107.076 24.7502 105.903 26.1762 103.948 26.1762C101.993 26.1762 100.751 24.7732 100.751 22.7262Z" fill="#43505C"/>
<path d="M110.617 25.0032C110.709 27.2572 112.457 28.7062 115.171 28.7062C117.839 28.7062 119.656 27.2802 119.656 25.0722C119.656 23.4392 118.644 22.3352 116.781 21.8752L114.78 21.3922C113.929 21.1622 113.354 20.8632 113.354 20.1272C113.354 19.3452 113.975 18.7932 114.987 18.7932C116.045 18.7932 116.735 19.3912 116.735 20.3802H119.288C119.196 18.1262 117.517 16.7002 115.056 16.7002C112.618 16.7002 110.801 18.1262 110.801 20.2882C110.801 21.7602 111.652 22.9792 113.837 23.5542L115.815 24.0602C116.551 24.2672 117.011 24.6122 117.011 25.2562C117.011 26.1532 116.16 26.5672 115.125 26.5672C113.883 26.5672 113.17 25.9922 113.17 25.0032H110.617Z" fill="#43505C"/>
<path d="M125.477 28.7062C127.018 28.7062 128.49 27.9932 129.157 26.9352L129.341 28.4072H131.963V17.0452H129.157V23.0022C129.157 25.0492 128.375 26.1992 126.535 26.1992C125.109 26.1992 124.12 25.5092 124.12 23.1632V17.0452H121.314V24.1522C121.314 26.8662 122.786 28.7062 125.477 28.7062Z" fill="#43505C"/>
<path d="M137.245 28.4072V21.8752C137.245 20.0352 138.326 19.1612 139.66 19.1612C140.994 19.1612 141.868 20.0122 141.868 21.6222V28.4072H144.605V21.8982C144.605 20.0352 145.663 19.1612 146.997 19.1612C148.354 19.1612 149.228 20.0122 149.228 21.6222V28.4072H151.942V20.9782C151.942 18.3562 150.493 16.7002 147.733 16.7002C146.008 16.7002 144.651 17.5282 144.099 18.8622C143.478 17.5282 142.236 16.7002 140.35 16.7002C139.016 16.7002 137.82 17.3212 137.153 18.3332L137.015 17.0452H134.439V28.4072H137.245Z" fill="#43505C"/>
<path d="M130.518 38.5612C130.936 38.5612 131.299 38.2092 131.299 37.7912C131.299 37.3622 130.936 37.0102 130.518 37.0102C130.089 37.0102 129.726 37.3622 129.726 37.7912C129.726 38.2092 130.089 38.5612 130.518 38.5612Z" fill="#8E98A1"/>
<path d="M132.106 35.7232C132.106 37.4062 133.14 38.5392 134.647 38.5392C135.945 38.5392 136.935 37.7582 137.144 36.5922H136.154C135.967 37.2412 135.395 37.6262 134.713 37.6262C133.745 37.6262 133.129 36.8782 133.129 35.7122C133.129 34.5242 133.778 33.7982 134.735 33.7982C135.395 33.7982 135.967 34.1502 136.143 34.8432H137.133C136.957 33.6662 136.033 32.8742 134.746 32.8742C133.184 32.8742 132.106 34.0292 132.106 35.7232Z" fill="#8E98A1"/>
<path d="M137.534 35.7122C137.534 37.3292 138.634 38.5392 140.284 38.5392C141.934 38.5392 143.034 37.3292 143.034 35.7122C143.034 34.0952 141.934 32.8852 140.284 32.8852C138.634 32.8852 137.534 34.0952 137.534 35.7122ZM138.579 35.7122C138.579 34.6122 139.25 33.8092 140.284 33.8092C141.318 33.8092 141.989 34.6122 141.989 35.7122C141.989 36.8122 141.318 37.6152 140.284 37.6152C139.25 37.6152 138.579 36.8122 138.579 35.7122Z" fill="#8E98A1"/>
<path d="M144.951 38.4182V35.1842C144.951 34.3372 145.479 33.7872 146.249 33.7872C146.986 33.7872 147.448 34.2602 147.448 35.1072V38.4182H148.46V35.1952C148.46 34.3372 148.977 33.7872 149.758 33.7872C150.484 33.7872 150.946 34.2602 150.946 35.1072V38.4182H151.947V34.8872C151.947 33.6442 151.221 32.8852 149.989 32.8852C149.153 32.8852 148.504 33.2922 148.24 33.9522C147.965 33.2922 147.36 32.8852 146.48 32.8852C145.809 32.8852 145.215 33.1932 144.918 33.7212L144.841 33.0392H143.917V38.4182H144.951Z" fill="#8E98A1"/>
<path fill-rule="evenodd" clip-rule="evenodd" d="M2 22.8425L2.00193 22.6421L2.00591 22.4416L2.01195 22.2411L2.02004 22.0406L2.0302 21.8401L2.04241 21.6396L2.05669 21.4392L2.07302 21.2388L2.09142 21.0385L2.11188 20.8382L2.1344 20.6382L2.15897 20.4382L2.18561 20.2384L2.21431 20.0388L2.24506 19.8394L2.27787 19.6403L2.31274 19.4413L2.34965 19.2427L2.38862 19.0443L2.42964 18.8462L2.47271 18.6484L2.51781 18.451L2.56497 18.254L2.61415 18.0573L2.66538 17.8611L2.71863 17.6652L2.77392 17.4698L2.83123 17.2749L2.89056 17.0805L2.9519 16.8866L3.01526 16.6932L3.08063 16.5003L3.148 16.308L3.21736 16.1163L3.28872 15.9252L3.36206 15.7347L3.43739 15.5449L3.51469 15.3557L3.59396 15.1673L3.67519 14.9795L3.75838 14.7924L3.84352 14.6061L3.9306 14.4206L4.01962 14.2358L4.11057 14.0518L4.20344 13.8687L4.29822 13.6864L4.39491 13.5049L4.49349 13.3244L4.59396 13.1447L4.69632 12.9659L4.80054 12.7881L4.90663 12.6112L5.01457 12.4353L5.12436 12.2604L5.23598 12.0865L5.34943 11.9137L5.4647 11.7418L5.58177 11.5711L5.70064 11.4014L5.82129 11.2328L5.94371 11.0654L6.0679 10.899L6.19384 10.7339L6.32153 10.5699L6.45094 10.4071L6.58207 10.2455L6.71491 10.0851L6.84944 9.92595L6.98566 9.76806L7.12355 9.61145L7.26309 9.45614L7.40428 9.30213L7.54711 9.14945L7.69155 8.99811L7.8376 8.84813L7.98524 8.69952L8.13446 8.5523L8.28525 8.40649L8.43759 8.2621L8.59147 8.11916L8.74687 7.97766L8.90378 7.83764L9.06219 7.6991L9.22208 7.56205L9.38343 7.42653L9.54623 7.29254L9.71047 7.16009L9.87613 7.0292L10.0432 6.89988L10.2116 6.77216L10.3815 6.64603L10.5527 6.52153L10.7252 6.39866L10.899 6.27743L11.0742 6.15786L11.2506 6.03995L11.4283 5.92374L11.6073 5.80922L11.7876 5.69642L11.969 5.58534L12.1517 5.47599L12.3355 5.3684L12.5205 5.26257L12.7067 5.15851L12.894 5.05624L13.0824 4.95576L13.2719 4.8571L13.4625 4.76025L13.6542 4.66524L13.8469 4.57207L14.0407 4.48075L14.2354 4.3913L14.4312 4.30373L14.6279 4.21804L14.8256 4.13425L15.0242 4.05237L15.2237 3.9724L15.4241 3.89435L15.6254 3.81825L15.8275 3.74408L16.0305 3.67188L16.2343 3.60163L16.4389 3.53335L16.6442 3.46706L16.8503 3.40275L17.0572 3.34044L17.2648 3.28014L17.473 3.22185L17.682 3.16557L17.8916 3.11132L18.1018 3.05911L18.3126 3.00895L18.5241 2.96082L18.7361 2.91476L18.9486 2.87075L19.1617 2.82881L19.3753 2.78895L19.5894 2.75116L19.804 2.71546L20.019 2.68185L20.2344 2.65033L20.4502 2.62092L20.6664 2.59361L20.883 2.56841L21.0999 2.54531L21.3171 2.52435L21.5346 2.5055L21.7524 2.48877L21.9704 2.47418L23.1428 2.40723L23.2097 8.0559L23.248 8.05546L23.4099 8.05523L23.5718 8.05659L23.7337 8.05954L23.8958 8.06409L24.0578 8.07023L24.2199 8.07795L24.382 8.08728L24.5441 8.09821L24.7061 8.11072L24.8682 8.12484L25.0301 8.14056L25.192 8.15788L25.3537 8.17679L25.5154 8.1973L25.6769 8.21941L25.8383 8.24311L25.9995 8.26842L26.1606 8.29532L26.3214 8.32381L26.4821 8.3539L26.6425 8.38558L26.8026 8.41886L26.9626 8.45372L27.1222 8.49017L27.2815 8.5282L27.4406 8.56782L27.5993 8.60903L27.7576 8.65181L27.9156 8.69617L28.0733 8.7421L28.2305 8.7896L28.3873 8.83867L28.5437 8.88931L28.6997 8.94151L28.8552 8.99526L29.0102 9.05057L29.1648 9.10742L29.3188 9.16583L29.4723 9.22577L29.6253 9.28726L29.7777 9.35028L29.9295 9.41482L30.0808 9.48089L30.2315 9.54848L30.3815 9.61758L30.5309 9.68818L30.6797 9.76029L30.8278 9.8339L30.9752 9.909L31.1219 9.98558L31.2679 10.0636L31.4132 10.1432L31.5577 10.2242L31.7015 10.3066L31.8445 10.3905L31.9867 10.4759L32.1281 10.5627L32.2687 10.6509L32.4084 10.7406L32.5473 10.8316L32.6853 10.9241L32.8225 11.018L32.9587 11.1132L33.0941 11.2099L33.2285 11.3079L33.3619 11.4073L33.4945 11.5081L33.626 11.6102L33.7566 11.7137L33.8861 11.8184L34.0147 11.9245L34.1422 12.032L34.2687 12.1407L34.3942 12.2507L34.5186 12.362L34.6418 12.4746L34.764 12.5885L34.8851 12.7036L35.0051 12.8199L35.1239 12.9375L35.2416 13.0563L35.3581 13.1764L35.4735 13.2976L35.5876 13.42L35.7006 13.5436L35.8123 13.6684L35.9228 13.7943L36.0321 13.9214L36.1401 14.0496L36.2469 14.1789L36.3524 14.3094L36.4566 14.4409L36.5595 14.5735L36.6611 14.7072L36.7614 14.842L36.8603 14.9778L36.9579 15.1147L37.0541 15.2526L37.149 15.3914L37.2425 15.5313L37.3346 15.6722L37.4253 15.8141L37.5145 15.9569L37.6024 16.1006L37.6888 16.2453L37.7738 16.3909L37.8573 16.5374L37.9394 16.6848L38.02 16.8331L38.0991 16.9822L38.1767 17.1322L38.2528 17.283L38.3274 17.4346L38.4005 17.5871L38.4721 17.7403L38.5421 17.8943L38.6106 18.0491L38.6775 18.2046L38.7428 18.3609L38.8066 18.5178L38.8688 18.6755L38.9294 18.8338L38.9884 18.9929L39.0458 19.1525L39.1016 19.3129L39.1558 19.4738L39.2084 19.6354L39.2593 19.7975L39.3086 19.9602L39.3562 20.1235L39.4022 20.2873L39.4465 20.4517L39.4892 20.6166L39.5301 20.7819L39.5695 20.9478L39.6071 21.1141L39.643 21.2809L39.6773 21.448L39.7098 21.6157L39.7406 21.7837L39.7698 21.9521L39.7972 22.1208L39.8229 22.2899L39.8469 22.4594L39.8691 22.6291L39.8896 22.7992L39.9084 22.9695L39.9254 23.1401L39.9407 23.3109L39.9543 23.482L39.9661 23.6533L39.9761 23.8248L39.9844 23.9964L39.991 24.1683L39.9957 24.3402L39.9988 24.5123L40 24.6845L39.9995 24.8568L39.9972 25.0292L39.9931 25.2017L39.9873 25.3741L39.9797 25.5466L39.9704 25.7191L39.9592 25.8916L39.9463 26.0641L39.9316 26.2365L39.9151 26.4089L39.8969 26.5812L39.8768 26.7533L39.855 26.9254L39.8315 27.0973L39.8061 27.2691L39.779 27.4407L39.7501 27.6121L39.7194 27.7833L39.687 27.9543L39.6528 28.1251L39.6168 28.2956L39.579 28.4658L39.5395 28.6358L39.4983 28.8054L39.4552 28.9747L39.4104 29.1436L39.3639 29.3122L39.3156 29.4804L39.2656 29.6482L39.2138 29.8157L39.1602 29.9826L39.105 30.1492L39.048 30.3152L38.9892 30.4808L38.9288 30.6459L38.8666 30.8104L38.8027 30.9744L38.7371 31.1379L38.6698 31.3008L38.6008 31.4631L38.5301 31.6249L38.4577 31.7859L38.3836 31.9464L38.3078 32.1062L38.2304 32.2653L38.1512 32.4238L38.0705 32.5815L37.988 32.7386L37.904 32.8948L37.8182 33.0504L37.7309 33.2051L37.6419 33.3591L37.5513 33.5123L37.4591 33.6646L37.3653 33.8162L37.2698 33.9668L37.1728 34.1166L37.0743 34.2655L36.9741 34.4135L36.8724 34.5606L36.7691 34.7068L36.6643 34.852L36.5579 34.9963L36.45 35.1396L36.3406 35.2819L36.2297 35.4231L36.1173 35.5634L36.0034 35.7026L35.888 35.8407L35.7711 35.9778L35.6528 36.1138L35.533 36.2487L35.4118 36.3825L35.2892 36.5152L35.1652 36.6467L35.0397 36.7771L34.9129 36.9062L34.7846 37.0342L34.655 37.161L34.5241 37.2866L34.3918 37.411L34.2582 37.5341L34.1232 37.656L33.9869 37.7765L33.8494 37.8958L33.7105 38.0139L33.5704 38.1306L33.429 38.2459L33.2864 38.36L33.1425 38.4727L32.9974 38.584L32.8511 38.6939L32.7036 38.8025L32.555 38.9097L32.4051 39.0154L32.2541 39.1198L32.102 39.2227L31.9488 39.3241L31.7944 39.4241L31.639 39.5227L31.4825 39.6197L31.3249 39.7153L31.1662 39.8093L31.0065 39.9019L30.8459 39.9929L30.6841 40.0823L30.5215 40.1703L30.3578 40.2566L30.1932 40.3414L30.0276 40.4247L29.8611 40.5063L29.6937 40.5863L29.5254 40.6648L29.3562 40.7416L29.1862 40.8168L29.0153 40.8903L28.8436 40.9622L28.6711 41.0325L28.4978 41.1011L28.3237 41.168L28.1488 41.2333L27.9732 41.2968L27.7968 41.3587L27.6198 41.4188L27.4421 41.4773L27.2636 41.534L27.0845 41.589L26.9048 41.6423L26.7245 41.6938L26.5435 41.7436L26.362 41.7917L26.1798 41.8379L25.9972 41.8824L25.814 41.9252L25.6302 41.9661L25.446 42.0053L25.2613 42.0427L25.0761 42.0783L24.8905 42.1121L24.7045 42.144L24.518 42.1742L24.3312 42.2026L24.1439 42.2291L23.9564 42.2538L23.7685 42.2767L23.5802 42.2977L23.3917 42.3169L23.2029 42.3343L23.0139 42.3498L22.8246 42.3635L22.6351 42.3753L22.4453 42.3853L22.2554 42.3934L22.0654 42.3996L21.8751 42.404L21.6848 42.4065L21.4943 42.4072L21.3038 42.406L21.1132 42.4029L20.9225 42.398L20.7318 42.3911L20.5411 42.3824L20.3504 42.3719L20.1598 42.3594L19.9691 42.3451L19.7786 42.3289L19.5881 42.3108L19.3977 42.2909L19.2075 42.2691L19.0174 42.2454L18.8274 42.2198L18.6377 42.1923L18.4481 42.163L18.2588 42.1318L18.0697 42.0988L17.8808 42.0638L17.6923 42.027L17.504 41.9884L17.3161 41.9478L17.1284 41.9054L16.9412 41.8612L16.7543 41.8151L16.5678 41.7671L16.3817 41.7173L16.1961 41.6657L16.0109 41.6122L15.8261 41.5569L15.6419 41.4997L15.4582 41.4407L15.275 41.3799L15.0923 41.3172L14.9102 41.2527L14.7287 41.1865L14.5478 41.1184L14.3675 41.0485L14.1879 40.9768L14.0089 40.9033L13.8306 40.828L13.653 40.751L13.4761 40.6722L13.2999 40.5916L13.1245 40.5092L12.9499 40.4251L12.7761 40.3392L12.603 40.2516L12.4308 40.1623L12.2595 40.0712L12.0889 39.9785L11.9193 39.884L11.7506 39.7878L11.5828 39.6899L11.4159 39.5903L11.25 39.4891L11.085 39.3861L10.921 39.2816L10.7581 39.1753L10.5961 39.0675L10.4352 38.9579L10.2754 38.8468L10.1166 38.7341L9.95891 38.6197L9.80233 38.5038L9.64687 38.3862L9.49256 38.2671L9.3394 38.1465L9.18741 38.0242L9.03662 37.9005L8.88703 37.7752L8.73866 37.6484L8.59153 37.5201L8.44566 37.3902L8.30106 37.2589L8.15775 37.1262L8.01573 36.9919L7.87504 36.8563L7.73568 36.7191L7.59766 36.5806L7.46101 36.4407L7.32574 36.2993L7.19186 36.1566L7.05939 36.0125L6.92835 35.867L6.79874 35.7202L6.67058 35.5721L6.54389 35.4226L6.41868 35.2719L6.29497 35.1198L6.17276 34.9665L6.05208 34.8119L5.93293 34.6561L5.81533 34.499L5.69929 34.3407L5.58483 34.1812L5.47195 34.0205L5.36068 33.8587L5.25102 33.6957L5.14299 33.5315L5.0366 33.3663L4.93185 33.1999L4.82877 33.0324L4.72737 32.8639L4.62765 32.6942L4.52964 32.5236L4.43333 32.3519L4.33874 32.1792L4.24589 32.0054L4.15477 31.8307L4.06542 31.6551L3.97782 31.4785L3.89201 31.301L3.80798 31.1225L3.72574 30.9432L3.64531 30.7629L3.56669 30.5819L3.4899 30.3999L3.41495 30.2172L3.34183 30.0336L3.27057 29.8492L3.20118 29.6641L3.13365 29.4782L3.068 29.2916L3.00423 29.1043L2.94236 28.9162L2.8824 28.7275L2.82434 28.5381L2.76821 28.3481L2.714 28.1574L2.66172 27.9661L2.61138 27.7743L2.56299 27.5819L2.51655 27.3889L2.47208 27.1954L2.42957 27.0013L2.38903 26.8068L2.35047 26.6118L2.31389 26.4164L2.2793 26.2205L2.24671 26.0242L2.21611 25.8275L2.18752 25.6304L2.16094 25.4329L2.13638 25.2351L2.11383 25.037L2.0933 24.8386L2.0748 24.64L2.05833 24.441L2.04389 24.2418L2.03149 24.0424L2.02113 23.8428L2.01281 23.643L2.00653 23.4431L2.0023 23.243L2.00013 23.0428L2 22.8425ZM21.3781 8.17422L21.3325 4.32402L21.2892 4.3282L21.0904 4.34936L20.8921 4.37244L20.6939 4.39748L20.4965 4.42438L20.2993 4.45324L20.1023 4.48403L19.9059 4.51671L19.7097 4.55134L19.5145 4.58777L19.319 4.62624L19.1249 4.66644L18.9305 4.70867L18.7371 4.75269L18.5439 4.79867L18.3516 4.84641L18.1598 4.89607L17.9685 4.94758L17.7778 5.00095L17.588 5.05611L17.3985 5.11317L17.21 5.172L17.022 5.2327L16.835 5.29508L16.6483 5.35943L16.4626 5.4255L16.2778 5.49332L16.0935 5.56299L15.9102 5.63436L15.7279 5.70745L15.5461 5.78242L15.3652 5.85909L15.1852 5.93751L15.0062 6.01758L14.8281 6.09939L14.651 6.18285L14.4745 6.26815L14.2993 6.35501L14.125 6.44356L13.9517 6.53378L13.7794 6.62567L13.6083 6.71913L13.4379 6.81432L13.2686 6.91116L13.1008 7.00938L12.9335 7.10952L12.7678 7.21099L12.6032 7.31404L12.4394 7.41878L12.2769 7.52505L12.1156 7.63287L11.9558 7.74196L11.7966 7.85298L11.639 7.96519L11.4826 8.07895L11.3273 8.19427L11.1734 8.31096L11.0209 8.42905L10.8693 8.5488L10.7194 8.66969L10.5706 8.79217L10.4232 8.91598L10.2771 9.04123L10.1325 9.16768L9.98898 9.29573L9.8471 9.42492L9.70643 9.5556L9.56739 9.68738L9.42962 9.82059L9.29338 9.955L9.15853 10.0907L9.02499 10.2279L8.8932 10.366L8.76289 10.5052L8.63374 10.6461L8.50638 10.7879L8.38058 10.9307L8.25607 11.075L8.13337 11.2202L8.01203 11.3667L7.89232 11.5142L7.77418 11.6629L7.65758 11.8126L7.5427 11.9633L7.42932 12.1151L7.3175 12.2681L7.20748 12.4218L7.09893 12.5768L6.99211 12.7326L6.88694 12.8894L6.78335 13.0472L6.68151 13.2059L6.58134 13.3654L6.48285 13.5259L6.38612 13.6872L6.29098 13.8495L6.19755 14.0127L6.10596 14.1765L6.01601 14.3412L5.92778 14.5068L5.84134 14.6731L5.7566 14.8402L5.67368 15.0079L5.59249 15.1764L5.51309 15.3456L5.43542 15.5156L5.35959 15.6861L5.28548 15.8574L5.21318 16.0293L5.14273 16.2017L5.07404 16.3748L5.00715 16.5485L4.9421 16.7227L4.87885 16.8975L4.81747 17.0727L4.75786 17.2486L4.7001 17.4249L4.64419 17.6017L4.59013 17.7788L4.53787 17.9566L4.4875 18.1346L4.43897 18.3131L4.39228 18.4919L4.34745 18.6712L4.30449 18.8507L4.26339 19.0306L4.22415 19.2108L4.18678 19.3913L4.15128 19.572L4.11764 19.753L4.08588 19.9342L4.05599 20.1157L4.02798 20.2973L4.00184 20.4791L3.97758 20.6611L3.95519 20.8432L3.93468 21.0254L3.91605 21.2078L3.8993 21.3902L3.88442 21.5726L3.87142 21.7552L3.8603 21.9378L3.85105 22.1203L3.84368 22.3029L3.83818 22.4854L3.83456 22.6679L3.8328 22.8503L3.83292 23.0327L3.8349 23.2149L3.83875 23.3971L3.84446 23.5791L3.85203 23.7609L3.86147 23.9426L3.87275 24.124L3.88589 24.3053L3.90088 24.4863L3.91772 24.6671L3.93639 24.8477L3.95691 25.0279L3.97926 25.2079L4.00344 25.3875L4.02945 25.5668L4.05729 25.7458L4.08693 25.9243L4.1184 26.1025L4.15167 26.2803L4.18674 26.4576L4.22361 26.6346L4.26227 26.811L4.30272 26.987L4.34495 27.1625L4.38895 27.3375L4.43473 27.512L4.48225 27.6858L4.53155 27.8592L4.58259 28.032L4.63537 28.2042L4.68989 28.3758L4.74612 28.5467L4.80408 28.717L4.86376 28.8866L4.92514 29.0556L4.9882 29.2238L5.05299 29.3914L5.11942 29.5582L5.18753 29.7243L5.25732 29.8896L5.32875 30.0541L5.40184 30.2179L5.47656 30.3809L5.55291 30.543L5.63087 30.7043L5.71045 30.8647L5.79162 31.0243L5.87439 31.183L5.95873 31.3408L6.04465 31.4977L6.13212 31.6536L6.22114 31.8086L6.3117 31.9627L6.4038 32.1157L6.49737 32.2678L6.59251 32.4189L6.6891 32.5689L6.7872 32.718L6.88677 32.866L6.98778 33.0129L7.09024 33.1588L7.19417 33.3036L7.29949 33.4473L7.40626 33.5899L7.51438 33.7313L7.62395 33.8716L7.73483 34.0107L7.84711 34.1487L7.96077 34.2856L8.0757 34.4212L8.192 34.5556L8.30959 34.6888L8.42852 34.8208L8.5487 34.9515L8.67013 35.081L8.79285 35.2092L8.9168 35.3362L9.04202 35.4619L9.16842 35.5862L9.29606 35.7093L9.42484 35.831L9.55481 35.9515L9.68598 36.0706L9.81827 36.1883L9.95162 36.3046L10.0862 36.4196L10.2219 36.5332L10.3585 36.6454L10.4964 36.7563L10.6352 36.8656L10.7751 36.9736L10.916 37.0802L11.058 37.1853L11.2009 37.2889L11.3448 37.3911L11.4896 37.4918L11.6355 37.5911L11.7822 37.6888L11.93 37.7851L12.0785 37.8799L12.228 37.9731L12.3784 38.0649L12.5295 38.1551L12.6816 38.2438L12.8344 38.3309L12.9881 38.4165L13.1425 38.5005L13.2978 38.583L13.4537 38.6639L13.6104 38.7433L13.7679 38.821L13.9261 38.8972L14.0849 38.9718L14.2444 39.0448L14.4045 39.1161L14.5654 39.1859L14.7268 39.254L14.8889 39.3206L15.0515 39.3855L15.2147 39.4487L15.3785 39.5104L15.5427 39.5704L15.7075 39.6287L15.8729 39.6854L16.0387 39.7405L16.205 39.7939L16.3716 39.8456L16.5389 39.8957L16.7064 39.9441L16.8744 39.9908L17.0428 40.0359L17.2115 40.0793L17.3806 40.121L17.5499 40.161L17.7197 40.1994L17.8897 40.236L18.0599 40.271L18.2305 40.3043L18.4013 40.3359L18.5723 40.3658L18.7435 40.394L18.9149 40.4205L19.0865 40.4453L19.2583 40.4684L19.4301 40.4899L19.6021 40.5096L19.7742 40.5276L19.9464 40.544L20.1187 40.5586L20.291 40.5716L20.4633 40.5828L20.6357 40.5924L20.808 40.6002L20.9803 40.6064L21.1526 40.6109L21.3249 40.6136L21.497 40.6147L21.6691 40.6141L21.8411 40.6118L22.0129 40.6079L22.1846 40.6022L22.3562 40.5949L22.5276 40.5859L22.6987 40.5752L22.8697 40.5629L23.0405 40.5489L23.211 40.5332L23.3812 40.5158L23.5512 40.4968L23.7208 40.4762L23.8902 40.4539L24.0592 40.4299L24.2279 40.4043L24.3962 40.3771L24.5642 40.3482L24.7318 40.3177L24.8989 40.2856L25.0656 40.2519L25.2319 40.2165L25.3977 40.1796L25.563 40.141L25.7279 40.1008L25.8922 40.0591L26.056 40.0157L26.2192 39.9708L26.382 39.9243L26.5441 39.8762L26.7057 39.8266L26.8666 39.7755L27.027 39.7227L27.1867 39.6685L27.3456 39.6127L27.5041 39.5553L27.6618 39.4965L27.8188 39.4361L27.9751 39.3743L28.1306 39.311L28.2854 39.2461L28.4395 39.1798L28.5928 39.112L28.7452 39.0428L28.897 38.9721L29.0479 38.8999L29.1979 38.8264L29.3472 38.7513L29.4955 38.6749L29.643 38.5971L29.7897 38.5178L29.9353 38.4372L30.0801 38.3552L30.2239 38.2719L30.367 38.1871L30.5088 38.1011L30.65 38.0136L30.7899 37.9249L30.9289 37.8348L31.067 37.7434L31.2041 37.6506L31.3399 37.5568L31.4748 37.4615L31.6087 37.365L31.7415 37.2673L31.8733 37.1682L32.0038 37.0681L32.1335 36.9665L32.2618 36.8639L32.389 36.7601L32.5153 36.655L32.6403 36.5487L32.764 36.4414L32.8867 36.3328L33.0081 36.2232L33.1284 36.1124L33.2475 36.0005L33.3652 35.8876L33.4819 35.7734L33.5973 35.6582L33.7114 35.542L33.8243 35.4247L33.9358 35.3065L34.046 35.1873L34.1552 35.0667L34.2628 34.9455L34.3693 34.8231L34.4743 34.6999L34.5781 34.5756L34.6805 34.4505L34.7815 34.3244L34.8813 34.1973L34.9796 34.0695L35.0767 33.9406L35.1722 33.811L35.2665 33.6804L35.3595 33.5489L35.4507 33.4169L35.5408 33.2838L35.6293 33.1501L35.7165 33.0154L35.8024 32.8799L35.8866 32.7439L35.9694 32.6071L36.0509 32.4692L36.1307 32.3311L36.2092 32.192L36.2863 32.0522L36.3617 31.912L36.4358 31.7708L36.5084 31.629L36.5793 31.4871L36.6489 31.344L36.717 31.2004L36.7835 31.0564L36.8485 30.9118L36.912 30.7666L36.9739 30.621L37.0344 30.4746L37.0933 30.3278L37.1506 30.1809L37.2064 30.0329L37.2606 29.8849L37.3134 29.7362L37.3646 29.5872L37.4142 29.4377L37.4621 29.2882L37.5087 29.1376L37.5535 28.9872L37.5968 28.8363L37.6386 28.6852L37.6788 28.5335L37.7173 28.3818L37.7544 28.2296L37.7898 28.0771L37.8237 27.9245L37.856 27.7715L37.8866 27.6186L37.9157 27.465L37.9432 27.3118L37.9691 27.158L37.9934 27.0041L38.0161 26.8502L38.0373 26.696L38.0568 26.542L38.0748 26.3873L38.0911 26.2332L38.1059 26.0786L38.119 25.9243L38.1306 25.7695L38.1406 25.6153L38.149 25.4606L38.1558 25.3058L38.161 25.1514L38.1647 24.9973L38.1667 24.8426L38.1672 24.6882L38.1661 24.534L38.1634 24.3799L38.1591 24.2258L38.1532 24.0723L38.1458 23.9182L38.1368 23.7648L38.1262 23.6114L38.1141 23.4585L38.1004 23.3053L38.0852 23.1528L38.0684 23.0002L38.05 22.8481L38.0301 22.6961L38.0087 22.5446L37.9856 22.393L37.9611 22.2421L37.9351 22.0917L37.9075 21.9412L37.8783 21.7912L37.8477 21.6418L37.8155 21.4923L37.782 21.3439L37.7467 21.1953L37.7102 21.0477L37.6719 20.8999L37.6323 20.7532L37.5912 20.6067L37.5486 20.4605L37.5046 20.3152L37.4591 20.1704L37.412 20.0257L37.3637 19.8821L37.3137 19.7386L37.2625 19.596L37.2097 19.4537L37.1556 19.3124L37.0999 19.1713L37.0429 19.031L36.9846 18.8916L36.9249 18.7528L36.8635 18.6142L36.8012 18.4769L36.7371 18.3397L36.6719 18.2038L36.6053 18.0684L36.5372 17.9335L36.468 17.7997L36.3973 17.6665L36.3252 17.5339L36.2522 17.4026L36.1775 17.2716L36.1017 17.1417L36.0244 17.0124L35.9462 16.8844L35.8663 16.7567L35.7855 16.6302L35.7032 16.5043L35.6198 16.3795L35.5353 16.2558L35.4493 16.1326L35.3622 16.0105L35.274 15.8893L35.1845 15.7692L35.0939 15.6498L35.0021 15.5316L34.9092 15.4142L34.8151 15.2979L34.7199 15.1826L34.6235 15.0682L34.526 14.9549L34.4275 14.8426L34.328 14.7314L34.2273 14.6212L34.1253 14.5119L34.0228 14.4041L33.9186 14.2969L33.8139 14.1912L33.708 14.0863L33.6012 13.9827L33.493 13.8799L33.3844 13.7787L33.2744 13.6783L33.1635 13.5791L33.052 13.4812L32.9394 13.3844L32.8255 13.2885L32.711 13.194L32.5957 13.1007L32.4794 13.0086L32.3622 12.9176L32.2444 12.8281L32.1253 12.7393L32.0058 12.6522L31.8853 12.5662L31.7639 12.4813L31.642 12.3978L31.5188 12.3153L31.3956 12.2345L31.271 12.1546L31.146 12.0761L31.02 11.9988L30.8935 11.9228L30.7663 11.8482L30.6386 11.775L30.5097 11.7027L30.3808 11.6321L30.2508 11.5626L30.1203 11.4945L29.9893 11.4278L29.8575 11.3623L29.7252 11.2981L29.5924 11.2354L29.4589 11.1739L29.3251 11.1139L29.1906 11.0551L29.0513 10.9959L28.9203 10.9418L28.784 10.887L28.6479 10.8339L28.5107 10.7818L28.3735 10.7314L28.2357 10.6822L28.0976 10.6345L27.9589 10.588L27.8201 10.5431L27.6807 10.4995L27.541 10.4573L27.4012 10.4166L27.2608 10.3772L27.1199 10.3391L26.9792 10.3026L26.8382 10.2674L26.6963 10.2336L26.5549 10.2013L26.4128 10.1703L26.2707 10.1408L26.1281 10.1126L25.9857 10.086L25.8429 10.0607L25.7002 10.0368L25.5568 10.0143L25.4138 9.99332L25.2705 9.9737L25.127 9.95549L24.9835 9.93871L24.84 9.92337L24.6964 9.90943L24.5527 9.89691L24.4089 9.8858L24.265 9.8761L24.1215 9.86784L23.9779 9.86099L23.8338 9.85554L23.6905 9.85152L23.5469 9.8489L23.4034 9.8477L23.2597 9.8479L23.2309 9.84823L23.2762 13.6704L23.3577 13.67L23.4626 13.6706L23.5675 13.6722L23.6725 13.6749L23.7776 13.6786L23.8827 13.6834L23.9878 13.6892L24.093 13.696L24.1982 13.7039L24.3034 13.7128L24.4086 13.7228L24.5137 13.7338L24.6189 13.7459L24.724 13.759L24.829 13.7731L24.934 13.7884L25.0389 13.8046L25.1437 13.8219L25.2485 13.8403L25.3531 13.8597L25.4576 13.8802L25.562 13.9017L25.6663 13.9242L25.7704 13.9478L25.8743 13.9725L25.9781 13.9982L26.0816 14.0249L26.185 14.0527L26.2882 14.0815L26.3912 14.1114L26.494 14.1423L26.5965 14.1742L26.6987 14.2072L26.8007 14.2412L26.9025 14.2763L27.0039 14.3124L27.1051 14.3495L27.2059 14.3876L27.3065 14.4268L27.4067 14.467L27.5066 14.5082L27.6061 14.5505L27.7053 14.5937L27.8041 14.638L27.9025 14.6832L28.0005 14.7295L28.0982 14.7768L28.1954 14.8251L28.2922 14.8744L28.3886 14.9247L28.4845 14.9759L28.58 15.0282L28.675 15.0814L28.7695 15.1356L28.8636 15.1908L28.9572 15.247L29.0502 15.3041L29.1427 15.3622L29.2347 15.4213L29.3262 15.4813L29.4171 15.5422L29.5075 15.6041L29.5973 15.667L29.6865 15.7307L29.7751 15.7954L29.8631 15.8611L29.9506 15.9276L30.0373 15.9951L30.1235 16.0635L30.209 16.1327L30.2939 16.2029L30.3781 16.274L30.4617 16.3459L30.5446 16.4187L30.6268 16.4924L30.7083 16.567L30.789 16.6424L30.8691 16.7187L30.9484 16.7958L31.027 16.8738L31.1049 16.9526L31.182 17.0323L31.2584 17.1127L31.3339 17.194L31.4087 17.2761L31.4827 17.359L31.5559 17.4426L31.6283 17.5271L31.6999 17.6123L31.7707 17.6983L31.8406 17.7851L31.9097 17.8726L31.9779 17.9609L32.0453 18.0499L32.1118 18.1397L32.1774 18.2301L32.2422 18.3213L32.306 18.4132L32.369 18.5058L32.431 18.5991L32.4921 18.693L32.5523 18.7877L32.6116 18.883L32.67 18.9789L32.7274 19.0755L32.7838 19.1728L32.8393 19.2706L32.8938 19.3691L32.9473 19.4682L32.9999 19.5679L33.0515 19.6682L33.102 19.7691L33.1516 19.8706L33.2002 19.9726L33.2477 20.0751L33.2942 20.1783L33.3397 20.2819L33.3842 20.3861L33.4276 20.4908L33.47 20.596L33.5113 20.7017L33.5515 20.8078L33.5907 20.9145L33.6288 21.0216L33.6659 21.1292L33.7019 21.2372L33.7367 21.3457L33.7705 21.4545L33.8032 21.5638L33.8348 21.6735L33.8653 21.7836L33.8946 21.8941L33.9229 22.0049L33.95 22.1161L33.976 22.2276L34.0009 22.3395L34.0246 22.4517L34.0472 22.5642L34.0686 22.677L34.0889 22.7902L34.1081 22.9036L34.1261 23.0172L34.1429 23.1312L34.1586 23.2453L34.1731 23.3597L34.1865 23.4744L34.1986 23.5893L34.2096 23.7043L34.2195 23.8196L34.2281 23.935L34.2356 24.0506L34.2418 24.1663L34.2469 24.2822L34.2508 24.3983L34.2535 24.5144L34.255 24.6307L34.2553 24.7471L34.2544 24.8635L34.2523 24.98L34.249 25.0966L34.2445 25.2133L34.2388 25.3299L34.2319 25.4466L34.2238 25.5634L34.2145 25.6801L34.2039 25.7968L34.1922 25.9135L34.1792 26.0301L34.1651 26.1468L34.1497 26.2633L34.1331 26.3798L34.1153 26.4962L34.0963 26.6125L34.0761 26.7287L34.0546 26.8448L34.032 26.9608L34.0081 27.0766L33.983 27.1923L33.9568 27.3078L33.9293 27.4231L33.9006 27.5382L33.8707 27.6532L33.8396 27.7679L33.8073 27.8824L33.7738 27.9966L33.7391 28.1106L33.7032 28.2244L33.666 28.3379L33.6277 28.451L33.5882 28.5639L33.5476 28.6765L33.5057 28.7887L33.4626 28.9006L33.4184 29.0122L33.373 29.1234L33.3264 29.2343L33.2786 29.3447L33.2297 29.4548L33.1796 29.5645L33.1283 29.6737L33.0759 29.7825L33.0223 29.8909L32.9675 29.9988L32.9116 30.1063L32.8546 30.2132L32.7964 30.3197L32.7371 30.4257L32.6767 30.5312L32.6151 30.6361L32.5524 30.7406L32.4886 30.8444L32.4237 30.9478L32.3576 31.0505L32.2905 31.1527L32.2222 31.2542L32.1529 31.3552L32.0825 31.4556L32.011 31.5553L31.9384 31.6544L31.8648 31.7529L31.7901 31.8507L31.7143 31.9478L31.6375 32.0442L31.5596 32.14L31.4807 32.235L31.4008 32.3294L31.3198 32.423L31.2378 32.5159L31.1548 32.608L31.0708 32.6994L30.9858 32.79L30.8999 32.8799L30.8129 32.9689L30.725 33.0572L30.636 33.1446L30.5462 33.2313L30.4553 33.3171L30.3636 33.402L30.2709 33.4862L30.1772 33.5694L30.0827 33.6518L29.9872 33.7334L29.8909 33.814L29.7936 33.8938L29.6955 33.9726L29.5964 34.0505L29.4965 34.1275L29.3958 34.2036L29.2942 34.2787L29.1917 34.3529L29.0885 34.4262L28.9844 34.4984L28.8795 34.5697L28.7737 34.64L28.6672 34.7093L28.5599 34.7776L28.4519 34.8449L28.343 34.9111L28.2335 34.9764L28.1231 35.0406L28.0121 35.1037L27.9003 35.1658L27.7878 35.2269L27.6746 35.2869L27.5607 35.3458L27.4461 35.4036L27.3309 35.4603L27.215 35.516L27.0984 35.5705L26.9812 35.6239L26.8634 35.6762L26.745 35.7274L26.6259 35.7774L26.5063 35.8263L26.3861 35.8741L26.2653 35.9207L26.144 35.9662L26.0221 36.0105L25.8997 36.0536L25.7767 36.0955L25.6533 36.1363L25.5293 36.1758L25.4049 36.2142L25.28 36.2514L25.1546 36.2873L25.0288 36.3221L24.9025 36.3556L24.7758 36.3879L24.6487 36.419L24.5212 36.4489L24.3932 36.4775L24.265 36.5049L24.1363 36.531L24.0073 36.5559L23.878 36.5796L23.7483 36.602L23.6183 36.6231L23.4881 36.6429L23.3575 36.6615L23.2266 36.6788L23.0955 36.6949L22.9642 36.7096L22.8326 36.7231L22.7008 36.7353L22.5688 36.7462L22.4366 36.7558L22.3042 36.7641L22.1716 36.7711L22.0389 36.7768L21.906 36.7812L21.773 36.7843L21.6399 36.7861L21.5066 36.7866L21.3733 36.7858L21.24 36.7836L21.1065 36.7802L20.973 36.7754L20.8395 36.7693L20.7059 36.7619L20.5724 36.7532L20.4388 36.7432L20.3053 36.7318L20.1718 36.7191L20.0383 36.7051L19.9049 36.6898L19.7716 36.6732L19.6383 36.6552L19.5052 36.6359L19.3722 36.6153L19.2393 36.5934L19.1065 36.5701L18.9739 36.5456L18.8415 36.5197L18.7093 36.4924L18.5772 36.4639L18.4454 36.4341L18.3138 36.4029L18.1824 36.3704L18.0513 36.3366L17.9204 36.3015L17.7898 36.2651L17.6596 36.2274L17.5296 36.1884L17.3999 36.1481L17.2706 36.1064L17.1417 36.0635L17.013 36.0193L16.8848 35.9738L16.757 35.927L16.6295 35.8789L16.5025 35.8295L16.3759 35.7789L16.2497 35.7269L16.124 35.6737L15.9988 35.6193L15.8741 35.5635L15.7498 35.5065L15.6261 35.4483L15.5029 35.3888L15.3802 35.328L15.258 35.266L15.1365 35.2028L15.0155 35.1383L14.8951 35.0726L14.7753 35.0057L14.6561 34.9375L14.5375 34.8682L14.4196 34.7976L14.3023 34.7258L14.1857 34.6529L14.0698 34.5787L13.9546 34.5034L13.8401 34.4268L13.7263 34.3491L13.6132 34.2703L13.5009 34.1903L13.3893 34.1091L13.2785 34.0268L13.1684 33.9433L13.0592 33.8587L12.9508 33.773L12.8432 33.6861L12.7364 33.5982L12.6304 33.5091L12.5253 33.419L12.4211 33.3277L12.3177 33.2354L12.2152 33.142L12.1137 33.0476L12.013 32.9521L11.9132 32.8555L11.8144 32.7579L11.7166 32.6593L11.6197 32.5596L11.5237 32.459L11.4287 32.3573L11.3348 32.2547L11.2418 32.151L11.1498 32.0464L11.0589 31.9408L10.9689 31.8343L10.8801 31.7268L10.7922 31.6183L10.7055 31.509L10.6198 31.3987L10.5352 31.2875L10.4517 31.1754L10.3692 31.0625L10.2879 30.9486L10.2078 30.8339L10.1287 30.7183L10.0508 30.6019L9.97406 30.4847L9.89847 30.3666L9.82404 30.2477L9.7508 30.128L9.67874 30.0075L9.60788 29.8863L9.53822 29.7642L9.46977 29.6415L9.40255 29.5179L9.33656 29.3937L9.2718 29.2687L9.20829 29.143L9.14604 29.0166L9.08505 28.8895L9.02533 28.7618L8.96689 28.6333L8.90973 28.5043L8.85387 28.3746L8.79931 28.2442L8.74605 28.1133L8.69412 27.9818L8.6435 27.8496L8.59421 27.7169L8.54625 27.5837L8.49964 27.4498L8.45438 27.3155L8.41047 27.1806L8.36792 27.0452L8.32674 26.9094L8.28693 26.773L8.2485 26.6362L8.21145 26.4989L8.1758 26.3611L8.14154 26.223L8.10867 26.0844L8.07722 25.9454L8.04717 25.806L8.01854 25.6663L7.99133 25.5262L7.96554 25.3857L7.94118 25.2449L7.91826 25.1038L7.89677 24.9624L7.87672 24.8207L7.85812 24.6787L7.84097 24.5364L7.82527 24.3939L7.81102 24.2512L7.79823 24.1082L7.78691 23.965L7.77705 23.8217L7.76865 23.6781L7.76173 23.5344L7.75628 23.3906L7.75231 23.2466L7.74981 23.1025L7.74879 22.9582L7.74926 22.8139L7.7512 22.6695L7.75464 22.5251L7.75955 22.3806L7.76596 22.236L7.77386 22.0915L7.78324 21.9469L7.79412 21.8024L7.80648 21.6578L7.82034 21.5134L7.8357 21.3689L7.85254 21.2246L7.87088 21.0803L7.89071 20.9361L7.91203 20.792L7.93485 20.6481L7.95915 20.5043L7.98495 20.3607L8.01224 20.2172L8.04102 20.0739L8.07128 19.9309L8.10304 19.788L8.13628 19.6454L8.171 19.503L8.2072 19.3609L8.24489 19.2191L8.28405 19.0775L8.32469 18.9363L8.36681 18.7954L8.41039 18.6548L8.45545 18.5145L8.50197 18.3747L8.54995 18.2352L8.5994 18.0961L8.6503 17.9574L8.70265 17.8191L8.75645 17.6813L8.8117 17.5439L8.86839 17.407L8.92652 17.2706L8.98608 17.1346L9.04708 16.9992L9.10949 16.8643L9.17333 16.7299L9.23858 16.5961L9.30525 16.4629L9.37332 16.3302L9.44279 16.1982L9.51365 16.0667L9.58591 15.9359L9.65955 15.8057L9.73456 15.6761L9.81095 15.5473L9.88871 15.4191L9.96782 15.2916L10.0483 15.1648L10.1301 15.0387L10.2133 14.9134L10.2977 14.7888L10.3836 14.665L10.4707 14.5419L10.5591 14.4196L10.6489 14.2982L10.7399 14.1775L10.8323 14.0577L10.9259 13.9387L11.0208 13.8206L11.1169 13.7034L11.2143 13.587L11.313 13.4715L11.4129 13.3569L11.514 13.2433L11.6164 13.1306L11.7199 13.0188L11.8247 12.908L11.9307 12.7981L12.0378 12.6893L12.1461 12.5814L12.2556 12.4745L12.3663 12.3687L12.4781 12.2638L12.591 12.1601L12.7051 12.0573L12.8203 11.9557L12.9365 11.8551L13.0539 11.7556L13.1724 11.6572L13.2919 11.5599L13.4125 11.4637L13.5342 11.3687L13.6569 11.2748L13.7806 11.1821L13.9054 11.0905L14.0311 11.0001L14.1578 10.9109L14.2856 10.8229L14.4143 10.7361L14.5439 10.6506L14.6746 10.5662L14.8061 10.4831L14.9386 10.4013L15.072 10.3207L15.2063 10.2413L15.3414 10.1633L15.4775 10.0865L15.6144 10.011L15.7521 9.93682L15.8907 9.86396L16.0301 9.79242L16.1703 9.72221L16.3113 9.65334L16.4531 9.58582L16.5957 9.51966L16.739 9.45486L16.8831 9.39143L17.0279 9.32939L17.1734 9.26874L17.3196 9.20948L17.4664 9.15163L17.614 9.09519L17.7622 9.04017L17.9111 8.98658L18.0606 8.93442L18.2107 8.8837L18.3614 8.83443L18.5126 8.78662L18.6645 8.74026L18.8169 8.69537L18.9699 8.65196L19.1233 8.61002L19.2773 8.56957L19.4318 8.53061L19.5868 8.49315L19.7422 8.4572L19.8981 8.42274L20.0544 8.3898L20.2111 8.35838L20.3683 8.32849L20.5258 8.30012L20.6837 8.27328L20.842 8.24798L21.0006 8.22422L21.1595 8.20201L21.3187 8.18134L21.3781 8.17422ZM21.4453 13.8433L21.3995 9.97912L21.269 9.99736L21.1287 10.0184L20.9883 10.0408L20.8488 10.0645L20.7091 10.0897L20.5701 10.1161L20.4314 10.1439L20.2932 10.1731L20.1553 10.2035L20.0177 10.2354L19.8805 10.2685L19.7439 10.303L19.6074 10.3388L19.4763 10.3746L19.3366 10.4143L19.2017 10.454L19.0674 10.495L18.9338 10.5372L18.8005 10.5808L18.6677 10.6257L18.5355 10.6718L18.404 10.7191L18.273 10.7678L18.1426 10.8176L18.0127 10.8688L17.8838 10.9211L17.7549 10.9748L17.627 11.0296L17.4997 11.0856L17.3733 11.1428L17.2472 11.2013L17.1218 11.261L16.9975 11.3217L16.8734 11.3838L16.7506 11.4469L16.628 11.5114L16.5066 11.5767L16.3854 11.6436L16.2654 11.7112L16.1462 11.7801L16.0276 11.8502L15.9099 11.9213L15.7928 11.9937L15.6769 12.0669L15.5615 12.1414L15.4472 12.2169L15.3337 12.2934L15.221 12.3711L15.109 12.4499L14.9983 12.5294L14.8882 12.6103L14.779 12.6921L14.6708 12.7749L14.5636 12.8586L14.4571 12.9435L14.3518 13.0292L14.2474 13.1159L14.1438 13.2038L14.0415 13.2923L13.9399 13.382L13.8393 13.4726L13.7398 13.564L13.6414 13.6563L13.5437 13.7497L13.4474 13.8437L13.352 13.9387L13.2575 14.0347L13.1642 14.1314L13.0719 14.2291L12.9807 14.3275L12.8906 14.4267L12.8015 14.5268L12.7134 14.6278L12.6268 14.7293L12.541 14.8318L12.4563 14.9351L12.3728 15.039L12.2905 15.1436L12.2091 15.2492L12.129 15.3553L12.05 15.4622L11.9722 15.5698L11.8955 15.6781L11.8201 15.7869L11.7458 15.8965L11.6726 16.0068L11.6006 16.1177L11.5299 16.2291L11.4604 16.3412L11.392 16.4541L11.3248 16.5673L11.2589 16.6812L11.1941 16.7957L11.1307 16.9105L11.0684 17.0261L11.0072 17.1423L10.9475 17.2587L10.8889 17.3759L10.8316 17.4935L10.7755 17.6114L10.7207 17.73L10.6671 17.8489L10.6148 17.9683L10.5637 18.0881L10.514 18.2083L10.4655 18.3289L10.4182 18.45L10.3722 18.5714L10.3276 18.6931L10.2841 18.8153L10.2421 18.9376L10.2012 19.0604L10.1617 19.1835L10.1234 19.3069L10.0865 19.4305L10.0508 19.5544L10.0165 19.6785L9.98341 19.803L9.95165 19.9276L9.9212 20.0525L9.89206 20.1776L9.86421 20.3028L9.83766 20.4283L9.81245 20.5539L9.78852 20.6796L9.7659 20.8056L9.74461 20.9316L9.7246 21.0578L9.70593 21.1839L9.68854 21.3103L9.67248 21.4367L9.65772 21.5632L9.64427 21.6897L9.63213 21.8163L9.6213 21.9429L9.61178 22.0694L9.60356 22.1961L9.59664 22.3227L9.59103 22.4492L9.58673 22.5757L9.58372 22.7021L9.58202 22.8285L9.58161 22.9549L9.5825 23.0811L9.58469 23.2072L9.58817 23.3332L9.59293 23.459L9.59899 23.5848L9.60633 23.7104L9.61495 23.8357L9.62486 23.961L9.63604 24.086L9.6485 24.2108L9.66223 24.3354L9.67722 24.4598L9.69349 24.584L9.71101 24.7078L9.7298 24.8315L9.74983 24.9547L9.77112 25.0778L9.79366 25.2006L9.81743 25.3229L9.84245 25.4451L9.86869 25.5668L9.89618 25.6883L9.92486 25.8092L9.9548 25.9299L9.98594 26.0502L10.0183 26.1701L10.0518 26.2895L10.0866 26.4086L10.1225 26.5272L10.1597 26.6454L10.198 26.7632L10.2375 26.8804L10.2782 26.9971L10.32 27.1134L10.363 27.2292L10.4072 27.3445L10.4525 27.4592L10.4989 27.5734L10.5465 27.6871L10.5952 27.8002L10.6451 27.9127L10.696 28.0247L10.7481 28.136L10.8013 28.2468L10.8555 28.357L10.9109 28.4665L10.9673 28.5755L11.0248 28.6838L11.0834 28.7914L11.143 28.8984L11.2037 29.0047L11.2654 29.1103L11.3282 29.2152L11.392 29.3195L11.4568 29.423L11.5226 29.5258L11.5895 29.628L11.6572 29.7292L11.7261 29.8299L11.7958 29.9297L11.8666 30.0288L11.9383 30.1271L12.011 30.2246L12.0846 30.3213L12.1592 30.4173L12.2346 30.5124L12.311 30.6067L12.3883 30.7002L12.4665 30.7929L12.5456 30.8846L12.6256 30.9757L12.7064 31.0657L12.7881 31.155L12.8706 31.2433L12.954 31.3308L13.0382 31.4174L13.1233 31.5031L13.2091 31.5879L13.2958 31.6718L13.3833 31.7548L13.4714 31.8368L13.5605 31.918L13.6502 31.9981L13.7407 32.0773L13.832 32.1556L13.924 32.2329L14.0167 32.3093L14.1101 32.3846L14.2042 32.459L14.299 32.5324L14.3945 32.6049L14.4907 32.6763L14.5874 32.7467L14.6848 32.8161L14.7829 32.8845L14.8816 32.9519L14.981 33.0183L15.0809 33.0836L15.1814 33.1479L15.2825 33.2112L15.3841 33.2734L15.4863 33.3346L15.5891 33.3947L15.6923 33.4537L15.7962 33.5117L15.9004 33.5686L16.0053 33.6245L16.1106 33.6793L16.2163 33.7329L16.3226 33.7856L16.4294 33.8371L16.5365 33.8876L16.644 33.9369L16.7521 33.9852L16.8604 34.0323L16.9692 34.0783L17.0784 34.1233L17.188 34.1671L17.2978 34.2098L17.4081 34.2514L17.5187 34.2919L17.6296 34.3313L17.7408 34.3695L17.8524 34.4067L17.9642 34.4426L18.0763 34.4775L18.1887 34.5112L18.3013 34.5438L18.4141 34.5753L18.5272 34.6056L18.6405 34.6349L18.754 34.6629L18.8677 34.6898L18.9816 34.7156L19.0957 34.7403L19.2099 34.7638L19.3242 34.7861L19.4388 34.8073L19.5533 34.8274L19.6681 34.8464L19.7829 34.8641L19.8978 34.8808L20.0128 34.8963L20.1278 34.9107L20.2429 34.9239L20.358 34.936L20.4732 34.9469L20.5884 34.9567L20.7036 34.9653L20.8188 34.9729L20.9339 34.9792L21.049 34.9845L21.1642 34.9886L21.2792 34.9916L21.3941 34.9934L21.509 34.9941L21.6238 34.9937L21.7385 34.9921L21.8531 34.9895L21.9675 34.9857L22.0819 34.9808L22.196 34.9747L22.31 34.9676L22.4238 34.9593L22.5375 34.9499L22.6509 34.9394L22.7642 34.9278L22.8773 34.9151L22.9901 34.9013L23.1027 34.8864L23.215 34.8705L23.3271 34.8534L23.4389 34.8352L23.5503 34.816L23.6616 34.7956L23.7725 34.7742L23.8831 34.7518L23.9935 34.7282L24.1033 34.7036L24.2129 34.678L24.3221 34.6512L24.431 34.6235L24.5395 34.5947L24.6476 34.5648L24.7553 34.5339L24.8626 34.502L24.9694 34.4691L25.0758 34.4351L25.1819 34.4001L25.2874 34.3641L25.3925 34.3271L25.4971 34.2891L25.6012 34.2501L25.7048 34.2101L25.8079 34.1691L25.9106 34.1271L26.0127 34.0842L26.1142 34.0403L26.2153 33.9955L26.3157 33.9497L26.4157 33.9029L26.5151 33.8552L26.6137 33.8067L26.7121 33.757L26.8096 33.7066L26.9067 33.6551L27.0029 33.6029L27.0987 33.5497L27.1939 33.4956L27.2883 33.4406L27.3822 33.3847L27.4754 33.328L27.5678 33.2704L27.6598 33.2119L27.7508 33.1527L27.8413 33.0925L27.9312 33.0314L28.0202 32.9696L28.1084 32.9071L28.1962 32.8435L28.283 32.7794L28.3692 32.7143L28.4547 32.6484L28.5391 32.5819L28.6232 32.5144L28.7064 32.4462L28.7885 32.3774L28.8703 32.3075L28.951 32.2372L29.0309 32.1662L29.1103 32.0941L29.1885 32.0217L29.2661 31.9484L29.3429 31.8744L29.4187 31.7998L29.4938 31.7244L29.5681 31.6484L29.6415 31.5717L29.7139 31.4944L29.7856 31.4164L29.8565 31.3378L29.9263 31.2587L29.9955 31.1787L30.0636 31.0983L30.1308 31.0173L30.1973 30.9355L30.2627 30.8535L30.3273 30.7706L30.391 30.6873L30.4538 30.6033L30.5156 30.5189L30.5764 30.4341L30.6365 30.3484L30.6955 30.2625L30.7536 30.176L30.8109 30.0889L30.8669 30.0016L30.9223 29.9136L30.9766 29.8251L31.03 29.7363L31.0823 29.647L31.1339 29.5571L31.1842 29.4672L31.2338 29.3764L31.2823 29.2855L31.3297 29.1942L31.3764 29.1022L31.4218 29.0104L31.4665 28.9176L31.5099 28.8251L31.5527 28.7316L31.5941 28.6383L31.6348 28.5442L31.6744 28.4502L31.7129 28.3558L31.7505 28.261L31.7871 28.1659L31.8225 28.0708L31.8572 27.9751L31.8906 27.8793L31.9231 27.7833L31.9546 27.687L31.9851 27.5904L32.0146 27.4937L32.043 27.3969L32.0704 27.2997L32.0967 27.2025L32.1221 27.105L32.1464 27.0074L32.1697 26.9098L32.192 26.8117L32.2132 26.7137L32.2335 26.6156L32.2526 26.5175L32.2708 26.4192L32.2879 26.3205L32.304 26.2222L32.3191 26.1236L32.3331 26.0249L32.3461 25.9264L32.3581 25.8277L32.3691 25.7287L32.379 25.6304L32.388 25.5313L32.3959 25.4326L32.4027 25.3341L32.4086 25.2353L32.4134 25.1367L32.4172 25.0382L32.42 24.9394L32.4217 24.8412L32.4225 24.7426L32.4222 24.6443L32.421 24.546L32.4187 24.4481L32.4154 24.35L32.4111 24.2521L32.4058 24.1546L32.3995 24.0568L32.3922 23.9593L32.384 23.8623L32.3747 23.765L32.3644 23.6683L32.3531 23.5714L32.3409 23.475L32.3277 23.3787L32.3135 23.2825L32.2983 23.1867L32.2822 23.0912L32.2651 22.9959L32.247 22.9009L32.2279 22.8058L32.2079 22.7114L32.187 22.6173L32.1651 22.5233L32.1422 22.4295L32.1185 22.3365L32.0937 22.2432L32.0681 22.1507L32.0415 22.0583L32.014 21.9665L31.9856 21.8748L31.9562 21.7835L31.926 21.6928L31.8949 21.6024L31.8627 21.5121L31.8299 21.4226L31.796 21.3333L31.7613 21.2446L31.7257 21.1561L31.6892 21.068L31.6519 20.9807L31.6136 20.8935L31.5746 20.807L31.5347 20.721L31.4939 20.6352L31.4522 20.5499L31.4099 20.4654L31.3665 20.3811L31.3225 20.2976L31.2776 20.2146L31.2318 20.1317L31.1854 20.0498L31.138 19.9682L31.0899 19.8873L31.0409 19.8067L30.9914 19.727L30.9408 19.6475L30.8897 19.5689L30.8377 19.4908L30.785 19.4133L30.7314 19.3362L30.6772 19.2599L30.6224 19.1843L30.5666 19.109L30.5103 19.0346L30.4531 18.9607L30.3955 18.8876L30.3369 18.8149L30.2777 18.743L30.2178 18.6717L30.1573 18.601L30.0962 18.5312L30.0342 18.4618L29.9718 18.3933L29.9086 18.3253L29.845 18.2583L29.7804 18.1916L29.7155 18.1259L29.6497 18.0606L29.5835 17.9963L29.5168 17.9327L29.4494 17.8697L29.3813 17.8074L29.3127 17.746L29.2436 17.6853L29.1737 17.6251L29.1038 17.5661L29.0329 17.5074L28.9616 17.4497L28.8898 17.3928L28.8174 17.3364L28.7446 17.281L28.6715 17.2265L28.5975 17.1725L28.523 17.1192L28.4485 17.0671L28.373 17.0154L28.2976 16.9649L28.2215 16.9149L28.1449 16.8657L28.0678 16.8173L27.9906 16.7699L27.9126 16.7231L27.8345 16.6773L27.7557 16.6321L27.677 16.588L27.5976 16.5446L27.5178 16.5019L27.4377 16.4601L27.3574 16.4193L27.2766 16.3791L27.1954 16.3398L27.1141 16.3014L27.0326 16.2639L26.9502 16.227L26.8682 16.1912L26.7856 16.1562L26.7026 16.1219L26.6195 16.0886L26.5363 16.0562L26.4527 16.0246L26.3686 15.9937L26.2847 15.9639L26.2003 15.9348L26.1157 15.9066L26.0312 15.8793L25.9463 15.8529L25.8614 15.8273L25.7758 15.8025L25.6905 15.7787L25.605 15.7557L25.5193 15.7336L25.4335 15.7123L25.3473 15.6919L25.2613 15.6724L25.1753 15.6538L25.0889 15.636L25.0023 15.619L24.9162 15.6031L24.8295 15.5879L24.743 15.5736L24.6561 15.5601L24.5697 15.5476L24.4826 15.5358L24.3961 15.5251L24.3093 15.5151L24.2225 15.506L24.1358 15.4978L24.0489 15.4904L23.9624 15.4839L23.8754 15.4783L23.7888 15.4735L23.7024 15.4696L23.6154 15.4665L23.5291 15.4643L23.4427 15.463L23.3564 15.4625L23.2974 15.4627L23.3421 19.2381L23.3688 19.2382L23.4184 19.2389L23.4681 19.2401L23.5179 19.2417L23.5677 19.244L23.6176 19.2467L23.6675 19.2499L23.7175 19.2537L23.7675 19.258L23.8176 19.2628L23.8677 19.2681L23.9178 19.2739L23.968 19.2803L24.0181 19.2872L24.0683 19.2946L24.1185 19.3026L24.1687 19.3111L24.2188 19.3201L24.269 19.3297L24.3191 19.3397L24.3692 19.3504L24.4193 19.3615L24.4694 19.3732L24.5193 19.3854L24.5693 19.3981L24.6192 19.4114L24.669 19.4252L24.7188 19.4395L24.7685 19.4544L24.8181 19.4698L24.8676 19.4858L24.9171 19.5023L24.9664 19.5193L25.0157 19.5368L25.0648 19.5549L25.1138 19.5735L25.1627 19.5926L25.2115 19.6123L25.2601 19.6325L25.3086 19.6532L25.357 19.6745L25.4052 19.6963L25.4533 19.7186L25.5012 19.7415L25.5489 19.7648L25.5965 19.7887L25.6438 19.8132L25.691 19.8381L25.738 19.8636L25.7848 19.8896L25.8314 19.9161L25.8778 19.9431L25.9239 19.9706L25.9699 19.9987L26.0156 20.0273L26.0611 20.0564L26.1063 20.0859L26.1513 20.116L26.1961 20.1467L26.2406 20.1778L26.2848 20.2094L26.3288 20.2415L26.3725 20.2741L26.4159 20.3072L26.459 20.3408L26.5019 20.3749L26.5444 20.4095L26.5866 20.4445L26.6286 20.4801L26.6702 20.5161L26.7115 20.5526L26.7525 20.5896L26.7931 20.6271L26.8334 20.665L26.8733 20.7034L26.913 20.7423L26.9522 20.7816L26.9911 20.8214L27.0297 20.8616L27.0678 20.9023L27.1056 20.9435L27.143 20.9851L27.1801 21.0271L27.2167 21.0696L27.2529 21.1125L27.2888 21.1558L27.3242 21.1996L27.3592 21.2438L27.3938 21.2884L27.428 21.3335L27.4618 21.3789L27.4951 21.4248L27.5279 21.471L27.5604 21.5177L27.5924 21.5648L27.6239 21.6123L27.655 21.6601L27.6857 21.7084L27.7158 21.757L27.7455 21.806L27.7747 21.8554L27.8034 21.9051L27.8317 21.9552L27.8594 22.0057L27.8867 22.0565L27.9135 22.1077L27.9397 22.1592L27.9655 22.211L27.9907 22.2632L28.0154 22.3158L28.0396 22.3686L28.0633 22.4218L28.0865 22.4753L28.1091 22.5291L28.1312 22.5832L28.1527 22.6376L28.1737 22.6923L28.1942 22.7473L28.2141 22.8026L28.2334 22.8582L28.2522 22.914L28.2704 22.9701L28.288 23.0265L28.3051 23.0831L28.3216 23.14L28.3375 23.1972L28.3529 23.2545L28.3677 23.3121L28.3818 23.37L28.3954 23.4281L28.4084 23.4863L28.4208 23.5449L28.4326 23.6036L28.4437 23.6624L28.4543 23.7216L28.4643 23.7809L28.4737 23.8403L28.4824 23.9L28.4905 23.9598L28.498 24.0198L28.5049 24.08L28.5112 24.1403L28.5168 24.2007L28.5218 24.2613L28.5262 24.3221L28.5299 24.3829L28.533 24.4439L28.5354 24.505L28.5373 24.5662L28.5384 24.6275L28.539 24.6889L28.5388 24.7503L28.5381 24.8119L28.5367 24.8736L28.5346 24.9353L28.5319 24.9971L28.5285 25.0589L28.5245 25.1208L28.5198 25.1827L28.5144 25.2447L28.5084 25.3067L28.5018 25.3687L28.4944 25.4307L28.4864 25.4928L28.4778 25.5549L28.4685 25.6169L28.4585 25.6789L28.4478 25.7409L28.4365 25.8029L28.4245 25.8649L28.4119 25.9268L28.3985 25.9887L28.3845 26.0505L28.3699 26.1123L28.3545 26.174L28.3385 26.2357L28.3219 26.2972L28.3045 26.3587L28.2865 26.42L28.2678 26.4813L28.2485 26.5425L28.2285 26.6035L28.2078 26.6645L28.1865 26.7253L28.1644 26.7859L28.1417 26.8465L28.1184 26.9068L28.0944 26.9671L28.0697 27.0271L28.0444 27.087L28.0184 27.1467L27.9917 27.2063L27.9644 27.2656L27.9364 27.3247L27.9077 27.3837L27.8785 27.4424L27.8485 27.5009L27.8179 27.5592L27.7866 27.6172L27.7547 27.675L27.7222 27.7326L27.689 27.7899L27.6551 27.847L27.6207 27.9037L27.5855 27.9603L27.5498 28.0165L27.5134 28.0724L27.4763 28.1281L27.4387 28.1834L27.4004 28.2385L27.3615 28.2932L27.3219 28.3476L27.2818 28.4017L27.241 28.4554L27.1996 28.5088L27.1576 28.5619L27.115 28.6146L27.0718 28.6669L27.028 28.7189L26.9836 28.7705L26.9385 28.8217L26.8929 28.8725L26.8467 28.923L26.7999 28.973L26.7526 29.0226L26.7046 29.0719L26.6561 29.1207L26.607 29.169L26.5574 29.217L26.5071 29.2645L26.4563 29.3115L26.405 29.3581L26.3531 29.4043L26.3007 29.45L26.2477 29.4952L26.1942 29.5399L26.1401 29.5842L26.0855 29.628L26.0304 29.6712L25.9748 29.714L25.9187 29.7563L25.862 29.7981L25.8049 29.8393L25.7472 29.88L25.6891 29.9203L25.6304 29.9599L25.5713 29.9991L25.5117 30.0376L25.4516 30.0757L25.391 30.1132L25.33 30.1501L25.2685 30.1864L25.2066 30.2222L25.1442 30.2574L25.0813 30.292L25.0181 30.3261L24.9544 30.3595L24.8903 30.3924L24.8257 30.4246L24.7608 30.4563L24.6954 30.4873L24.6296 30.5177L24.5635 30.5475L24.4969 30.5766L24.43 30.6052L24.3627 30.6331L24.295 30.6603L24.2269 30.6869L24.1585 30.7129L24.0897 30.7382L24.0206 30.7629L23.9512 30.7869L23.8814 30.8102L23.8113 30.8329L23.7409 30.8548L23.6702 30.8761L23.5991 30.8968L23.5278 30.9167L23.4562 30.936L23.3843 30.9545L23.3121 30.9724L23.2396 30.9895L23.1669 31.006L23.0939 31.0217L23.0207 31.0368L22.9472 31.0511L22.8735 31.0647L22.7996 31.0776L22.7254 31.0898L22.6511 31.1012L22.5765 31.1119L22.5018 31.1219L22.4268 31.1312L22.3517 31.1397L22.2764 31.1474L22.2009 31.1545L22.1253 31.1607L22.0495 31.1663L21.9735 31.171L21.8975 31.1751L21.8213 31.1784L21.745 31.1809L21.6685 31.1826L21.592 31.1836L21.5154 31.1839L21.4387 31.1834L21.3619 31.1821L21.285 31.18L21.2081 31.1772L21.1311 31.1736L21.054 31.1692L20.9769 31.1641L20.8998 31.1582L20.8227 31.1515L20.7455 31.144L20.6684 31.1358L20.5912 31.1267L20.5141 31.1169L20.4369 31.1063L20.3598 31.095L20.2827 31.0828L20.2057 31.0699L20.1287 31.0562L20.0518 31.0417L19.9749 31.0265L19.8981 31.0104L19.8214 30.9936L19.7448 30.9759L19.6683 30.9575L19.5918 30.9384L19.5155 30.9184L19.4394 30.8976L19.3633 30.8761L19.2875 30.8538L19.2117 30.8307L19.1361 30.8068L19.0607 30.7822L18.9854 30.7568L18.9104 30.7306L18.8355 30.7036L18.7608 30.6758L18.6864 30.6473L18.6121 30.618L18.5381 30.5879L18.4643 30.5571L18.3908 30.5255L18.3175 30.4931L18.2444 30.46L18.1717 30.4261L18.0991 30.3914L18.0269 30.356L17.955 30.3198L17.8834 30.2829L17.8121 30.2452L17.7411 30.2068L17.6704 30.1676L17.6001 30.1277L17.53 30.087L17.4604 30.0456L17.3911 30.0035L17.3222 29.9606L17.2536 29.917L17.1854 29.8727L17.1176 29.8276L17.0502 29.7818L16.9833 29.7353L16.9167 29.6881L16.8505 29.6402L16.7848 29.5915L16.7195 29.5422L16.6547 29.4922L16.5903 29.4414L16.5264 29.39L16.4629 29.3379L16.3999 29.2851L16.3374 29.2316L16.2754 29.1774L16.2139 29.1226L16.1529 29.0671L16.0924 29.0109L16.0324 28.9541L15.973 28.8966L15.914 28.8385L15.8557 28.7797L15.7979 28.7203L15.7406 28.6602L15.6839 28.5996L15.6278 28.5382L15.5723 28.4763L15.5173 28.4138L15.463 28.3506L15.4092 28.2869L15.356 28.2225L15.3035 28.1575L15.2516 28.092L15.2003 28.0259L15.1496 27.9592L15.0996 27.8919L15.0503 27.8241L15.0016 27.7557L14.9535 27.6867L14.9061 27.6172L14.8594 27.5472L14.8134 27.4766L14.7681 27.4055L14.7234 27.3339L14.6795 27.2618L14.6362 27.1891L14.5937 27.116L14.5519 27.0423L14.5108 26.9682L14.4704 26.8936L14.4308 26.8185L14.3919 26.7429L14.3537 26.6669L14.3163 26.5905L14.2797 26.5135L14.2438 26.4362L14.2087 26.3584L14.1744 26.2802L14.1408 26.2015L14.108 26.1225L14.076 26.043L14.0448 25.9632L14.0144 25.8829L13.9849 25.8023L13.9561 25.7213L13.9281 25.64L13.9009 25.5583L13.8746 25.4762L13.8491 25.3938L13.8244 25.3111L13.8005 25.228L13.7775 25.1446L13.7554 25.0609L13.734 24.9769L13.7136 24.8926L13.694 24.8081L13.6752 24.7232L13.6573 24.6381L13.6403 24.5527L13.6241 24.4671L13.6088 24.3812L13.5944 24.2951L13.5809 24.2088L13.5682 24.1222L13.5564 24.0355L13.5456 23.9485L13.5356 23.8614L13.5265 23.774L13.5183 23.6865L13.511 23.5988L13.5046 23.511L13.4991 23.423L13.4945 23.3349L13.4908 23.2467L13.488 23.1583L13.4862 23.0698L13.4853 22.9813L13.4852 22.8926L13.4861 22.8038L13.488 22.715L13.4907 22.6261L13.4944 22.5371L13.499 22.4481L13.5045 22.3591L13.5109 22.27L13.5183 22.1809L13.5266 22.0918L13.5358 22.0027L13.546 21.9136L13.5571 21.8245L13.5691 21.7355L13.5821 21.6465L13.596 21.5575L13.6109 21.4686L13.6266 21.3797L13.6433 21.2909L13.661 21.2022L13.6796 21.1136L13.6991 21.0251L13.7195 20.9367L13.7409 20.8485L13.7632 20.7603L13.7865 20.6723L13.8107 20.5845L13.8358 20.4968L13.8618 20.4092L13.8888 20.3219L13.9167 20.2347L13.9455 20.1477L13.9753 20.061L14.006 19.9744L14.0376 19.8881L14.0701 19.802L14.1036 19.7162L14.138 19.6306L14.1733 19.5452L14.2095 19.4602L14.2466 19.3754L14.2847 19.2909L14.3236 19.2067L14.3635 19.1228L14.4042 19.0393L14.4459 18.956L14.4884 18.8731L14.5319 18.7906L14.5762 18.7084L14.6215 18.6266L14.6676 18.5451L14.7146 18.464L14.7625 18.3834L14.8113 18.3031L14.8609 18.2232L14.9115 18.1438L14.9629 18.0647L15.0151 17.9861L15.0682 17.908L15.1222 17.8303L15.177 17.7531L15.2327 17.6764L15.2892 17.6001L15.3465 17.5243L15.4047 17.4491L15.4637 17.3743L15.5236 17.3001L15.5843 17.2263L15.6457 17.1532L15.708 17.0805L15.7711 17.0084L15.835 16.9369L15.8997 16.8659L15.9652 16.7956L16.0315 16.7258L16.0986 16.6566L16.1664 16.588L16.235 16.52L16.3044 16.4526L16.3745 16.3859L16.4454 16.3198L16.517 16.2543L16.5893 16.1895L16.6624 16.1253L16.7363 16.0619L16.8108 15.999L16.8861 15.9369L16.962 15.8755L17.0387 15.8147L17.116 15.7547L17.1941 15.6954L17.2728 15.6368L17.3522 15.5789L17.4323 15.5218L17.513 15.4654L17.5944 15.4097L17.6765 15.3548L17.7591 15.3007L17.8424 15.2474L17.9264 15.1948L18.0109 15.143L18.0961 15.092L18.1818 15.0418L18.2682 14.9924L18.3551 14.9438L18.4426 14.896L18.5307 14.8491L18.6193 14.803L18.7085 14.7577L18.7982 14.7133L18.8885 14.6697L18.9793 14.627L19.0706 14.5851L19.1624 14.5441L19.2547 14.504L19.3476 14.4647L19.4409 14.4263L19.5346 14.3889L19.6289 14.3523L19.7236 14.3166L19.8187 14.2818L19.9143 14.248L20.0104 14.215L20.1068 14.183L20.2037 14.1519L20.3009 14.1217L20.3986 14.0925L20.4966 14.0642L20.595 14.0369L20.6938 14.0105L20.7929 13.985L20.8924 13.9605L20.9922 13.937L21.0924 13.9145L21.1928 13.8929L21.2936 13.8723L21.3946 13.8527L21.4453 13.8433ZM22.6872 21.1036L21.5346 21.379L21.4669 15.6695L21.4126 15.6817L21.3308 15.701L21.2491 15.7211L21.168 15.7419L21.087 15.7635L21.0065 15.7859L20.926 15.8092L20.8463 15.833L20.7664 15.8578L20.6875 15.8831L20.6084 15.9094L20.5298 15.9364L20.4516 15.9641L20.3737 15.9925L20.2965 16.0216L20.2194 16.0516L20.1427 16.0822L20.0665 16.1135L19.9904 16.1457L19.9153 16.1783L19.8402 16.2119L19.7658 16.246L19.6915 16.281L19.6179 16.3165L19.5445 16.3528L19.4719 16.3897L19.3996 16.4273L19.3278 16.4656L19.2565 16.5045L19.1856 16.5441L19.1152 16.5844L19.0456 16.6252L18.9759 16.6669L18.9071 16.709L18.8389 16.7518L18.7711 16.7952L18.7037 16.8393L18.637 16.884L18.5708 16.9293L18.5051 16.9751L18.4401 17.0215L18.3754 17.0686L18.3114 17.1163L18.248 17.1645L18.1851 17.2133L18.1229 17.2625L18.0613 17.3124L18.0001 17.3629L17.9395 17.414L17.8797 17.4654L17.8204 17.5175L17.7617 17.57L17.7036 17.6231L17.6461 17.6768L17.5893 17.7309L17.5331 17.7854L17.4774 17.8406L17.4225 17.8961L17.3682 17.9522L17.3146 18.0086L17.2614 18.0658L17.2091 18.1231L17.1574 18.181L17.1063 18.2394L17.056 18.298L17.0062 18.3573L16.9573 18.4167L16.9088 18.4769L16.8612 18.5372L16.8141 18.5981L16.7678 18.6594L16.7222 18.7209L16.6772 18.7828L16.633 18.8451L16.5894 18.9079L16.5465 18.9709L16.5044 19.0344L16.463 19.098L16.4223 19.162L16.3822 19.2265L16.343 19.2911L16.3043 19.3563L16.2665 19.4214L16.2293 19.4871L16.1928 19.553L16.1572 19.6191L16.1222 19.6855L16.088 19.7522L16.0544 19.8193L16.0217 19.8863L15.9896 19.9539L15.9583 20.0215L15.9278 20.0894L15.8979 20.1575L15.8688 20.2259L15.8405 20.2943L15.8129 20.3631L15.7861 20.432L15.7599 20.5011L15.7346 20.5702L15.71 20.6397L15.6861 20.7093L15.663 20.779L15.6406 20.8488L15.619 20.9189L15.5981 20.989L15.5781 21.0591L15.5587 21.1295L15.54 21.2L15.5222 21.2705L15.5051 21.3411L15.4887 21.4118L15.4731 21.4826L15.4583 21.5535L15.4442 21.6243L15.4308 21.6952L15.4182 21.7663L15.4064 21.8372L15.3953 21.9082L15.3849 21.9794L15.3753 22.0503L15.3665 22.1215L15.3584 22.1924L15.351 22.2635L15.3444 22.3347L15.3385 22.4056L15.3334 22.4766L15.329 22.5476L15.3253 22.6184L15.3224 22.6892L15.3202 22.7599L15.3188 22.8307L15.318 22.9013L15.3181 22.9718L15.3188 23.0422L15.3203 23.1126L15.3225 23.1828L15.3254 23.2529L15.329 23.3229L15.3334 23.3927L15.3385 23.4624L15.3443 23.532L15.3508 23.6014L15.358 23.6708L15.3659 23.7397L15.3745 23.8088L15.3838 23.8774L15.3939 23.9461L15.4046 24.0144L15.416 24.0826L15.4281 24.1507L15.4409 24.2184L15.4544 24.286L15.4685 24.3532L15.4834 24.4204L15.4989 24.4872L15.5151 24.5539L15.5319 24.6201L15.5495 24.6864L15.5676 24.7521L15.5864 24.8178L15.6059 24.883L15.626 24.9481L15.6468 25.0128L15.6682 25.0771L15.6903 25.1414L15.713 25.2052L15.7363 25.2686L15.7602 25.3319L15.7848 25.3948L15.81 25.4573L15.8358 25.5195L15.8621 25.5813L15.8892 25.6429L15.9168 25.7041L15.945 25.7649L15.9738 25.8253L16.0031 25.8853L16.0332 25.9452L16.0636 26.0044L16.0947 26.0633L16.1264 26.1219L16.1587 26.18L16.1915 26.2378L16.2248 26.2952L16.2587 26.352L16.2932 26.4086L16.3281 26.4647L16.3636 26.5203L16.3997 26.5756L16.4362 26.6304L16.4733 26.6849L16.5108 26.7386L16.5489 26.7922L16.5875 26.8452L16.6265 26.8977L16.6662 26.9499L16.7062 27.0015L16.7467 27.0526L16.7877 27.1033L16.8292 27.1536L16.871 27.2032L16.9135 27.2525L16.9563 27.3013L16.9995 27.3495L17.0434 27.3973L17.0874 27.4444L17.132 27.4913L17.177 27.5375L17.2223 27.5832L17.2682 27.6284L17.3144 27.6731L17.361 27.7173L17.408 27.7609L17.4554 27.804L17.5032 27.8466L17.5513 27.8886L17.5998 27.9301L17.6486 27.9711L17.6978 28.0115L17.7474 28.0514L17.7974 28.0907L17.8475 28.1294L17.8981 28.1676L17.949 28.2053L18.0002 28.2424L18.0517 28.2789L18.1035 28.3149L18.1556 28.3503L18.208 28.3851L18.2606 28.4193L18.3135 28.453L18.3669 28.4862L18.4203 28.5186L18.474 28.5506L18.5281 28.582L18.5822 28.6127L18.6366 28.6429L18.6915 28.6726L18.7464 28.7016L18.8015 28.73L18.8568 28.7578L18.9125 28.7851L18.9681 28.8117L19.0242 28.8378L19.0803 28.8633L19.1365 28.8881L19.1931 28.9124L19.2498 28.9361L19.3065 28.9592L19.3635 28.9817L19.4206 29.0035L19.478 29.0248L19.5352 29.0455L19.5929 29.0656L19.6504 29.085L19.7081 29.1039L19.766 29.1222L19.824 29.1399L19.882 29.1569L19.9401 29.1734L19.9984 29.1892L20.0567 29.2045L20.115 29.2191L20.1734 29.2332L20.2318 29.2466L20.2903 29.2594L20.3489 29.2717L20.4075 29.2833L20.4661 29.2944L20.5247 29.3048L20.5834 29.3147L20.6421 29.3239L20.7008 29.3326L20.7593 29.3406L20.818 29.348L20.8766 29.3549L20.9353 29.3612L20.9939 29.3668L21.0525 29.3719L21.111 29.3764L21.1694 29.3803L21.2279 29.3836L21.2862 29.3863L21.3444 29.3885L21.4028 29.39L21.4608 29.391L21.5188 29.3914L21.5768 29.3912L21.6346 29.3905L21.6925 29.3891L21.7502 29.3872L21.8076 29.3848L21.865 29.3817L21.9225 29.3781L21.9795 29.3739L22.0366 29.3692L22.0934 29.3639L22.1502 29.3581L22.2068 29.3516L22.2631 29.3447L22.3195 29.3372L22.3755 29.3291L22.4313 29.3205L22.4872 29.3114L22.5427 29.3017L22.598 29.2915L22.6532 29.2807L22.7082 29.2694L22.7628 29.2576L22.8172 29.2453L22.8716 29.2324L22.9257 29.219L22.9795 29.2052L23.0331 29.1908L23.0864 29.1759L23.1397 29.1604L23.1925 29.1445L23.2449 29.1281L23.2975 29.1111L23.3495 29.0937L23.4013 29.0759L23.4528 29.0575L23.504 29.0386L23.5551 29.0192L23.6058 28.9994L23.6561 28.9791L23.7062 28.9584L23.756 28.9371L23.8056 28.9154L23.8546 28.8933L23.9036 28.8707L23.9521 28.8477L24.0002 28.8242L24.0482 28.8003L24.0956 28.776L24.1429 28.7512L24.1898 28.7259L24.2363 28.7003L24.2824 28.6743L24.3283 28.6478L24.3738 28.6209L24.4188 28.5936L24.4635 28.5659L24.5079 28.5378L24.5519 28.5094L24.5956 28.4805L24.6388 28.4513L24.6817 28.4216L24.7242 28.3916L24.7662 28.3613L24.8079 28.3305L24.8492 28.2994L24.8901 28.2679L24.9306 28.2361L24.9708 28.2039L25.0104 28.1715L25.0497 28.1387L25.0885 28.1055L25.1269 28.072L25.165 28.0382L25.2026 28.004L25.2398 27.9696L25.2764 27.9349L25.3128 27.8998L25.3487 27.8644L25.3842 27.8288L25.4192 27.7929L25.4537 27.7566L25.4878 27.7202L25.5216 27.6833L25.5547 27.6464L25.5876 27.609L25.6199 27.5714L25.6517 27.5337L25.6833 27.4955L25.7141 27.4573L25.7447 27.4187L25.7748 27.38L25.8043 27.341L25.8335 27.3017L25.8621 27.2624L25.8903 27.2226L25.9181 27.1827L25.9453 27.1428L25.9721 27.1024L25.9985 27.062L26.0242 27.0214L26.0496 26.9806L26.0745 26.9396L26.0989 26.8984L26.1229 26.8571L26.1463 26.8156L26.1693 26.774L26.1918 26.7321L26.2138 26.6903L26.2353 26.6482L26.2564 26.606L26.277 26.5637L26.2971 26.5211L26.3167 26.4786L26.3358 26.4359L26.3544 26.3932L26.3726 26.3502L26.3902 26.3073L26.4075 26.264L26.4241 26.2211L26.4404 26.1775L26.456 26.1346L26.4713 26.091L26.4861 26.0474L26.5003 26.004L26.5141 25.9604L26.5274 25.9169L26.5403 25.8729L26.5525 25.8295L26.5645 25.7854L26.5758 25.742L26.5867 25.698L26.5971 25.654L26.607 25.6103L26.6164 25.5667L26.6254 25.5225L26.6339 25.4788L26.6419 25.4347L26.6494 25.3911L26.6565 25.3473L26.6631 25.3034L26.6692 25.2595L26.6748 25.2157L26.68 25.1721L26.6847 25.1286L26.6889 25.0847L26.6927 25.0412L26.696 24.9976L26.6988 24.9541L26.7012 24.9107L26.7031 24.8674L26.7045 24.8243L26.7055 24.7809L26.7061 24.7376L26.7062 24.6947L26.7058 24.6518L26.705 24.609L26.7037 24.5663L26.702 24.5234L26.6998 24.4813L26.6972 24.4383L26.6942 24.3964L26.6907 24.3543L26.6868 24.3119L26.6824 24.27L26.6777 24.2285L26.6724 24.1864L26.6668 24.1452L26.6607 24.1037L26.6543 24.0628L26.6473 24.0215L26.64 23.9805L26.6323 23.9399L26.6242 23.8994L26.6156 23.8588L26.6066 23.8187L26.5973 23.7786L26.5875 23.7388L26.5774 23.6993L26.5667 23.6595L26.5559 23.6205L26.5445 23.5811L26.5328 23.5424L26.5207 23.5037L26.5082 23.4653L26.4953 23.427L26.482 23.3888L26.4685 23.3512L26.4545 23.3137L26.4401 23.2761L26.4254 23.2391L26.4103 23.2019L26.395 23.1656L26.3791 23.1289L26.3631 23.0928L26.3466 23.057L26.3298 23.0212L26.3127 22.9858L26.2952 22.9506L26.2774 22.9156L26.2593 22.881L26.2408 22.8466L26.2221 22.8125L26.203 22.7786L26.1835 22.745L26.1639 22.7117L26.1439 22.6787L26.1235 22.6458L26.1029 22.6135L26.082 22.5813L26.0608 22.5494L26.0393 22.5177L26.0176 22.4865L25.9955 22.4554L25.9732 22.4247L25.9506 22.3943L25.9277 22.3642L25.9047 22.3344L25.8812 22.3048L25.8576 22.2757L25.8337 22.2468L25.8096 22.2182L25.7852 22.1899L25.7607 22.162L25.7358 22.1344L25.7107 22.1071L25.6854 22.08L25.6599 22.0534L25.6341 22.0271L25.6081 22.001L25.582 21.9754L25.5556 21.9501L25.5291 21.9251L25.5021 21.9003L25.4753 21.876L25.4481 21.8519L25.4208 21.8283L25.3932 21.8049L25.3655 21.782L25.3376 21.7593L25.3096 21.737L25.2814 21.715L25.253 21.6933L25.2245 21.6721L25.1958 21.6511L25.1669 21.6305L25.138 21.6103L25.1089 21.5903L25.0797 21.5708L25.0503 21.5516L25.0207 21.5327L24.9912 21.5142L24.9613 21.496L24.9315 21.4782L24.9016 21.4608L24.8715 21.4437L24.8412 21.4269L24.811 21.4105L24.7807 21.3944L24.7502 21.3787L24.7198 21.3634L24.689 21.3483L24.6584 21.3337L24.6276 21.3195L24.5968 21.3055L24.5659 21.2919L24.5348 21.2786L24.504 21.2658L24.4728 21.2533L24.4416 21.2411L24.4105 21.2293L24.3793 21.2178L24.3481 21.2067L24.3168 21.1959L24.2855 21.1854L24.2543 21.1754L24.2229 21.1656L24.1915 21.1562L24.1603 21.1472L24.1287 21.1385L24.0975 21.1302L24.0661 21.1222L24.0347 21.1145L24.0033 21.1072L23.972 21.1002L23.9406 21.0936L23.9093 21.0873L23.8781 21.0813L23.8469 21.0757L23.8155 21.0704L23.7845 21.0655L23.7531 21.0609L23.7222 21.0566L23.691 21.0526L23.66 21.049L23.6292 21.0457L23.5982 21.0428L23.5674 21.0401L23.5366 21.0378L23.5059 21.0358L23.4752 21.0341L23.4446 21.0328L23.4143 21.0318L23.3838 21.031L23.3535 21.0306L23.3232 21.0305L23.2931 21.0308L23.263 21.0313L23.2331 21.0321L23.2032 21.0333L23.1736 21.0347L23.1438 21.0365L23.1144 21.0385L23.085 21.0408L23.0557 21.0435L23.0266 21.0464L22.9974 21.0496L22.9686 21.0531L22.9398 21.0569L22.9112 21.061L22.8826 21.0654L22.8543 21.07L22.826 21.0749L22.7981 21.0801L22.77 21.0856L22.7423 21.0913L22.7146 21.0973L22.6872 21.1036Z" fill="#43505C"/>
</svg>
