<svg width="18" height="17" viewBox="0 0 18 17" fill="none" xmlns="http://www.w3.org/2000/svg">
<path d="M8.99951 0.141602C13.6017 0.141602 17.3323 3.87246 17.3325 8.47461C17.3325 13.077 13.6019 16.8076 8.99951 16.8076C4.39736 16.8074 0.666504 13.0768 0.666504 8.47461C0.666768 3.87262 4.39753 0.141865 8.99951 0.141602ZM12.0894 6.21973C11.764 5.89434 11.2371 5.89445 10.9116 6.21973L8.1665 8.96289L7.08936 7.88574C6.76406 7.56079 6.23699 7.5609 5.91162 7.88574C5.58618 8.21118 5.58618 8.73902 5.91162 9.06445L7.57764 10.7314C7.90305 11.0565 8.43101 11.0566 8.75635 10.7314L12.0894 7.39746C12.4145 7.07212 12.4144 6.54513 12.0894 6.21973Z" fill="black"/>
</svg>
