<svg width="406" height="250" viewBox="0 0 406 250" fill="none" xmlns="http://www.w3.org/2000/svg">
<g filter="url(#filter0_d_38156_10948)">
<g clip-path="url(#clip0_38156_10948)">
<rect x="5.20679" y="4" width="395.586" height="239.103" rx="6.5931" fill="white"/>
<path d="M349.696 37.5149C348.185 37.5149 346.949 38.7511 346.949 40.262C346.949 41.7729 348.185 43.0091 349.696 43.0091C351.207 43.0091 352.443 41.7729 352.443 40.262C352.443 38.7511 351.207 37.5149 349.696 37.5149ZM366.179 37.5149C364.668 37.5149 363.432 38.7511 363.432 40.262C363.432 41.7729 364.668 43.0091 366.179 43.0091C367.69 43.0091 368.926 41.7729 368.926 40.262C368.926 38.7511 367.69 37.5149 366.179 37.5149ZM357.938 37.5149C356.427 37.5149 355.191 38.7511 355.191 40.262C355.191 41.7729 356.427 43.0091 357.938 43.0091C359.449 43.0091 360.685 41.7729 360.685 40.262C360.685 38.7511 359.449 37.5149 357.938 37.5149Z" fill="#84818A"/>
<rect x="5.20654" y="76.5242" width="395.586" height="1.64828" fill="#EBEAED"/>
<rect x="31.5791" y="35.3345" width="9.88966" height="9.88966" rx="3.29655" fill="#00A5FF"/>
<path d="M59.5667 48.7793V32.1647H70.1816V34.4376H61.9782V39.099H68.7971V41.3719H61.9782V46.5063H70.1816V48.7793H59.5667ZM81.6983 48.7793V42.6527C81.6983 42.1681 81.656 41.6719 81.5714 41.1643C81.4944 40.6489 81.3406 40.172 81.1098 39.7336C80.8868 39.2951 80.5676 38.9413 80.1522 38.6721C79.7445 38.4028 79.2099 38.2682 78.5484 38.2682C78.1177 38.2682 77.71 38.3413 77.3254 38.4875C76.9408 38.6259 76.6024 38.8528 76.3101 39.1682C76.0255 39.4836 75.7986 39.8989 75.6293 40.4143C75.4678 40.9297 75.387 41.5566 75.387 42.295L73.8871 41.7296C73.8871 40.5989 74.0986 39.6028 74.5217 38.7413C74.9447 37.8721 75.5524 37.1952 76.3447 36.7106C77.137 36.226 78.0946 35.9837 79.2176 35.9837C80.0791 35.9837 80.8022 36.1222 81.3868 36.3991C81.9713 36.676 82.4444 37.0414 82.8059 37.4952C83.1751 37.9413 83.4559 38.4298 83.6482 38.9605C83.8405 39.4913 83.9713 40.0105 84.0405 40.5181C84.1097 41.0258 84.1443 41.4719 84.1443 41.8565V48.7793H81.6983ZM72.941 48.7793V36.3183H75.0986V39.9182H75.387V48.7793H72.941ZM94.28 48.7793C93.4955 48.9331 92.7263 48.9985 91.9724 48.9754C91.2186 48.9524 90.5456 48.8062 89.9533 48.537C89.361 48.2678 88.9149 47.8447 88.6149 47.2678C88.3457 46.7525 88.1995 46.2294 88.1765 45.6987C88.1611 45.1602 88.1534 44.5526 88.1534 43.8757V32.857H90.5764V43.7603C90.5764 44.2603 90.5802 44.6949 90.5879 45.0641C90.6033 45.4333 90.684 45.7448 90.8302 45.9987C91.1071 46.4756 91.5455 46.7486 92.1455 46.8178C92.7532 46.8794 93.4647 46.8525 94.28 46.7371V48.7793ZM85.765 38.2567V36.3183H94.28V38.2567H85.765ZM96.9073 48.7793V36.3183H99.0533V39.3413L98.7533 38.949C98.9072 38.549 99.1072 38.1836 99.3533 37.8529C99.5994 37.5144 99.884 37.2375 100.207 37.0221C100.522 36.7914 100.872 36.6145 101.257 36.4914C101.649 36.3606 102.049 36.2837 102.457 36.2606C102.865 36.2299 103.257 36.2491 103.634 36.3183V38.5798C103.226 38.4721 102.772 38.4413 102.272 38.4875C101.78 38.5336 101.326 38.6913 100.911 38.9605C100.519 39.2144 100.207 39.522 99.9763 39.8836C99.7533 40.2451 99.5917 40.6489 99.4918 41.095C99.3918 41.5335 99.3418 41.9988 99.3418 42.4911V48.7793H96.9073ZM107.2 54.3175L109.612 47.7524L109.646 49.6908L104.212 36.3183H106.727L110.788 46.6448H110.05L113.927 36.3183H116.373L109.496 54.3175H107.2ZM127.934 54.6636C127.265 54.6636 126.615 54.5598 125.984 54.3521C125.361 54.1444 124.792 53.8368 124.277 53.4291C123.761 53.0291 123.335 52.533 122.996 51.9407L125.223 50.81C125.492 51.3407 125.877 51.7292 126.377 51.9753C126.877 52.2214 127.404 52.3445 127.957 52.3445C128.642 52.3445 129.227 52.2214 129.711 51.9753C130.196 51.7369 130.561 51.3753 130.807 50.8907C131.061 50.4061 131.184 49.8062 131.177 49.0908V45.6064H131.465V36.3183H133.6V49.1139C133.6 49.4447 133.588 49.76 133.565 50.06C133.542 50.36 133.5 50.66 133.438 50.96C133.261 51.7984 132.923 52.4907 132.423 53.0368C131.93 53.5829 131.3 53.9906 130.53 54.2598C129.769 54.529 128.904 54.6636 127.934 54.6636ZM127.75 49.1254C126.588 49.1254 125.584 48.837 124.738 48.2601C123.9 47.6832 123.25 46.8986 122.788 45.9064C122.335 44.9064 122.108 43.7834 122.108 42.5373C122.108 41.2835 122.338 40.1643 122.8 39.1797C123.262 38.1875 123.915 37.4067 124.761 36.8375C125.615 36.2606 126.627 35.9722 127.796 35.9722C128.973 35.9722 129.961 36.2606 130.761 36.8375C131.569 37.4067 132.176 38.1875 132.584 39.1797C133 40.172 133.207 41.2912 133.207 42.5373C133.207 43.7834 133 44.9026 132.584 45.8948C132.169 46.8871 131.557 47.6755 130.75 48.2601C129.942 48.837 128.942 49.1254 127.75 49.1254ZM128.084 46.9448C128.877 46.9448 129.523 46.7563 130.023 46.3794C130.523 46.0025 130.888 45.4833 131.119 44.8218C131.35 44.1603 131.465 43.3988 131.465 42.5373C131.465 41.6758 131.346 40.9143 131.107 40.2528C130.877 39.5913 130.515 39.0759 130.023 38.7067C129.538 38.3375 128.919 38.1529 128.165 38.1529C127.365 38.1529 126.708 38.349 126.192 38.7413C125.677 39.1336 125.292 39.6605 125.038 40.322C124.792 40.9835 124.669 41.7219 124.669 42.5373C124.669 43.3603 124.792 44.1064 125.038 44.7756C125.292 45.4371 125.669 45.964 126.169 46.3563C126.677 46.7486 127.315 46.9448 128.084 46.9448ZM140.358 49.1254C139.435 49.1254 138.662 48.9562 138.039 48.6178C137.416 48.2716 136.943 47.8178 136.62 47.2563C136.305 46.6871 136.147 46.064 136.147 45.3871C136.147 44.7564 136.259 44.2026 136.482 43.7257C136.705 43.2488 137.035 42.845 137.474 42.5142C137.912 42.1758 138.451 41.9027 139.089 41.695C139.643 41.5335 140.27 41.3912 140.97 41.2681C141.67 41.145 142.404 41.0297 143.174 40.922C143.951 40.8143 144.72 40.7066 145.481 40.5989L144.604 41.0835C144.62 40.1066 144.412 39.3836 143.981 38.9144C143.558 38.4375 142.828 38.199 141.789 38.199C141.135 38.199 140.535 38.3529 139.989 38.6605C139.443 38.9605 139.062 39.4605 138.847 40.1605L136.597 39.4682C136.905 38.399 137.489 37.549 138.351 36.9183C139.22 36.2876 140.374 35.9722 141.812 35.9722C142.927 35.9722 143.897 36.1645 144.72 36.5491C145.55 36.926 146.158 37.526 146.543 38.349C146.743 38.7567 146.866 39.1874 146.912 39.6413C146.958 40.0951 146.981 40.5835 146.981 41.1066V48.7793H144.847V45.9294L145.262 46.2986C144.747 47.2524 144.089 47.9639 143.289 48.4332C142.497 48.8947 141.52 49.1254 140.358 49.1254ZM140.785 47.1524C141.47 47.1524 142.058 47.0332 142.551 46.7948C143.043 46.5486 143.439 46.2371 143.739 45.8602C144.039 45.4833 144.235 45.091 144.327 44.6833C144.458 44.3141 144.531 43.8988 144.547 43.4372C144.57 42.9757 144.581 42.6065 144.581 42.3296L145.366 42.618C144.604 42.7334 143.912 42.8373 143.289 42.9296C142.666 43.0219 142.101 43.1142 141.593 43.2065C141.093 43.2911 140.647 43.3949 140.255 43.518C139.924 43.6334 139.628 43.7718 139.366 43.9334C139.112 44.0949 138.908 44.291 138.755 44.5218C138.608 44.7526 138.535 45.0333 138.535 45.3641C138.535 45.6871 138.616 45.9871 138.778 46.264C138.939 46.5332 139.185 46.7486 139.516 46.9102C139.847 47.0717 140.27 47.1524 140.785 47.1524ZM157.108 48.7793C156.323 48.9331 155.554 48.9985 154.8 48.9754C154.046 48.9524 153.373 48.8062 152.781 48.537C152.189 48.2678 151.743 47.8447 151.443 47.2678C151.173 46.7525 151.027 46.2294 151.004 45.6987C150.989 45.1602 150.981 44.5526 150.981 43.8757V32.857H153.404V43.7603C153.404 44.2603 153.408 44.6949 153.416 45.0641C153.431 45.4333 153.512 45.7448 153.658 45.9987C153.935 46.4756 154.373 46.7486 154.973 46.8178C155.581 46.8794 156.292 46.8525 157.108 46.7371V48.7793ZM148.593 38.2567V36.3183H157.108V38.2567H148.593ZM164.698 49.1254C163.46 49.1254 162.371 48.8562 161.433 48.3178C160.502 47.7717 159.775 47.014 159.252 46.0448C158.737 45.0679 158.479 43.9372 158.479 42.6527C158.479 41.2912 158.733 40.1105 159.241 39.1105C159.756 38.1106 160.471 37.3375 161.387 36.7914C162.302 36.2453 163.367 35.9722 164.583 35.9722C165.852 35.9722 166.933 36.2683 167.825 36.8606C168.717 37.4452 169.383 38.2798 169.821 39.3643C170.267 40.4489 170.444 41.7373 170.352 43.2296H167.94V42.3527C167.925 40.9066 167.648 39.8374 167.11 39.1451C166.579 38.4528 165.767 38.1067 164.675 38.1067C163.467 38.1067 162.56 38.4875 161.952 39.249C161.345 40.0105 161.041 41.1104 161.041 42.5488C161.041 43.918 161.345 44.9795 161.952 45.7333C162.56 46.4794 163.437 46.8525 164.583 46.8525C165.337 46.8525 165.987 46.6832 166.533 46.3448C167.087 45.9987 167.517 45.5064 167.825 44.8679L170.19 45.6179C169.706 46.7332 168.971 47.5986 167.987 48.2139C167.002 48.8216 165.906 49.1254 164.698 49.1254ZM160.256 43.2296V41.3489H169.152V43.2296H160.256Z" fill="#84818A"/>
<path d="M33.1944 129.545V112.93H35.2482V120.257H43.9939V112.93H46.0477V129.545H43.9939V122.207H35.2482V129.545H33.1944ZM49.5152 114.88V112.757H51.5689V114.88H49.5152ZM49.5152 129.545V117.084H51.5689V129.545H49.5152ZM54.8001 132.129L54.927 131.172C55.2501 131.195 55.4924 131.133 55.6539 130.987C55.8154 130.841 55.9193 130.641 55.9654 130.387C56.0116 130.133 56.0193 129.853 55.9885 129.545H54.8001V126.937H57.0615V129.891C57.0615 130.699 56.8615 131.306 56.4616 131.714C56.0693 132.122 55.5154 132.26 54.8001 132.129ZM80.9685 129.545L80.98 121.572C80.98 120.641 80.73 119.915 80.2301 119.392C79.7378 118.861 79.0955 118.595 78.3032 118.595C77.8417 118.595 77.4033 118.703 76.9879 118.918C76.5725 119.126 76.2341 119.457 75.9726 119.911C75.711 120.357 75.5803 120.93 75.5803 121.63L74.4957 121.191C74.4803 120.307 74.6611 119.534 75.038 118.872C75.4226 118.203 75.9456 117.684 76.6071 117.315C77.2686 116.946 78.0148 116.761 78.8455 116.761C80.1454 116.761 81.1685 117.157 81.9146 117.949C82.6607 118.734 83.0338 119.792 83.0338 121.122L83.0222 129.545H80.9685ZM66.0615 129.545V117.084H67.896V120.418H68.1268V129.545H66.0615ZM73.5265 129.545L73.5381 121.653C73.5381 120.699 73.2919 119.953 72.7996 119.415C72.3073 118.868 71.6535 118.595 70.8382 118.595C70.0305 118.595 69.3767 118.872 68.8767 119.426C68.3767 119.98 68.1268 120.715 68.1268 121.63L67.0422 120.984C67.0422 120.176 67.2345 119.453 67.6191 118.815C68.0037 118.176 68.5267 117.676 69.1883 117.315C69.8498 116.946 70.5997 116.761 71.4381 116.761C72.2766 116.761 73.0073 116.938 73.6304 117.292C74.2534 117.645 74.7342 118.153 75.0726 118.815C75.411 119.468 75.5803 120.249 75.5803 121.157L75.5687 129.545H73.5265ZM87.319 135.083L89.7305 128.53L89.7651 130.468L84.3192 117.084H86.4768L90.7458 127.849H90.0074L94.011 117.084H96.0994L89.3151 135.083H87.319ZM111.497 129.545V123.303C111.497 122.711 111.444 122.141 111.336 121.595C111.236 121.049 111.055 120.561 110.794 120.13C110.54 119.692 110.194 119.345 109.755 119.092C109.325 118.838 108.778 118.711 108.117 118.711C107.602 118.711 107.132 118.799 106.709 118.976C106.294 119.145 105.936 119.407 105.636 119.761C105.336 120.115 105.102 120.561 104.932 121.099C104.771 121.63 104.69 122.257 104.69 122.98L103.34 122.564C103.34 121.357 103.556 120.322 103.986 119.461C104.425 118.592 105.036 117.926 105.821 117.465C106.613 116.995 107.544 116.761 108.613 116.761C109.421 116.761 110.109 116.888 110.678 117.142C111.247 117.395 111.721 117.734 112.097 118.157C112.474 118.572 112.771 119.042 112.986 119.565C113.201 120.08 113.351 120.607 113.436 121.145C113.528 121.676 113.574 122.18 113.574 122.657V129.545H111.497ZM102.613 129.545V117.084H104.459V120.418H104.69V129.545H102.613ZM120.116 129.891C119.185 129.891 118.405 129.722 117.774 129.383C117.151 129.037 116.678 128.583 116.355 128.022C116.039 127.46 115.882 126.845 115.882 126.176C115.882 125.522 116.005 124.957 116.251 124.48C116.505 123.995 116.859 123.595 117.312 123.28C117.766 122.957 118.309 122.703 118.939 122.518C119.532 122.357 120.193 122.218 120.924 122.103C121.662 121.98 122.408 121.868 123.162 121.768C123.916 121.668 124.62 121.572 125.274 121.48L124.535 121.907C124.558 120.799 124.335 119.98 123.866 119.449C123.404 118.918 122.604 118.653 121.466 118.653C120.712 118.653 120.051 118.826 119.482 119.172C118.92 119.511 118.524 120.065 118.293 120.834L116.343 120.245C116.643 119.153 117.224 118.295 118.085 117.672C118.947 117.049 120.082 116.738 121.489 116.738C122.62 116.738 123.589 116.942 124.397 117.349C125.212 117.749 125.797 118.357 126.15 119.172C126.327 119.557 126.439 119.976 126.485 120.43C126.531 120.876 126.554 121.345 126.554 121.838V129.545H124.731V126.557L125.158 126.834C124.689 127.841 124.031 128.603 123.185 129.118C122.347 129.633 121.324 129.891 120.116 129.891ZM120.428 128.172C121.166 128.172 121.805 128.041 122.343 127.78C122.889 127.51 123.328 127.16 123.658 126.73C123.989 126.291 124.204 125.814 124.304 125.299C124.42 124.914 124.481 124.487 124.489 124.018C124.504 123.541 124.512 123.176 124.512 122.922L125.227 123.234C124.558 123.326 123.901 123.414 123.254 123.499C122.608 123.584 121.997 123.676 121.42 123.776C120.843 123.868 120.324 123.98 119.862 124.111C119.524 124.218 119.205 124.357 118.905 124.526C118.612 124.695 118.374 124.914 118.189 125.184C118.012 125.445 117.924 125.772 117.924 126.164C117.924 126.503 118.009 126.826 118.178 127.133C118.355 127.441 118.624 127.691 118.985 127.883C119.355 128.076 119.835 128.172 120.428 128.172ZM144.45 129.545L144.461 121.572C144.461 120.641 144.211 119.915 143.711 119.392C143.219 118.861 142.577 118.595 141.784 118.595C141.323 118.595 140.884 118.703 140.469 118.918C140.054 119.126 139.715 119.457 139.454 119.911C139.192 120.357 139.061 120.93 139.061 121.63L137.977 121.191C137.961 120.307 138.142 119.534 138.519 118.872C138.904 118.203 139.427 117.684 140.088 117.315C140.75 116.946 141.496 116.761 142.327 116.761C143.627 116.761 144.65 117.157 145.396 117.949C146.142 118.734 146.515 119.792 146.515 121.122L146.503 129.545H144.45ZM129.543 129.545V117.084H131.377V120.418H131.608V129.545H129.543ZM137.008 129.545L137.019 121.653C137.019 120.699 136.773 119.953 136.281 119.415C135.788 118.868 135.135 118.595 134.319 118.595C133.512 118.595 132.858 118.872 132.358 119.426C131.858 119.98 131.608 120.715 131.608 121.63L130.523 120.984C130.523 120.176 130.716 119.453 131.1 118.815C131.485 118.176 132.008 117.676 132.669 117.315C133.331 116.946 134.081 116.761 134.919 116.761C135.758 116.761 136.488 116.938 137.112 117.292C137.735 117.645 138.215 118.153 138.554 118.815C138.892 119.468 139.061 120.249 139.061 121.157L139.05 129.545H137.008ZM154.807 129.891C153.584 129.891 152.515 129.622 151.6 129.083C150.692 128.537 149.984 127.78 149.477 126.81C148.969 125.834 148.715 124.695 148.715 123.395C148.715 122.034 148.965 120.857 149.465 119.865C149.965 118.865 150.661 118.095 151.554 117.557C152.454 117.011 153.507 116.738 154.715 116.738C155.969 116.738 157.034 117.026 157.911 117.603C158.796 118.18 159.457 119.003 159.896 120.072C160.342 121.141 160.534 122.414 160.472 123.891H158.396V123.153C158.372 121.622 158.061 120.48 157.461 119.726C156.861 118.965 155.969 118.584 154.784 118.584C153.515 118.584 152.55 118.992 151.888 119.807C151.227 120.622 150.896 121.791 150.896 123.314C150.896 124.784 151.227 125.922 151.888 126.73C152.55 127.537 153.492 127.941 154.715 127.941C155.538 127.941 156.253 127.753 156.861 127.376C157.469 126.999 157.946 126.457 158.292 125.749L160.265 126.43C159.78 127.53 159.049 128.383 158.073 128.991C157.103 129.591 156.015 129.891 154.807 129.891ZM150.204 123.891V122.241H159.411V123.891H150.204ZM167.892 114.88V112.757H169.945V114.88H167.892ZM167.892 129.545V117.084H169.945V129.545H167.892ZM178.115 129.88C176.63 129.88 175.411 129.556 174.457 128.91C173.511 128.257 172.93 127.345 172.715 126.176L174.815 125.841C174.984 126.518 175.373 127.057 175.98 127.457C176.588 127.849 177.342 128.045 178.242 128.045C179.096 128.045 179.765 127.868 180.249 127.514C180.734 127.16 180.976 126.68 180.976 126.072C180.976 125.718 180.895 125.434 180.734 125.218C180.572 124.995 180.238 124.787 179.73 124.595C179.23 124.403 178.472 124.172 177.457 123.903C176.357 123.611 175.492 123.307 174.861 122.991C174.23 122.676 173.78 122.311 173.511 121.895C173.242 121.48 173.107 120.976 173.107 120.384C173.107 119.653 173.307 119.015 173.707 118.469C174.107 117.915 174.665 117.488 175.38 117.188C176.103 116.888 176.942 116.738 177.896 116.738C178.842 116.738 179.688 116.888 180.434 117.188C181.18 117.488 181.78 117.915 182.234 118.469C182.695 119.015 182.968 119.653 183.053 120.384L180.953 120.765C180.853 120.095 180.53 119.568 179.984 119.184C179.446 118.799 178.749 118.595 177.896 118.572C177.088 118.542 176.43 118.684 175.923 118.999C175.423 119.315 175.173 119.742 175.173 120.28C175.173 120.58 175.265 120.838 175.45 121.053C175.642 121.268 175.992 121.472 176.499 121.665C177.015 121.857 177.761 122.076 178.738 122.322C179.838 122.599 180.703 122.903 181.334 123.234C181.972 123.557 182.426 123.941 182.695 124.387C182.965 124.826 183.099 125.368 183.099 126.014C183.099 127.214 182.657 128.16 181.772 128.853C180.888 129.537 179.669 129.88 178.115 129.88ZM190.494 129.545V112.93H192.548V129.545H190.494ZM201.733 129.891C200.564 129.891 199.579 129.603 198.779 129.026C197.979 128.441 197.371 127.653 196.956 126.66C196.548 125.66 196.345 124.541 196.345 123.303C196.345 122.049 196.548 120.926 196.956 119.934C197.371 118.942 197.979 118.161 198.779 117.592C199.587 117.022 200.575 116.738 201.744 116.738C202.898 116.738 203.89 117.026 204.721 117.603C205.56 118.172 206.202 118.953 206.648 119.945C207.094 120.938 207.317 122.057 207.317 123.303C207.317 124.549 207.094 125.668 206.648 126.66C206.202 127.653 205.56 128.441 204.721 129.026C203.89 129.603 202.894 129.891 201.733 129.891ZM195.998 129.545V112.93H198.064V120.372H197.833V129.545H195.998ZM201.479 128.01C202.302 128.01 202.983 127.803 203.521 127.387C204.06 126.972 204.463 126.41 204.733 125.703C205.002 124.987 205.136 124.187 205.136 123.303C205.136 122.426 205.002 121.634 204.733 120.926C204.471 120.218 204.063 119.657 203.51 119.242C202.963 118.826 202.267 118.619 201.421 118.619C200.614 118.619 199.944 118.818 199.414 119.218C198.883 119.611 198.487 120.161 198.225 120.868C197.964 121.568 197.833 122.38 197.833 123.303C197.833 124.211 197.96 125.022 198.214 125.737C198.475 126.445 198.875 127.003 199.414 127.41C199.952 127.81 200.641 128.01 201.479 128.01ZM218.719 129.545V123.303C218.719 122.711 218.665 122.141 218.558 121.595C218.458 121.049 218.277 120.561 218.015 120.13C217.761 119.692 217.415 119.345 216.977 119.092C216.546 118.838 216 118.711 215.339 118.711C214.823 118.711 214.354 118.799 213.931 118.976C213.516 119.145 213.158 119.407 212.858 119.761C212.558 120.115 212.323 120.561 212.154 121.099C211.993 121.63 211.912 122.257 211.912 122.98L210.562 122.564C210.562 121.357 210.777 120.322 211.208 119.461C211.646 118.592 212.258 117.926 213.042 117.465C213.835 116.995 214.765 116.761 215.835 116.761C216.642 116.761 217.331 116.888 217.9 117.142C218.469 117.395 218.942 117.734 219.319 118.157C219.696 118.572 219.992 119.042 220.208 119.565C220.423 120.08 220.573 120.607 220.657 121.145C220.75 121.676 220.796 122.18 220.796 122.657V129.545H218.719ZM209.835 129.545V117.084H211.681V120.418H211.912V129.545H209.835ZM228.526 129.868C227.726 129.868 227.038 129.741 226.461 129.487C225.892 129.233 225.419 128.895 225.042 128.472C224.665 128.049 224.369 127.58 224.153 127.064C223.938 126.549 223.784 126.022 223.692 125.484C223.607 124.945 223.565 124.441 223.565 123.972V117.084H225.642V123.326C225.642 123.911 225.696 124.476 225.803 125.022C225.911 125.568 226.092 126.06 226.346 126.499C226.607 126.937 226.953 127.283 227.384 127.537C227.822 127.791 228.369 127.918 229.022 127.918C229.538 127.918 230.007 127.83 230.43 127.653C230.853 127.476 231.215 127.214 231.515 126.868C231.815 126.514 232.045 126.068 232.207 125.53C232.368 124.991 232.449 124.364 232.449 123.649L233.799 124.064C233.799 125.264 233.58 126.299 233.141 127.168C232.711 128.037 232.099 128.706 231.307 129.176C230.522 129.637 229.595 129.868 228.526 129.868ZM232.68 129.545V126.21H232.449V117.084H234.514V129.545H232.68ZM238.114 129.545V127.283H240.375V129.545H238.114ZM33.4252 162.545V145.93H35.4789V162.545H33.4252ZM43.6483 162.88C42.1638 162.88 40.9446 162.556 39.9908 161.91C39.0447 161.257 38.4639 160.345 38.2486 159.176L40.3485 158.841C40.5177 159.518 40.9061 160.057 41.5138 160.457C42.1215 160.849 42.8753 161.045 43.7752 161.045C44.629 161.045 45.2982 160.868 45.7828 160.514C46.2674 160.16 46.5097 159.68 46.5097 159.072C46.5097 158.718 46.429 158.434 46.2674 158.218C46.1059 157.995 45.7713 157.787 45.2636 157.595C44.7637 157.403 44.006 157.172 42.9907 156.903C41.8907 156.611 41.0254 156.307 40.3946 155.991C39.7639 155.676 39.3139 155.311 39.0447 154.895C38.7755 154.48 38.6409 153.976 38.6409 153.384C38.6409 152.653 38.8408 152.015 39.2408 151.469C39.6408 150.915 40.1985 150.488 40.9138 150.188C41.6369 149.888 42.4753 149.738 43.4291 149.738C44.3752 149.738 45.2213 149.888 45.9674 150.188C46.7136 150.488 47.3135 150.915 47.7674 151.469C48.2289 152.015 48.5019 152.653 48.5866 153.384L46.4867 153.765C46.3867 153.095 46.0636 152.568 45.5175 152.184C44.979 151.799 44.2829 151.595 43.4291 151.572C42.6214 151.542 41.9638 151.684 41.4561 151.999C40.9561 152.315 40.7061 152.742 40.7061 153.28C40.7061 153.58 40.7984 153.838 40.9831 154.053C41.1754 154.268 41.5253 154.472 42.033 154.665C42.5484 154.857 43.2945 155.076 44.2714 155.322C45.3713 155.599 46.2367 155.903 46.8674 156.234C47.5058 156.557 47.9597 156.941 48.2289 157.387C48.4981 157.826 48.6327 158.368 48.6327 159.014C48.6327 160.214 48.1904 161.16 47.3058 161.853C46.4213 162.537 45.2021 162.88 43.6483 162.88ZM62.7544 162.545C62.016 162.691 61.2852 162.749 60.5622 162.718C59.8469 162.695 59.2084 162.553 58.6469 162.291C58.0854 162.022 57.6585 161.607 57.3662 161.045C57.1201 160.553 56.9854 160.057 56.9624 159.557C56.947 159.049 56.9393 158.476 56.9393 157.837V146.623H58.993V157.745C58.993 158.253 58.9969 158.687 59.0046 159.049C59.02 159.41 59.1007 159.722 59.2469 159.984C59.5238 160.476 59.9622 160.764 60.5622 160.849C61.1699 160.933 61.9006 160.91 62.7544 160.78V162.545ZM54.4125 151.78V150.084H62.7544V151.78H54.4125ZM74.157 162.545V156.303C74.157 155.711 74.1031 155.141 73.9954 154.595C73.8954 154.049 73.7147 153.561 73.4531 153.13C73.1993 152.692 72.8532 152.345 72.4147 152.092C71.984 151.838 71.4378 151.711 70.7763 151.711C70.261 151.711 69.7918 151.799 69.3687 151.976C68.9533 152.145 68.5957 152.407 68.2957 152.761C67.9957 153.115 67.7611 153.561 67.5919 154.099C67.4303 154.63 67.3496 155.257 67.3496 155.98L65.9996 155.564C65.9996 154.357 66.215 153.322 66.6458 152.461C67.0842 151.592 67.6957 150.926 68.4803 150.465C69.2726 149.995 70.2033 149.761 71.2725 149.761C72.0801 149.761 72.7686 149.888 73.3378 150.142C73.907 150.395 74.38 150.734 74.7569 151.157C75.1338 151.572 75.43 152.042 75.6453 152.565C75.8607 153.08 76.0107 153.607 76.0953 154.145C76.1876 154.676 76.2338 155.18 76.2338 155.657V162.545H74.157ZM65.2727 162.545V145.93H67.1188V155.103H67.3496V162.545H65.2727ZM82.7756 162.891C81.8449 162.891 81.0641 162.722 80.4334 162.383C79.8104 162.037 79.3373 161.583 79.0142 161.022C78.6989 160.46 78.5412 159.845 78.5412 159.176C78.5412 158.522 78.6643 157.957 78.9104 157.48C79.1642 156.995 79.5181 156.595 79.9719 156.28C80.4257 155.957 80.968 155.703 81.5987 155.518C82.191 155.357 82.8525 155.218 83.5833 155.103C84.3217 154.98 85.0678 154.868 85.8216 154.768C86.5754 154.668 87.2792 154.572 87.9331 154.48L87.1946 154.907C87.2177 153.799 86.9946 152.98 86.5254 152.449C86.0639 151.918 85.264 151.653 84.1255 151.653C83.3717 151.653 82.7102 151.826 82.141 152.172C81.5795 152.511 81.1834 153.065 80.9526 153.834L79.0027 153.245C79.3027 152.153 79.8834 151.295 80.7449 150.672C81.6064 150.049 82.741 149.738 84.1486 149.738C85.2793 149.738 86.2485 149.942 87.0562 150.349C87.8715 150.749 88.4561 151.357 88.8099 152.172C88.9869 152.557 89.0984 152.976 89.1445 153.43C89.1907 153.876 89.2138 154.345 89.2138 154.838V162.545H87.3908V159.557L87.8177 159.834C87.3485 160.841 86.6908 161.603 85.8447 162.118C85.0063 162.633 83.9832 162.891 82.7756 162.891ZM83.0871 161.172C83.8256 161.172 84.464 161.041 85.0024 160.78C85.5486 160.51 85.987 160.16 86.3178 159.73C86.6485 159.291 86.8639 158.814 86.9639 158.299C87.0793 157.914 87.1408 157.487 87.1485 157.018C87.1639 156.541 87.1716 156.176 87.1716 155.922L87.8869 156.234C87.2177 156.326 86.56 156.414 85.9139 156.499C85.2678 156.584 84.6563 156.676 84.0794 156.776C83.5025 156.868 82.9833 156.98 82.5218 157.111C82.1833 157.218 81.8641 157.357 81.5641 157.526C81.2718 157.695 81.0334 157.914 80.8488 158.184C80.6719 158.445 80.5834 158.772 80.5834 159.164C80.5834 159.503 80.668 159.826 80.8372 160.133C81.0142 160.441 81.2834 160.691 81.6449 160.883C82.0141 161.076 82.4949 161.172 83.0871 161.172ZM99.171 162.545C98.4326 162.691 97.7018 162.749 96.9788 162.718C96.2634 162.695 95.625 162.553 95.0635 162.291C94.502 162.022 94.0751 161.607 93.7828 161.045C93.5367 160.553 93.402 160.057 93.379 159.557C93.3636 159.049 93.3559 158.476 93.3559 157.837V146.623H95.4096V157.745C95.4096 158.253 95.4135 158.687 95.4212 159.049C95.4366 159.41 95.5173 159.722 95.6635 159.984C95.9404 160.476 96.3788 160.764 96.9788 160.849C97.5865 160.933 98.3172 160.91 99.171 160.78V162.545ZM90.8291 151.78V150.084H99.171V151.78H90.8291ZM109.863 162.891C108.932 162.891 108.151 162.722 107.521 162.383C106.897 162.037 106.424 161.583 106.101 161.022C105.786 160.46 105.628 159.845 105.628 159.176C105.628 158.522 105.751 157.957 105.997 157.48C106.251 156.995 106.605 156.595 107.059 156.28C107.513 155.957 108.055 155.703 108.686 155.518C109.278 155.357 109.94 155.218 110.67 155.103C111.409 154.98 112.155 154.868 112.909 154.768C113.663 154.668 114.366 154.572 115.02 154.48L114.282 154.907C114.305 153.799 114.082 152.98 113.613 152.449C113.151 151.918 112.351 151.653 111.213 151.653C110.459 151.653 109.797 151.826 109.228 152.172C108.667 152.511 108.27 153.065 108.04 153.834L106.09 153.245C106.39 152.153 106.971 151.295 107.832 150.672C108.694 150.049 109.828 149.738 111.236 149.738C112.366 149.738 113.336 149.942 114.143 150.349C114.959 150.749 115.543 151.357 115.897 152.172C116.074 152.557 116.185 152.976 116.232 153.43C116.278 153.876 116.301 154.345 116.301 154.838V162.545H114.478V159.557L114.905 159.834C114.436 160.841 113.778 161.603 112.932 162.118C112.093 162.633 111.07 162.891 109.863 162.891ZM110.174 161.172C110.913 161.172 111.551 161.041 112.09 160.78C112.636 160.51 113.074 160.16 113.405 159.73C113.736 159.291 113.951 158.814 114.051 158.299C114.166 157.914 114.228 157.487 114.236 157.018C114.251 156.541 114.259 156.176 114.259 155.922L114.974 156.234C114.305 156.326 113.647 156.414 113.001 156.499C112.355 156.584 111.743 156.676 111.166 156.776C110.59 156.868 110.07 156.98 109.609 157.111C109.27 157.218 108.951 157.357 108.651 157.526C108.359 157.695 108.12 157.914 107.936 158.184C107.759 158.445 107.67 158.772 107.67 159.164C107.67 159.503 107.755 159.826 107.924 160.133C108.101 160.441 108.37 160.691 108.732 160.883C109.101 161.076 109.582 161.172 110.174 161.172ZM128.173 162.545V156.303C128.173 155.711 128.12 155.141 128.012 154.595C127.912 154.049 127.731 153.561 127.47 153.13C127.216 152.692 126.87 152.345 126.431 152.092C126 151.838 125.454 151.711 124.793 151.711C124.277 151.711 123.808 151.799 123.385 151.976C122.97 152.145 122.612 152.407 122.312 152.761C122.012 153.115 121.778 153.561 121.608 154.099C121.447 154.63 121.366 155.257 121.366 155.98L120.016 155.564C120.016 154.357 120.231 153.322 120.662 152.461C121.101 151.592 121.712 150.926 122.497 150.465C123.289 149.995 124.22 149.761 125.289 149.761C126.097 149.761 126.785 149.888 127.354 150.142C127.923 150.395 128.396 150.734 128.773 151.157C129.15 151.572 129.446 152.042 129.662 152.565C129.877 153.08 130.027 153.607 130.112 154.145C130.204 154.676 130.25 155.18 130.25 155.657V162.545H128.173ZM119.289 162.545V150.084H121.135V153.418H121.366V162.545H119.289ZM134.53 168.083L136.941 161.53L136.976 163.468L131.53 150.084H133.688L137.957 160.849H137.218L141.222 150.084H143.31L136.526 168.083H134.53ZM154.089 162.545V156.303C154.089 155.711 154.035 155.141 153.927 154.595C153.827 154.049 153.646 153.561 153.385 153.13C153.131 152.692 152.785 152.345 152.346 152.092C151.916 151.838 151.37 151.711 150.708 151.711C150.193 151.711 149.723 151.799 149.3 151.976C148.885 152.145 148.527 152.407 148.227 152.761C147.927 153.115 147.693 153.561 147.524 154.099C147.362 154.63 147.281 155.257 147.281 155.98L145.931 155.564C145.931 154.357 146.147 153.322 146.577 152.461C147.016 151.592 147.627 150.926 148.412 150.465C149.204 149.995 150.135 149.761 151.204 149.761C152.012 149.761 152.7 149.888 153.269 150.142C153.839 150.395 154.312 150.734 154.689 151.157C155.066 151.572 155.362 152.042 155.577 152.565C155.792 153.08 155.942 153.607 156.027 154.145C156.119 154.676 156.166 155.18 156.166 155.657V162.545H154.089ZM145.204 162.545V145.93H147.051V155.103H147.281V162.545H145.204ZM159.396 147.88V145.757H161.45V147.88H159.396ZM159.396 162.545V150.084H161.45V162.545H159.396ZM173.784 162.545V156.303C173.784 155.711 173.73 155.141 173.623 154.595C173.523 154.049 173.342 153.561 173.08 153.13C172.827 152.692 172.481 152.345 172.042 152.092C171.611 151.838 171.065 151.711 170.404 151.711C169.888 151.711 169.419 151.799 168.996 151.976C168.581 152.145 168.223 152.407 167.923 152.761C167.623 153.115 167.388 153.561 167.219 154.099C167.058 154.63 166.977 155.257 166.977 155.98L165.627 155.564C165.627 154.357 165.842 153.322 166.273 152.461C166.712 151.592 167.323 150.926 168.108 150.465C168.9 149.995 169.831 149.761 170.9 149.761C171.707 149.761 172.396 149.888 172.965 150.142C173.534 150.395 174.007 150.734 174.384 151.157C174.761 151.572 175.057 152.042 175.273 152.565C175.488 153.08 175.638 153.607 175.723 154.145C175.815 154.676 175.861 155.18 175.861 155.657V162.545H173.784ZM164.9 162.545V150.084H166.746V153.418H166.977V162.545H164.9ZM183.903 168.429C183.249 168.429 182.611 168.329 181.988 168.129C181.365 167.929 180.791 167.625 180.268 167.218C179.753 166.818 179.322 166.31 178.976 165.695L180.857 164.703C181.165 165.31 181.599 165.752 182.161 166.029C182.73 166.306 183.314 166.445 183.914 166.445C184.707 166.445 185.364 166.299 185.887 166.006C186.41 165.722 186.795 165.295 187.041 164.726C187.295 164.156 187.418 163.449 187.41 162.603V159.199H187.653V150.084H189.476V162.626C189.476 162.964 189.464 163.291 189.441 163.606C189.426 163.922 189.387 164.233 189.326 164.541C189.164 165.426 188.845 166.152 188.368 166.722C187.891 167.299 187.276 167.725 186.522 168.002C185.768 168.287 184.895 168.429 183.903 168.429ZM183.753 162.891C182.591 162.891 181.595 162.603 180.765 162.026C179.934 161.441 179.292 160.653 178.838 159.66C178.392 158.668 178.169 157.549 178.169 156.303C178.169 155.057 178.392 153.938 178.838 152.945C179.292 151.953 179.934 151.172 180.765 150.603C181.595 150.026 182.588 149.738 183.741 149.738C184.918 149.738 185.907 150.022 186.707 150.592C187.507 151.161 188.11 151.942 188.518 152.934C188.933 153.926 189.141 155.049 189.141 156.303C189.141 157.541 188.933 158.66 188.518 159.66C188.11 160.653 187.507 161.441 186.707 162.026C185.907 162.603 184.922 162.891 183.753 162.891ZM184.007 161.01C184.845 161.01 185.534 160.81 186.072 160.41C186.61 160.003 187.007 159.445 187.26 158.737C187.522 158.022 187.653 157.211 187.653 156.303C187.653 155.38 187.522 154.568 187.26 153.868C187.007 153.161 186.614 152.611 186.084 152.218C185.553 151.818 184.88 151.619 184.064 151.619C183.218 151.619 182.518 151.826 181.964 152.242C181.418 152.657 181.011 153.218 180.741 153.926C180.48 154.634 180.349 155.426 180.349 156.303C180.349 157.187 180.484 157.987 180.753 158.703C181.022 159.41 181.426 159.972 181.964 160.387C182.511 160.803 183.191 161.01 184.007 161.01ZM204.274 162.545C203.536 162.691 202.805 162.749 202.082 162.718C201.367 162.695 200.728 162.553 200.167 162.291C199.605 162.022 199.178 161.607 198.886 161.045C198.64 160.553 198.505 160.057 198.482 159.557C198.467 159.049 198.459 158.476 198.459 157.837V146.623H200.513V157.745C200.513 158.253 200.517 158.687 200.525 159.049C200.54 159.41 200.621 159.722 200.767 159.984C201.044 160.476 201.482 160.764 202.082 160.849C202.69 160.933 203.421 160.91 204.274 160.78V162.545ZM195.932 151.78V150.084H204.274V151.78H195.932ZM215.677 162.545V156.303C215.677 155.711 215.623 155.141 215.515 154.595C215.415 154.049 215.235 153.561 214.973 153.13C214.719 152.692 214.373 152.345 213.935 152.092C213.504 151.838 212.958 151.711 212.296 151.711C211.781 151.711 211.312 151.799 210.889 151.976C210.473 152.145 210.116 152.407 209.816 152.761C209.516 153.115 209.281 153.561 209.112 154.099C208.95 154.63 208.87 155.257 208.87 155.98L207.52 155.564C207.52 154.357 207.735 153.322 208.166 152.461C208.604 151.592 209.216 150.926 210 150.465C210.793 149.995 211.723 149.761 212.792 149.761C213.6 149.761 214.289 149.888 214.858 150.142C215.427 150.395 215.9 150.734 216.277 151.157C216.654 151.572 216.95 152.042 217.165 152.565C217.381 153.08 217.531 153.607 217.615 154.145C217.708 154.676 217.754 155.18 217.754 155.657V162.545H215.677ZM206.793 162.545V145.93H208.639V155.103H208.87V162.545H206.793ZM224.296 162.891C223.365 162.891 222.584 162.722 221.953 162.383C221.33 162.037 220.857 161.583 220.534 161.022C220.219 160.46 220.061 159.845 220.061 159.176C220.061 158.522 220.184 157.957 220.43 157.48C220.684 156.995 221.038 156.595 221.492 156.28C221.946 155.957 222.488 155.703 223.119 155.518C223.711 155.357 224.372 155.218 225.103 155.103C225.842 154.98 226.588 154.868 227.342 154.768C228.095 154.668 228.799 154.572 229.453 154.48L228.715 154.907C228.738 153.799 228.515 152.98 228.045 152.449C227.584 151.918 226.784 151.653 225.645 151.653C224.892 151.653 224.23 151.826 223.661 152.172C223.099 152.511 222.703 153.065 222.473 153.834L220.523 153.245C220.823 152.153 221.403 151.295 222.265 150.672C223.126 150.049 224.261 149.738 225.669 149.738C226.799 149.738 227.768 149.942 228.576 150.349C229.391 150.749 229.976 151.357 230.33 152.172C230.507 152.557 230.618 152.976 230.664 153.43C230.711 153.876 230.734 154.345 230.734 154.838V162.545H228.911V159.557L229.338 159.834C228.868 160.841 228.211 161.603 227.365 162.118C226.526 162.633 225.503 162.891 224.296 162.891ZM224.607 161.172C225.345 161.172 225.984 161.041 226.522 160.78C227.068 160.51 227.507 160.16 227.838 159.73C228.168 159.291 228.384 158.814 228.484 158.299C228.599 157.914 228.661 157.487 228.668 157.018C228.684 156.541 228.692 156.176 228.692 155.922L229.407 156.234C228.738 156.326 228.08 156.414 227.434 156.499C226.788 156.584 226.176 156.676 225.599 156.776C225.022 156.868 224.503 156.98 224.042 157.111C223.703 157.218 223.384 157.357 223.084 157.526C222.792 157.695 222.553 157.914 222.369 158.184C222.192 158.445 222.103 158.772 222.103 159.164C222.103 159.503 222.188 159.826 222.357 160.133C222.534 160.441 222.803 160.691 223.165 160.883C223.534 161.076 224.015 161.172 224.607 161.172ZM240.691 162.545C239.953 162.691 239.222 162.749 238.499 162.718C237.783 162.695 237.145 162.553 236.583 162.291C236.022 162.022 235.595 161.607 235.303 161.045C235.057 160.553 234.922 160.057 234.899 159.557C234.884 159.049 234.876 158.476 234.876 157.837V146.623H236.93V157.745C236.93 158.253 236.933 158.687 236.941 159.049C236.957 159.41 237.037 159.722 237.183 159.984C237.46 160.476 237.899 160.764 238.499 160.849C239.106 160.933 239.837 160.91 240.691 160.78V162.545ZM232.349 151.78V150.084H240.691V151.78H232.349ZM248.071 162.545V145.93H250.125V162.545H248.071ZM263.456 162.891C262.195 162.891 261.122 162.61 260.237 162.049C259.36 161.48 258.691 160.699 258.23 159.707C257.768 158.714 257.53 157.584 257.514 156.314C257.53 155.014 257.772 153.872 258.241 152.888C258.718 151.895 259.399 151.122 260.283 150.569C261.168 150.015 262.233 149.738 263.479 149.738C264.795 149.738 265.925 150.061 266.872 150.707C267.825 151.353 268.464 152.238 268.787 153.361L266.756 153.972C266.495 153.249 266.068 152.688 265.476 152.288C264.891 151.888 264.218 151.688 263.456 151.688C262.603 151.688 261.899 151.888 261.345 152.288C260.791 152.68 260.38 153.226 260.11 153.926C259.841 154.618 259.703 155.414 259.695 156.314C259.71 157.699 260.03 158.818 260.653 159.672C261.283 160.518 262.218 160.941 263.456 160.941C264.272 160.941 264.949 160.757 265.487 160.387C266.025 160.01 266.433 159.468 266.71 158.76L268.787 159.303C268.356 160.464 267.683 161.353 266.768 161.968C265.852 162.583 264.749 162.891 263.456 162.891ZM274.571 162.891C273.64 162.891 272.86 162.722 272.229 162.383C271.606 162.037 271.133 161.583 270.81 161.022C270.494 160.46 270.337 159.845 270.337 159.176C270.337 158.522 270.46 157.957 270.706 157.48C270.96 156.995 271.314 156.595 271.767 156.28C272.221 155.957 272.764 155.703 273.394 155.518C273.987 155.357 274.648 155.218 275.379 155.103C276.117 154.98 276.863 154.868 277.617 154.768C278.371 154.668 279.075 154.572 279.729 154.48L278.99 154.907C279.013 153.799 278.79 152.98 278.321 152.449C277.859 151.918 277.06 151.653 275.921 151.653C275.167 151.653 274.506 151.826 273.937 152.172C273.375 152.511 272.979 153.065 272.748 153.834L270.798 153.245C271.098 152.153 271.679 151.295 272.541 150.672C273.402 150.049 274.537 149.738 275.944 149.738C277.075 149.738 278.044 149.942 278.852 150.349C279.667 150.749 280.252 151.357 280.606 152.172C280.782 152.557 280.894 152.976 280.94 153.43C280.986 153.876 281.009 154.345 281.009 154.838V162.545H279.186V159.557L279.613 159.834C279.144 160.841 278.486 161.603 277.64 162.118C276.802 162.633 275.779 162.891 274.571 162.891ZM274.883 161.172C275.621 161.172 276.26 161.041 276.798 160.78C277.344 160.51 277.783 160.16 278.113 159.73C278.444 159.291 278.659 158.814 278.759 158.299C278.875 157.914 278.936 157.487 278.944 157.018C278.959 156.541 278.967 156.176 278.967 155.922L279.682 156.234C279.013 156.326 278.356 156.414 277.709 156.499C277.063 156.584 276.452 156.676 275.875 156.776C275.298 156.868 274.779 156.98 274.317 157.111C273.979 157.218 273.66 157.357 273.36 157.526C273.067 157.695 272.829 157.914 272.644 158.184C272.467 158.445 272.379 158.772 272.379 159.164C272.379 159.503 272.464 159.826 272.633 160.133C272.81 160.441 273.079 160.691 273.44 160.883C273.81 161.076 274.29 161.172 274.883 161.172ZM292.882 162.545V156.303C292.882 155.711 292.828 155.141 292.72 154.595C292.62 154.049 292.44 153.561 292.178 153.13C291.924 152.692 291.578 152.345 291.14 152.092C290.709 151.838 290.163 151.711 289.501 151.711C288.986 151.711 288.517 151.799 288.094 151.976C287.678 152.145 287.321 152.407 287.021 152.761C286.721 153.115 286.486 153.561 286.317 154.099C286.155 154.63 286.075 155.257 286.075 155.98L284.725 155.564C284.725 154.357 284.94 153.322 285.371 152.461C285.809 151.592 286.421 150.926 287.205 150.465C287.997 149.995 288.928 149.761 289.997 149.761C290.805 149.761 291.493 149.888 292.063 150.142C292.632 150.395 293.105 150.734 293.482 151.157C293.859 151.572 294.155 152.042 294.37 152.565C294.586 153.08 294.736 153.607 294.82 154.145C294.913 154.676 294.959 155.18 294.959 155.657V162.545H292.882ZM283.998 162.545V150.084H285.844V153.418H286.075V162.545H283.998ZM311.451 162.545V156.303C311.451 155.711 311.397 155.141 311.289 154.595C311.189 154.049 311.008 153.561 310.747 153.13C310.493 152.692 310.147 152.345 309.709 152.092C309.278 151.838 308.732 151.711 308.07 151.711C307.555 151.711 307.086 151.799 306.663 151.976C306.247 152.145 305.889 152.407 305.589 152.761C305.289 153.115 305.055 153.561 304.886 154.099C304.724 154.63 304.643 155.257 304.643 155.98L303.293 155.564C303.293 154.357 303.509 153.322 303.94 152.461C304.378 151.592 304.99 150.926 305.774 150.465C306.566 149.995 307.497 149.761 308.566 149.761C309.374 149.761 310.062 149.888 310.632 150.142C311.201 150.395 311.674 150.734 312.051 151.157C312.428 151.572 312.724 152.042 312.939 152.565C313.155 153.08 313.305 153.607 313.389 154.145C313.481 154.676 313.528 155.18 313.528 155.657V162.545H311.451ZM302.567 162.545V145.93H304.413V155.103H304.643V162.545H302.567ZM321.927 162.891C320.704 162.891 319.635 162.622 318.719 162.083C317.812 161.537 317.104 160.78 316.596 159.81C316.089 158.834 315.835 157.695 315.835 156.395C315.835 155.034 316.085 153.857 316.585 152.865C317.085 151.865 317.781 151.095 318.673 150.557C319.573 150.011 320.627 149.738 321.835 149.738C323.088 149.738 324.154 150.026 325.031 150.603C325.915 151.18 326.577 152.003 327.015 153.072C327.461 154.141 327.654 155.414 327.592 156.891H325.515V156.153C325.492 154.622 325.181 153.48 324.581 152.726C323.981 151.965 323.088 151.584 321.904 151.584C320.635 151.584 319.669 151.992 319.008 152.807C318.346 153.622 318.016 154.791 318.016 156.314C318.016 157.784 318.346 158.922 319.008 159.73C319.669 160.537 320.612 160.941 321.835 160.941C322.658 160.941 323.373 160.753 323.981 160.376C324.588 159.999 325.065 159.457 325.411 158.749L327.384 159.43C326.9 160.53 326.169 161.383 325.192 161.991C324.223 162.591 323.135 162.891 321.927 162.891ZM317.323 156.891V155.241H326.531V156.891H317.323ZM330.392 162.545V145.584H332.445V162.545H330.392ZM341.63 162.891C340.461 162.891 339.476 162.603 338.676 162.026C337.877 161.441 337.269 160.653 336.853 159.66C336.446 158.66 336.242 157.541 336.242 156.303C336.242 155.049 336.446 153.926 336.853 152.934C337.269 151.942 337.877 151.161 338.676 150.592C339.484 150.022 340.473 149.738 341.642 149.738C342.796 149.738 343.788 150.026 344.619 150.603C345.457 151.172 346.099 151.953 346.545 152.945C346.991 153.938 347.215 155.057 347.215 156.303C347.215 157.549 346.991 158.668 346.545 159.66C346.099 160.653 345.457 161.441 344.619 162.026C343.788 162.603 342.792 162.891 341.63 162.891ZM335.896 168.083V150.084H337.73V159.257H337.961V168.083H335.896ZM341.376 161.01C342.199 161.01 342.88 160.803 343.419 160.387C343.957 159.972 344.361 159.41 344.63 158.703C344.899 157.987 345.034 157.187 345.034 156.303C345.034 155.426 344.899 154.634 344.63 153.926C344.369 153.218 343.961 152.657 343.407 152.242C342.861 151.826 342.165 151.619 341.319 151.619C340.511 151.619 339.842 151.818 339.311 152.218C338.78 152.611 338.384 153.161 338.123 153.868C337.861 154.568 337.73 155.38 337.73 156.303C337.73 157.211 337.857 158.022 338.111 158.737C338.373 159.445 338.773 160.003 339.311 160.41C339.849 160.81 340.538 161.01 341.376 161.01ZM34.9251 201.083L37.3365 194.53L37.3711 196.468L31.9252 183.084H34.0828L38.3519 193.849H37.6134L41.6171 183.084H43.7055L36.9212 201.083H34.9251ZM50.468 195.891C49.2296 195.891 48.1604 195.61 47.2604 195.049C46.3681 194.487 45.6797 193.71 45.1951 192.718C44.7105 191.726 44.4682 190.587 44.4682 189.303C44.4682 187.995 44.7144 186.849 45.2067 185.865C45.6989 184.88 46.3951 184.115 47.295 183.569C48.195 183.015 49.2526 182.738 50.468 182.738C51.7141 182.738 52.7871 183.019 53.687 183.58C54.587 184.134 55.2754 184.907 55.7523 185.899C56.2369 186.884 56.4792 188.018 56.4792 189.303C56.4792 190.603 56.2369 191.749 55.7523 192.741C55.2677 193.726 54.5755 194.499 53.6755 195.06C52.7755 195.614 51.7064 195.891 50.468 195.891ZM50.468 193.941C51.7602 193.941 52.7217 193.51 53.3524 192.649C53.9832 191.787 54.2986 190.672 54.2986 189.303C54.2986 187.895 53.9793 186.776 53.3409 185.945C52.7025 185.107 51.7448 184.688 50.468 184.688C49.5988 184.688 48.8834 184.884 48.3219 185.276C47.7604 185.668 47.3412 186.211 47.0643 186.903C46.7874 187.595 46.6489 188.395 46.6489 189.303C46.6489 190.703 46.972 191.826 47.6181 192.672C48.2642 193.518 49.2142 193.941 50.468 193.941ZM63.7501 195.868C62.9501 195.868 62.2617 195.741 61.6848 195.487C61.1156 195.233 60.6425 194.895 60.2656 194.472C59.8887 194.049 59.5926 193.58 59.3772 193.064C59.1618 192.549 59.008 192.022 58.9157 191.484C58.8311 190.945 58.7888 190.441 58.7888 189.972V183.084H60.8656V189.326C60.8656 189.911 60.9195 190.476 61.0271 191.022C61.1348 191.568 61.3156 192.06 61.5694 192.499C61.831 192.937 62.1771 193.283 62.6078 193.537C63.0463 193.791 63.5924 193.918 64.2462 193.918C64.7616 193.918 65.2308 193.83 65.6539 193.653C66.0769 193.476 66.4384 193.214 66.7384 192.868C67.0384 192.514 67.2692 192.068 67.4307 191.53C67.5922 190.991 67.673 190.364 67.673 189.649L69.0229 190.064C69.0229 191.264 68.8037 192.299 68.3653 193.168C67.9345 194.037 67.323 194.706 66.5307 195.176C65.7462 195.637 64.8193 195.868 63.7501 195.868ZM67.9038 195.545V192.21H67.673V183.084H69.7383V195.545H67.9038ZM78.7768 195.545V182.403C78.7768 182.08 78.7922 181.753 78.823 181.422C78.8537 181.084 78.923 180.757 79.0306 180.442C79.1383 180.119 79.3152 179.823 79.5614 179.553C79.846 179.238 80.1575 179.015 80.496 178.884C80.8344 178.746 81.1767 178.661 81.5228 178.63C81.8767 178.6 82.2113 178.584 82.5266 178.584H84.1073V180.292H82.642C82.0344 180.292 81.5805 180.442 81.2805 180.742C80.9806 181.034 80.8306 181.48 80.8306 182.08V195.545H78.7768ZM76.6654 184.78V183.084H84.1073V184.78H76.6654ZM90.8056 195.891C89.5672 195.891 88.4981 195.61 87.5981 195.049C86.7058 194.487 86.0174 193.71 85.5328 192.718C85.0482 191.726 84.8059 190.587 84.8059 189.303C84.8059 187.995 85.0521 186.849 85.5444 185.865C86.0366 184.88 86.7328 184.115 87.6327 183.569C88.5327 183.015 89.5903 182.738 90.8056 182.738C92.0517 182.738 93.1248 183.019 94.0247 183.58C94.9247 184.134 95.6131 184.907 96.09 185.899C96.5746 186.884 96.8169 188.018 96.8169 189.303C96.8169 190.603 96.5746 191.749 96.09 192.741C95.6054 193.726 94.9132 194.499 94.0132 195.06C93.1132 195.614 92.0441 195.891 90.8056 195.891ZM90.8056 193.941C92.0979 193.941 93.0594 193.51 93.6901 192.649C94.3209 191.787 94.6362 190.672 94.6362 189.303C94.6362 187.895 94.317 186.776 93.6786 185.945C93.0402 185.107 92.0825 184.688 90.8056 184.688C89.9365 184.688 89.2211 184.884 88.6596 185.276C88.0981 185.668 87.6789 186.211 87.402 186.903C87.125 187.595 86.9866 188.395 86.9866 189.303C86.9866 190.703 87.3097 191.826 87.9558 192.672C88.6019 193.518 89.5519 193.941 90.8056 193.941ZM99.3572 195.545V183.084H101.192V186.095L100.892 185.703C101.038 185.318 101.226 184.965 101.457 184.642C101.696 184.319 101.961 184.053 102.253 183.845C102.576 183.584 102.942 183.384 103.349 183.245C103.757 183.107 104.172 183.026 104.595 183.003C105.019 182.972 105.415 182.999 105.784 183.084V185.011C105.353 184.895 104.88 184.865 104.365 184.918C103.849 184.972 103.372 185.161 102.934 185.484C102.534 185.768 102.222 186.115 101.999 186.522C101.784 186.93 101.634 187.372 101.549 187.849C101.465 188.318 101.423 188.799 101.423 189.291V195.545H99.3572ZM111.139 191.022C111.139 190.445 111.173 189.922 111.242 189.453C111.319 188.976 111.481 188.514 111.727 188.068C111.95 187.638 112.215 187.288 112.523 187.018C112.831 186.741 113.162 186.476 113.515 186.222C113.869 185.968 114.219 185.657 114.565 185.288C114.873 184.942 115.077 184.595 115.177 184.249C115.277 183.895 115.327 183.522 115.327 183.13C115.327 182.784 115.285 182.472 115.2 182.196C115.123 181.911 114.992 181.669 114.808 181.469C114.531 181.123 114.185 180.884 113.769 180.753C113.362 180.623 112.935 180.557 112.488 180.557C112.065 180.557 111.665 180.615 111.289 180.73C110.919 180.846 110.612 181.026 110.366 181.272C110.119 181.496 109.939 181.769 109.823 182.092C109.708 182.407 109.65 182.749 109.65 183.119H107.504C107.55 182.449 107.708 181.815 107.977 181.215C108.254 180.607 108.635 180.107 109.119 179.715C109.573 179.33 110.092 179.05 110.677 178.873C111.262 178.688 111.85 178.596 112.442 178.596C113.227 178.596 113.969 178.715 114.669 178.953C115.377 179.192 115.965 179.588 116.434 180.142C116.796 180.534 117.065 180.984 117.242 181.492C117.419 181.999 117.507 182.534 117.507 183.095C117.507 183.78 117.369 184.419 117.092 185.011C116.823 185.603 116.458 186.138 115.996 186.615C115.742 186.891 115.465 187.145 115.165 187.376C114.873 187.607 114.592 187.838 114.323 188.068C114.061 188.299 113.854 188.553 113.7 188.83C113.5 189.191 113.385 189.526 113.354 189.834C113.331 190.134 113.319 190.53 113.319 191.022H111.139ZM111.15 195.545V193.018H113.319V195.545H111.15Z" fill="#2E2C34"/>
</g>
</g>
<defs>
<filter id="filter0_d_38156_10948" x="0.26196" y="0.703448" width="405.476" height="248.993" filterUnits="userSpaceOnUse" color-interpolation-filters="sRGB">
<feFlood flood-opacity="0" result="BackgroundImageFix"/>
<feColorMatrix in="SourceAlpha" type="matrix" values="0 0 0 0 0 0 0 0 0 0 0 0 0 0 0 0 0 0 127 0" result="hardAlpha"/>
<feOffset dy="1.64828"/>
<feGaussianBlur stdDeviation="2.47241"/>
<feColorMatrix type="matrix" values="0 0 0 0 0 0 0 0 0 0 0 0 0 0 0 0 0 0 0.12 0"/>
<feBlend mode="normal" in2="BackgroundImageFix" result="effect1_dropShadow_38156_10948"/>
<feBlend mode="normal" in="SourceGraphic" in2="effect1_dropShadow_38156_10948" result="shape"/>
</filter>
<clipPath id="clip0_38156_10948">
<rect x="5.20679" y="4" width="395.586" height="239.103" rx="6.5931" fill="white"/>
</clipPath>
</defs>
</svg>
