<svg width="17" height="17" viewBox="0 0 17 17" fill="none" xmlns="http://www.w3.org/2000/svg">
<g clip-path="url(#clip0_38174_6043)">
<path d="M2.02851 12.2261C2.25639 12.4536 2.60875 12.483 2.86738 12.3121L2.97187 12.2261L6.50019 8.69782L8.69551 10.8931L8.8 10.9791C9.05864 11.1494 9.41028 11.1206 9.63789 10.8931L13.1662 7.36481L14.0285 8.22614C14.2192 8.41661 14.5061 8.47382 14.7551 8.37067C15.0039 8.26752 15.1659 8.02474 15.1662 7.75544V5.08845C15.1662 5.02623 15.1542 4.96512 15.1369 4.90485C15.1317 4.88678 15.1279 4.86855 15.1213 4.85114C15.1142 4.83262 15.1046 4.81538 15.0959 4.79743C15.087 4.7791 15.0781 4.76106 15.0676 4.74372C15.0572 4.72669 15.0464 4.71015 15.0344 4.69392C15.0206 4.6752 15.0061 4.65735 14.9904 4.6402C14.9838 4.6329 14.9789 4.62384 14.9719 4.61677C14.9664 4.61133 14.9589 4.60733 14.9533 4.60212C14.9352 4.58515 14.9157 4.57011 14.8957 4.55524C14.8811 4.54439 14.867 4.5335 14.8518 4.52399C14.8274 4.50876 14.8019 4.496 14.7756 4.48395C14.7663 4.47971 14.7577 4.47408 14.7482 4.47028C14.7116 4.4555 14.6736 4.44322 14.634 4.43513C14.5899 4.42611 14.5451 4.42149 14.5002 4.42145H11.8332C11.5636 4.42145 11.3202 4.58445 11.217 4.83356C11.1141 5.08256 11.171 5.3696 11.3615 5.56013L12.2228 6.42243L9.16621 9.47907L6.97187 7.28376C6.74411 7.056 6.39176 7.02708 6.13301 7.19782L6.02851 7.28376L2.02851 11.2838C1.76844 11.544 1.76854 11.9658 2.02851 12.2261Z" fill="url(#paint0_linear_38174_6043)"/>
</g>
<defs>
<linearGradient id="paint0_linear_38174_6043" x1="0.72097" y1="11.9004" x2="4.26034" y2="1.72542" gradientUnits="userSpaceOnUse">
<stop stop-color="white"/>
<stop offset="0.350508" stop-color="#9573DE"/>
<stop offset="1" stop-color="white"/>
</linearGradient>
<clipPath id="clip0_38174_6043">
<rect width="16" height="16" fill="white" transform="translate(0.5 0.421387)"/>
</clipPath>
</defs>
</svg>
