<svg width="589" height="247" viewBox="0 0 589 247" fill="none" xmlns="http://www.w3.org/2000/svg">
<g opacity="0.3">
<rect x="1.76738" y="1.18877" width="586.465" height="244.027" stroke="#6F6AF8" stroke-width="1.53476" stroke-dasharray="3.07 3.07"/>
<rect x="396.866" y="1.18877" width="191.366" height="244.027" stroke="#6F6AF8" stroke-width="1.53476" stroke-dasharray="3.07 3.07"/>
<rect x="1.76738" y="1.18877" width="191.366" height="244.027" stroke="#6F6AF8" stroke-width="1.53476" stroke-dasharray="3.07 3.07"/>
<rect x="1.76738" y="79.2352" width="586.465" height="87.9336" stroke="#6F6AF8" stroke-width="1.53476" stroke-dasharray="3.07 3.07"/>
</g>
<path opacity="0.2" d="M11.496 213.406C9.4968 220.264 4.59864 236.381 1 245.983H586.529V46.2303L538.547 33.3707L501.062 46.2303L489.066 26.5122L471.073 63.3765L447.082 46.2303L408.846 85.6665L375.109 75.3788L335.374 109.671L321.129 101.955L312.133 132.818H294.889L266.4 179.113L245.163 156.823L216.919 179.113L189.929 119.102H180.182L162.939 132.818L156.192 119.102L141.197 132.818L129.202 101.955H102.962L75.222 156.823L66.9751 140.534L52.7305 149.965L39.2356 201.403L11.496 213.406Z" fill="url(#paint0_linear_38144_51910)"/>
<path d="M1 245.983C4.59864 236.381 9.4968 220.264 11.496 213.406L39.2356 201.403L52.7305 149.965L66.9751 140.534L75.222 156.823L102.962 101.955H129.202L141.197 132.818L156.192 119.102L162.939 132.818L180.182 119.102H189.929C200.469 142.538 206.378 155.677 216.919 179.113L245.163 156.823L266.4 179.113L294.889 132.818H312.133L321.129 101.955L335.374 109.671L375.109 75.3788L408.846 85.6665L447.082 46.2303L471.073 63.3765L489.066 26.5122L501.062 46.2303L538.547 33.3707L586.529 46.2303" stroke="#6425FE" stroke-opacity="0.5"/>
<defs>
<linearGradient id="paint0_linear_38144_51910" x1="293.765" y1="26.5122" x2="293.765" y2="245.983" gradientUnits="userSpaceOnUse">
<stop stop-color="#6425FE" stop-opacity="0.68"/>
<stop offset="1" stop-color="#6425FE" stop-opacity="0"/>
</linearGradient>
</defs>
</svg>
