<svg width="108" height="108" viewBox="0 0 108 108" fill="none" xmlns="http://www.w3.org/2000/svg">
<g filter="url(#filter0_dddd_38184_16512)">
<rect x="8.61865" y="2" width="63.3173" height="63.3173" rx="17.3173" transform="rotate(6 8.61865 2)" fill="white"/>
<g clip-path="url(#clip0_38184_16512)">
<path d="M38.7978 17.7329C49.3253 18.8393 56.9628 28.2709 55.8563 38.7984C55.469 42.4829 54.0591 45.8182 51.939 48.5458L51.5056 49.0825C51.2518 49.3859 50.988 49.6802 50.7164 49.9668L50.7234 50.0029L49.9636 50.7204C49.9604 50.7234 49.957 50.7262 49.9538 50.7292C49.9052 50.7751 49.8552 50.8195 49.806 50.8648C49.721 50.9434 49.6361 51.0221 49.5497 51.0991C49.4959 51.1471 49.4408 51.1937 49.3865 51.241C49.2967 51.3192 49.2068 51.3972 49.1156 51.4737C49.072 51.5103 49.0282 51.5465 48.9843 51.5827C48.8783 51.6701 48.7714 51.7565 48.6635 51.8416C48.6284 51.8692 48.5929 51.8963 48.5577 51.9237C48.4571 52.0019 48.3556 52.0787 48.2535 52.1549C48.2016 52.1937 48.1502 52.2329 48.0979 52.2711C47.9994 52.3431 47.9004 52.4143 47.8006 52.4844C47.7564 52.5154 47.7125 52.5468 47.668 52.5775C47.2082 52.8945 46.7337 53.1906 46.247 53.467C46.2112 53.4873 46.1753 53.5073 46.1395 53.5274C46.0162 53.5964 45.8924 53.6646 45.7675 53.7309C45.7117 53.7605 45.6554 53.7891 45.5993 53.8182C45.5011 53.8691 45.4027 53.9196 45.3036 53.9688C45.2287 54.006 45.1534 54.0424 45.078 54.0787C44.9923 54.1198 44.9061 54.1599 44.8198 54.1998C44.7419 54.2358 44.664 54.2718 44.5856 54.3068C44.4869 54.3508 44.3878 54.3941 44.2882 54.4365C44.2205 54.4654 44.1528 54.4941 44.0848 54.5222C44.0122 54.5521 43.9393 54.5812 43.8664 54.6102C43.7643 54.6508 43.6621 54.6912 43.5592 54.7301C43.3933 54.7928 43.2268 54.854 43.0589 54.9122C43.0201 54.9257 42.9808 54.9378 42.9419 54.951C42.8149 54.9941 42.6876 55.0363 42.5595 55.0767C42.4923 55.0979 42.425 55.1185 42.3575 55.139C42.2404 55.1745 42.1229 55.209 42.0049 55.2423C41.9193 55.2666 41.8333 55.2894 41.7472 55.3125C41.676 55.3315 41.6046 55.3502 41.5331 55.3685C41.4229 55.3967 41.3124 55.4243 41.2014 55.4505C41.1178 55.4703 41.0339 55.4889 40.95 55.5075C40.8683 55.5257 40.7867 55.5442 40.7047 55.5613C40.5855 55.5861 40.4658 55.609 40.3458 55.6316C40.2844 55.6431 40.2231 55.6553 40.1615 55.6662C40.0257 55.6904 39.8894 55.7129 39.7527 55.7342C39.7041 55.7418 39.6556 55.75 39.6069 55.7572C39.2341 55.8123 38.8582 55.856 38.4796 55.8891C38.4265 55.8937 38.3733 55.8976 38.3201 55.9018C38.1885 55.9122 38.0567 55.9213 37.9245 55.9289C37.8453 55.9335 37.766 55.9367 37.6867 55.9403C37.5738 55.9454 37.4608 55.9506 37.3475 55.9537C37.2662 55.956 37.1849 55.9573 37.1034 55.9585C36.9984 55.9601 36.8933 55.9609 36.788 55.9607C36.6933 55.9606 36.5985 55.9598 36.5035 55.9583C36.4128 55.9568 36.3221 55.954 36.2312 55.9513C36.1348 55.9484 36.0383 55.9459 35.9416 55.9415C35.8285 55.9363 35.7153 55.9296 35.6019 55.9225C35.522 55.9174 35.442 55.9131 35.362 55.9071C35.1749 55.893 34.9875 55.8764 34.7997 55.8568C34.7968 55.8565 34.7937 55.8572 34.7908 55.8569L34.79 55.8558L34.7899 55.8567C34.6034 55.8371 34.418 55.8132 34.2334 55.7884C34.1765 55.7808 34.1199 55.7718 34.0632 55.7637C33.9242 55.7438 33.7854 55.7242 33.6475 55.7013C33.603 55.694 33.5589 55.6852 33.5145 55.6775C33.3655 55.6518 33.2172 55.6245 33.0695 55.5954C33.0316 55.588 32.9938 55.5804 32.956 55.5727C32.8191 55.5449 32.6826 55.5162 32.5469 55.4855C32.4847 55.4715 32.4228 55.457 32.3609 55.4424C32.2349 55.4126 32.1097 55.3811 31.9848 55.3488C31.9309 55.3349 31.8769 55.3217 31.8232 55.3073C31.6925 55.2724 31.5627 55.2352 31.4332 55.1976C31.3849 55.1836 31.3364 55.1702 31.2883 55.1558C30.9311 55.0491 30.5784 54.9334 30.2311 54.8071C30.1817 54.7891 30.1329 54.7697 30.0837 54.7513C29.9731 54.7101 29.8629 54.6685 29.7533 54.6253C29.6772 54.5953 29.6019 54.5636 29.5264 54.5327C29.4253 54.4914 29.3246 54.4497 29.2244 54.4067C29.1648 54.3811 29.1053 54.3552 29.046 54.329C28.938 54.2813 28.8305 54.2328 28.7236 54.1832C28.6667 54.1568 28.6098 54.1304 28.5532 54.1034C28.4461 54.0524 28.3398 54 28.2338 53.9471C28.1696 53.9151 28.1055 53.8831 28.0417 53.8503C27.934 53.795 27.8272 53.7384 27.7207 53.6811C27.6792 53.6588 27.6376 53.6366 27.5962 53.614C27.1162 53.3512 26.6494 53.0687 26.1965 52.7678C26.1612 52.7443 26.1262 52.7205 26.0911 52.6968C25.9782 52.6206 25.8662 52.5435 25.7551 52.4651C25.7116 52.4344 25.6686 52.4029 25.6254 52.3719C25.5167 52.2938 25.4087 52.2149 25.3018 52.1346C25.2668 52.1084 25.2318 52.0823 25.1971 52.0559C25.0827 51.9688 24.969 51.8809 24.8567 51.7913C24.8322 51.7718 24.8077 51.7522 24.7833 51.7325C24.2152 51.2749 23.6745 50.7863 23.1638 50.2691C23.1453 50.2503 23.1273 50.2311 23.1089 50.2123C23.0017 50.1028 22.8957 49.9923 22.7912 49.8804C22.7629 49.85 22.7347 49.8195 22.7066 49.789C22.6131 49.6876 22.5207 49.5853 22.4295 49.482C22.3978 49.446 22.3663 49.41 22.3348 49.3738C22.2499 49.2762 22.166 49.1776 22.0831 49.0783C22.049 49.0375 22.0148 48.9968 21.9811 48.9557C21.8983 48.8548 21.8171 48.7526 21.7363 48.6501C21.7054 48.6108 21.6742 48.5718 21.6436 48.5323C21.5305 48.3863 21.418 48.2398 21.3091 48.0906L21.0156 47.6778L20.4226 46.8181L20.4359 46.7842C20.3305 46.6117 20.2276 46.4376 20.1275 46.2618L19.8498 45.7554C18.1272 42.5044 17.3194 38.7214 17.7323 34.7914C18.8388 24.2639 28.2704 16.6264 38.7978 17.7329ZM38.3971 21.5458C29.9751 20.6607 22.4305 26.7702 21.5453 35.1921C21.2575 37.931 21.7084 40.5728 22.7368 42.9245C24.7161 40.8505 27.6002 39.6828 30.6742 40.0057L42.1112 41.2078C45.1852 41.5309 47.7634 43.273 49.2684 45.713C50.7636 43.6264 51.7554 41.1368 52.0433 38.3976C52.9285 29.9756 46.819 22.431 38.3971 21.5458ZM37.9965 25.3569C41.1543 25.689 43.4455 28.5186 43.114 31.6764C42.782 34.8345 39.9525 37.1256 36.7944 36.7939C33.6364 36.4618 31.345 33.6325 31.677 30.4743C32.0092 27.3166 34.8386 25.0252 37.9965 25.3569Z" fill="#00D743"/>
</g>
</g>
<defs>
<filter id="filter0_dddd_38184_16512" x="-1" y="-1" width="110.589" height="110.589" filterUnits="userSpaceOnUse" color-interpolation-filters="sRGB">
<feFlood flood-opacity="0" result="BackgroundImageFix"/>
<feColorMatrix in="SourceAlpha" type="matrix" values="0 0 0 0 0 0 0 0 0 0 0 0 0 0 0 0 0 0 127 0" result="hardAlpha"/>
<feOffset dx="2" dy="2"/>
<feGaussianBlur stdDeviation="2.5"/>
<feColorMatrix type="matrix" values="0 0 0 0 0.584314 0 0 0 0 0.45098 0 0 0 0 0.870588 0 0 0 0.1 0"/>
<feBlend mode="normal" in2="BackgroundImageFix" result="effect1_dropShadow_38184_16512"/>
<feColorMatrix in="SourceAlpha" type="matrix" values="0 0 0 0 0 0 0 0 0 0 0 0 0 0 0 0 0 0 127 0" result="hardAlpha"/>
<feOffset dx="6" dy="6"/>
<feGaussianBlur stdDeviation="4.5"/>
<feColorMatrix type="matrix" values="0 0 0 0 0.584314 0 0 0 0 0.45098 0 0 0 0 0.870588 0 0 0 0.09 0"/>
<feBlend mode="normal" in2="effect1_dropShadow_38184_16512" result="effect2_dropShadow_38184_16512"/>
<feColorMatrix in="SourceAlpha" type="matrix" values="0 0 0 0 0 0 0 0 0 0 0 0 0 0 0 0 0 0 127 0" result="hardAlpha"/>
<feOffset dx="14" dy="14"/>
<feGaussianBlur stdDeviation="6"/>
<feColorMatrix type="matrix" values="0 0 0 0 0.584314 0 0 0 0 0.45098 0 0 0 0 0.870588 0 0 0 0.05 0"/>
<feBlend mode="normal" in2="effect2_dropShadow_38184_16512" result="effect3_dropShadow_38184_16512"/>
<feColorMatrix in="SourceAlpha" type="matrix" values="0 0 0 0 0 0 0 0 0 0 0 0 0 0 0 0 0 0 127 0" result="hardAlpha"/>
<feOffset dx="24" dy="24"/>
<feGaussianBlur stdDeviation="7"/>
<feColorMatrix type="matrix" values="0 0 0 0 0.584314 0 0 0 0 0.45098 0 0 0 0 0.870588 0 0 0 0.01 0"/>
<feBlend mode="normal" in2="effect3_dropShadow_38184_16512" result="effect4_dropShadow_38184_16512"/>
<feBlend mode="normal" in="SourceGraphic" in2="effect4_dropShadow_38184_16512" result="shape"/>
</filter>
<clipPath id="clip0_38184_16512">
<rect width="46" height="46" fill="white" transform="translate(16.3247 11.5163) rotate(6)"/>
</clipPath>
</defs>
</svg>
