<svg width="36" height="37" viewBox="0 0 36 37" fill="none" xmlns="http://www.w3.org/2000/svg">
<g filter="url(#filter0_d_38172_1670)">
<rect x="2" y="2.42139" width="32" height="32" rx="5.33333" fill="white"/>
<rect x="2.66667" y="3.08805" width="30.6667" height="30.6667" rx="4.66667" stroke="#E4D7FF" stroke-width="1.33333"/>
<g clip-path="url(#clip0_38172_1670)">
<path d="M22.8013 11.7686C23.1049 11.8308 23.3335 12.0998 23.3335 12.4219V23.0889C23.3331 24.193 22.4377 25.0888 21.3335 25.0889H14.6665C13.5624 25.0887 12.6669 24.193 12.6665 23.0889V12.4219L12.6802 12.2871C12.7425 11.9835 13.0115 11.7549 13.3335 11.7549H22.6665L22.8013 11.7686ZM16.0005 21.0879C15.6324 21.0879 15.3337 21.3868 15.3335 21.7549C15.3338 22.1228 15.6325 22.4219 16.0005 22.4219H16.6675L16.8013 22.4082C17.1047 22.3459 17.3333 22.0767 17.3335 21.7549C17.3333 21.433 17.1048 21.1639 16.8013 21.1016L16.6675 21.0879H16.0005ZM19.3335 21.0879C18.9654 21.0879 18.6667 21.3868 18.6665 21.7549C18.6668 22.1228 18.9655 22.4219 19.3335 22.4219H20.0005L20.1343 22.4082C20.4379 22.3461 20.6663 22.0768 20.6665 21.7549C20.6664 21.4329 20.4379 21.1637 20.1343 21.1016L20.0005 21.0879H19.3335ZM16.0005 18.4219C15.6323 18.4219 15.3335 18.7207 15.3335 19.0889C15.3339 19.4567 15.6326 19.7559 16.0005 19.7559H16.6675L16.8013 19.7422C17.1047 19.68 17.3331 19.4106 17.3335 19.0889C17.3335 18.7669 17.1048 18.4979 16.8013 18.4355L16.6675 18.4219H16.0005ZM19.3335 18.4219C18.9653 18.4219 18.6665 18.7207 18.6665 19.0889C18.6669 19.4567 18.9656 19.7559 19.3335 19.7559H20.0005L20.1343 19.7422C20.4379 19.6801 20.6661 19.4107 20.6665 19.0889C20.6665 18.7668 20.438 18.4978 20.1343 18.4355L20.0005 18.4219H19.3335ZM14.0005 15.7549H22.0005V13.0889H14.0005V15.7549Z" fill="url(#paint0_linear_38172_1670)"/>
</g>
</g>
<defs>
<filter id="filter0_d_38172_1670" x="-5.96046e-08" y="0.421387" width="36" height="36" filterUnits="userSpaceOnUse" color-interpolation-filters="sRGB">
<feFlood flood-opacity="0" result="BackgroundImageFix"/>
<feColorMatrix in="SourceAlpha" type="matrix" values="0 0 0 0 0 0 0 0 0 0 0 0 0 0 0 0 0 0 127 0" result="hardAlpha"/>
<feMorphology radius="1.33333" operator="dilate" in="SourceAlpha" result="effect1_dropShadow_38172_1670"/>
<feOffset/>
<feGaussianBlur stdDeviation="0.333333"/>
<feComposite in2="hardAlpha" operator="out"/>
<feColorMatrix type="matrix" values="0 0 0 0 0.929412 0 0 0 0 0.894118 0 0 0 0 1 0 0 0 1 0"/>
<feBlend mode="normal" in2="BackgroundImageFix" result="effect1_dropShadow_38172_1670"/>
<feBlend mode="normal" in="SourceGraphic" in2="effect1_dropShadow_38172_1670" result="shape"/>
</filter>
<linearGradient id="paint0_linear_38172_1670" x1="11.7764" y1="12.6236" x2="20.8093" y2="25.0887" gradientUnits="userSpaceOnUse">
<stop stop-color="white"/>
<stop offset="0.350508" stop-color="#9573DE"/>
<stop offset="1" stop-color="white"/>
</linearGradient>
<clipPath id="clip0_38172_1670">
<rect width="16" height="16" fill="white" transform="translate(10 10.4214)"/>
</clipPath>
</defs>
</svg>
