<svg width="36" height="37" viewBox="0 0 36 37" fill="none" xmlns="http://www.w3.org/2000/svg">
<g filter="url(#filter0_d_38156_11102)">
<rect x="2" y="2.42676" width="32" height="32" rx="5.33333" fill="white"/>
<rect x="2.66667" y="3.09342" width="30.6667" height="30.6667" rx="4.66667" stroke="#E4D7FF" stroke-width="1.33333"/>
<g clip-path="url(#clip0_38156_11102)">
<path d="M24.0005 17.76C24.3223 17.7602 24.5905 17.9888 24.6528 18.2922L24.6665 18.427L24.6577 18.7698C24.4791 22.292 21.5671 25.0937 18.0005 25.094C16.6565 25.094 15.4059 24.6939 14.3589 24.01L13.4722 24.8987C13.2817 25.0891 12.9945 25.1459 12.7456 25.0432C12.4966 24.9401 12.3337 24.6965 12.3335 24.427V21.76L12.3472 21.6262C12.4092 21.3223 12.6782 21.094 13.0005 21.094H15.6675C15.9367 21.0943 16.1796 21.2564 16.2827 21.5051C16.3856 21.7541 16.3287 22.0412 16.1382 22.2317L15.3267 23.0422C16.1129 23.4985 17.0262 23.76 18.0005 23.76C20.8536 23.7598 23.1836 21.5191 23.3267 18.7014L23.3335 18.427L23.3472 18.2922C23.4095 17.9887 23.6785 17.76 24.0005 17.76ZM17.9995 11.76C19.3433 11.76 20.5942 12.1583 21.6411 12.842L22.5288 11.9553C22.7194 11.7648 23.0063 11.7078 23.2554 11.8108C23.5042 11.9141 23.6675 12.1576 23.6675 12.427L23.6665 15.094L23.6528 15.2278C23.5906 15.5315 23.3216 15.76 22.9995 15.76H20.3325C20.0633 15.7597 19.8205 15.5975 19.7173 15.3489C19.6142 15.1 19.6715 14.813 19.8618 14.6223L20.6724 13.8108C19.8863 13.3548 18.9735 13.094 17.9995 13.094C15.1462 13.0942 12.8162 15.3348 12.6733 18.1526L12.6665 18.427L12.6528 18.5618C12.5903 18.8651 12.3214 19.094 11.9995 19.094C11.6779 19.0938 11.4096 18.865 11.3472 18.5618L11.3335 18.427L11.3423 18.0842C11.5207 14.5618 14.4328 11.7603 17.9995 11.76Z" fill="url(#paint0_linear_38156_11102)"/>
</g>
</g>
<defs>
<filter id="filter0_d_38156_11102" x="-5.96046e-08" y="0.426758" width="36" height="36" filterUnits="userSpaceOnUse" color-interpolation-filters="sRGB">
<feFlood flood-opacity="0" result="BackgroundImageFix"/>
<feColorMatrix in="SourceAlpha" type="matrix" values="0 0 0 0 0 0 0 0 0 0 0 0 0 0 0 0 0 0 127 0" result="hardAlpha"/>
<feMorphology radius="1.33333" operator="dilate" in="SourceAlpha" result="effect1_dropShadow_38156_11102"/>
<feOffset/>
<feGaussianBlur stdDeviation="0.333333"/>
<feComposite in2="hardAlpha" operator="out"/>
<feColorMatrix type="matrix" values="0 0 0 0 0.929412 0 0 0 0 0.894118 0 0 0 0 1 0 0 0 1 0"/>
<feBlend mode="normal" in2="BackgroundImageFix" result="effect1_dropShadow_38156_11102"/>
<feBlend mode="normal" in="SourceGraphic" in2="effect1_dropShadow_38156_11102" result="shape"/>
</filter>
<linearGradient id="paint0_linear_38156_11102" x1="10.2209" y1="12.6287" x2="18.4699" y2="26.8571" gradientUnits="userSpaceOnUse">
<stop stop-color="white"/>
<stop offset="0.350508" stop-color="#9573DE"/>
<stop offset="1" stop-color="white"/>
</linearGradient>
<clipPath id="clip0_38156_11102">
<rect width="16" height="16" fill="white" transform="translate(10 10.4268)"/>
</clipPath>
</defs>
</svg>
