<svg width="13" height="13" viewBox="0 0 13 13" fill="none" xmlns="http://www.w3.org/2000/svg">
<path d="M5.73903 1.61911C5.96993 0.908183 6.08544 0.552723 6.25894 0.457353C6.40894 0.374893 6.59074 0.374893 6.74074 0.457353C6.91424 0.552723 7.02974 0.908183 7.26064 1.61911L8.00404 3.90706C8.06864 4.10573 8.10094 4.20506 8.16174 4.27855C8.21544 4.34345 8.28464 4.39373 8.36294 4.42473C8.45154 4.45984 8.55604 4.45984 8.76494 4.45984H11.1706C11.9181 4.45984 12.2918 4.45984 12.4362 4.59536C12.5609 4.71253 12.6171 4.88539 12.585 5.05353C12.5479 5.24799 12.2456 5.46768 11.6408 5.90706L9.69464 7.32108C9.52564 7.44387 9.44114 7.50526 9.39004 7.58579C9.34484 7.6569 9.31844 7.73826 9.31314 7.82231C9.30714 7.9175 9.33944 8.01684 9.40394 8.21551L10.1473 10.5035C10.3783 11.2144 10.4938 11.5699 10.4095 11.749C10.3367 11.9039 10.1896 12.0107 10.0198 12.0322C9.82343 12.057 9.52103 11.8373 8.91633 11.3979L6.97004 9.98387C6.80104 9.86107 6.71654 9.79967 6.62414 9.77597C6.54264 9.75497 6.45704 9.75497 6.37554 9.77597C6.28314 9.79967 6.19864 9.86107 6.02964 9.98387L4.08334 11.3979C3.47864 11.8373 3.17624 12.057 2.97984 12.0322C2.81004 12.0107 2.66294 11.9039 2.59014 11.749C2.50584 11.5699 2.62134 11.2144 2.85234 10.5035L3.59574 8.21551C3.66024 8.01684 3.69254 7.9175 3.68654 7.82231C3.68124 7.73826 3.65484 7.6569 3.60964 7.58579C3.55854 7.50526 3.47404 7.44387 3.30504 7.32108L1.35884 5.90706C0.754039 5.46768 0.451736 5.24799 0.414636 5.05353C0.382536 4.88539 0.438736 4.71253 0.563436 4.59536C0.707836 4.45984 1.08154 4.45984 1.82904 4.45984H4.23474C4.44364 4.45984 4.54814 4.45984 4.63674 4.42473C4.71504 4.39373 4.78423 4.34345 4.83793 4.27855C4.89873 4.20506 4.93103 4.10573 4.99563 3.90706L5.73903 1.61911Z" fill="black"/>
</svg>
