<svg width="124" height="32" viewBox="0 0 124 32" fill="none" xmlns="http://www.w3.org/2000/svg">
<path d="M36.8701 10.4772H39.8701V22.6072H36.8701V10.4772ZM41.0601 18.0272C41.0601 15.0272 42.9001 13.2372 45.7401 13.2372C48.5801 13.2372 50.4201 15.0272 50.4201 18.0272C50.4201 21.0272 48.6201 22.8272 45.7401 22.8272C42.8601 22.8272 41.0601 21.0772 41.0601 18.0272ZM47.4101 18.0272C47.4101 16.3772 46.7601 15.4072 45.7401 15.4072C44.7201 15.4072 44.0801 16.4072 44.0801 18.0272C44.0801 19.6472 44.7101 20.6272 45.7401 20.6272C46.7701 20.6272 47.4101 19.7072 47.4101 18.0372V18.0272ZM51.5501 23.1972H54.4301C54.5672 23.5017 54.7989 23.7538 55.0908 23.916C55.3827 24.0781 55.7192 24.1417 56.0501 24.0972C57.1901 24.0972 57.7901 23.4772 57.7901 22.5772V20.8972H57.7301C57.4911 21.4121 57.1032 21.8435 56.6166 22.1359C56.13 22.4282 55.5669 22.568 55.0001 22.5372C52.8101 22.5372 51.3601 20.8672 51.3601 17.9972C51.3601 15.1272 52.7401 13.3172 55.0401 13.3172C55.6247 13.2943 56.2023 13.4506 56.6956 13.7651C57.1889 14.0797 57.5743 14.5375 57.8001 15.0772V13.4072H60.8001V22.5072C60.8001 24.6972 58.8701 26.0572 56.0201 26.0572C53.3701 26.0572 51.7201 24.8672 51.5501 23.2072V23.1972ZM57.8001 18.0172C57.8001 16.5572 57.1301 15.6372 56.0701 15.6372C55.0101 15.6372 54.3601 16.5472 54.3601 18.0172C54.3601 19.4872 55.0001 20.3172 56.0701 20.3172C57.1401 20.3172 57.8001 19.5072 57.8001 18.0272V18.0172ZM61.9301 18.0172C61.9301 15.0172 63.7701 13.2272 66.6101 13.2272C69.4501 13.2272 71.3001 15.0172 71.3001 18.0172C71.3001 21.0172 69.5001 22.8172 66.6101 22.8172C63.7201 22.8172 61.9301 21.0772 61.9301 18.0272V18.0172ZM68.2801 18.0172C68.2801 16.3672 67.6301 15.3972 66.6101 15.3972C65.5901 15.3972 65.0001 16.4072 65.0001 18.0372C65.0001 19.6672 65.6301 20.6372 66.6501 20.6372C67.6701 20.6372 68.2801 19.7072 68.2801 18.0372V18.0172ZM72.4401 11.2272C72.4322 10.9243 72.5145 10.6259 72.6764 10.3698C72.8384 10.1137 73.0727 9.9115 73.3497 9.78874C73.6267 9.66598 73.9339 9.62823 74.2324 9.68028C74.5309 9.73234 74.8072 9.87185 75.0263 10.0811C75.2455 10.2904 75.3975 10.56 75.4632 10.8558C75.5289 11.1516 75.5053 11.4602 75.3953 11.7426C75.2854 12.0249 75.0941 12.2683 74.8457 12.4418C74.5974 12.6153 74.303 12.7112 74.0001 12.7172C73.7993 12.731 73.5978 12.7031 73.4083 12.6353C73.2187 12.5675 73.0453 12.4613 72.8988 12.3232C72.7523 12.1852 72.6359 12.0183 72.557 11.8331C72.478 11.648 72.4382 11.4485 72.4401 11.2472V11.2272ZM72.4401 13.4272H75.4401V22.6072H72.4401V13.4272ZM86.3301 18.0172C86.3301 21.0172 85.0001 22.7272 82.7201 22.7272C82.1355 22.7647 81.5534 22.6218 81.0526 22.3178C80.5518 22.0137 80.1565 21.5632 79.9201 21.0272H79.8601V25.5472H76.8601V13.4072H79.8601V15.0472H79.9201C80.1455 14.5023 80.5333 14.0401 81.0307 13.7234C81.5281 13.4067 82.111 13.2509 82.7001 13.2772C85.0001 13.3172 86.3701 15.0372 86.3701 18.0372L86.3301 18.0172ZM83.3301 18.0172C83.3301 16.5572 82.6601 15.6272 81.6101 15.6272C80.5601 15.6272 79.8901 16.5672 79.8801 18.0172C79.8701 19.4672 80.5601 20.3972 81.6101 20.3972C82.6601 20.3972 83.3301 19.4872 83.3301 18.0372V18.0172ZM91.4801 13.2172C93.9701 13.2172 95.4801 14.3972 95.5501 16.2872H92.8201C92.8201 15.6372 92.2801 15.2272 91.4501 15.2272C90.6201 15.2272 90.2501 15.5472 90.2501 16.0172C90.2501 16.4872 90.5801 16.6372 91.2501 16.7772L93.1701 17.1672C95.0001 17.5572 95.7801 18.2972 95.7801 19.6872C95.7801 21.5872 94.0501 22.8072 91.5001 22.8072C88.9501 22.8072 87.2801 21.5872 87.1501 19.7172H90.0401C90.1301 20.3972 90.6701 20.7972 91.5501 20.7972C92.4301 20.7972 92.8301 20.5072 92.8301 20.0272C92.8301 19.5472 92.5501 19.4472 91.8301 19.2972L90.1001 18.9272C88.3101 18.5572 87.3701 17.6072 87.3701 16.2072C87.3901 14.4072 89.0001 13.2372 91.4801 13.2372V13.2172ZM105.79 22.5872H102.9V20.8772H102.84C102.681 21.4513 102.331 21.9538 101.847 22.3013C101.363 22.6487 100.775 22.8202 100.18 22.7872C99.7243 22.8131 99.2683 22.7409 98.8428 22.5754C98.4173 22.4099 98.0323 22.1551 97.7138 21.828C97.3953 21.501 97.1506 21.1093 96.9965 20.6796C96.8423 20.2499 96.7822 19.7921 96.8201 19.3372V13.4072H99.8201V18.6472C99.8201 19.7372 100.38 20.3172 101.31 20.3172C101.528 20.3176 101.744 20.2715 101.943 20.1818C102.141 20.0921 102.319 19.9609 102.463 19.7971C102.606 19.6332 102.714 19.4405 102.777 19.2319C102.84 19.0232 102.859 18.8034 102.83 18.5872V13.4072H105.83L105.79 22.5872ZM107.24 13.4072H110.14V15.1772H110.2C110.359 14.6107 110.702 14.1129 111.174 13.7619C111.646 13.4109 112.222 13.2263 112.81 13.2372C113.409 13.1893 114.003 13.3684 114.476 13.739C114.948 14.1096 115.264 14.6444 115.36 15.2372H115.42C115.601 14.6381 115.977 14.1165 116.488 13.7544C116.998 13.3923 117.615 13.2103 118.24 13.2372C118.648 13.2235 119.054 13.2958 119.432 13.4494C119.811 13.6029 120.152 13.8344 120.435 14.1286C120.718 14.4229 120.936 14.7734 121.075 15.1573C121.213 15.5412 121.27 15.9501 121.24 16.3572V22.6072H118.24V17.1572C118.24 16.1572 117.79 15.6972 116.95 15.6972C116.763 15.6956 116.577 15.7342 116.406 15.8104C116.235 15.8866 116.082 15.9986 115.958 16.1389C115.834 16.2792 115.741 16.4444 115.686 16.6235C115.631 16.8027 115.616 16.9915 115.64 17.1772V22.6072H112.79V17.1172C112.79 16.1972 112.34 15.6972 111.52 15.6972C111.331 15.6973 111.143 15.7375 110.971 15.8152C110.798 15.893 110.643 16.0065 110.518 16.1482C110.392 16.2899 110.298 16.4567 110.241 16.6376C110.185 16.8184 110.167 17.0091 110.19 17.1972V22.6072H107.19L107.24 13.4072Z" fill="#394149"/>
<path d="M28.4801 11.0272C27.9712 9.86359 27.2977 8.77916 26.4801 7.80723C25.2716 6.32757 23.7634 5.12062 22.0548 4.26583C20.3462 3.41105 18.4759 2.9278 16.5671 2.84789C14.6583 2.76798 12.7542 3.09322 10.9801 3.80222C9.20607 4.51121 7.60226 5.58788 6.27429 6.96136C4.94631 8.33483 3.92426 9.97398 3.27541 11.7709C2.62656 13.5678 2.36561 15.4818 2.50975 17.3868C2.6539 19.2919 3.19985 21.1448 4.11169 22.8236C5.02353 24.5025 6.28059 25.9692 7.80011 27.1272C8.7751 27.8851 9.85246 28.5012 11.0001 28.9572C12.6091 29.6166 14.3312 29.9562 16.0701 29.9572C19.6595 29.9493 23.0993 28.5185 25.6356 25.9785C28.1718 23.4385 29.5975 19.9966 29.6001 16.4072C29.6027 14.5557 29.2214 12.7238 28.4801 11.0272ZM16.0601 5.59722C17.6217 5.59706 19.1644 5.93836 20.5801 6.59722C20.2349 6.74639 19.8719 6.85058 19.5001 6.90723C18.2767 7.08432 17.1434 7.6523 16.2693 8.5264C15.3952 9.40049 14.8272 10.5338 14.6501 11.7572C14.5724 12.4433 14.2603 13.0816 13.7666 13.5644C13.2729 14.0472 12.6278 14.3448 11.9401 14.4072C10.7167 14.5843 9.58336 15.1523 8.70927 16.0264C7.83518 16.9005 7.2672 18.0338 7.09011 19.2572C7.03015 19.9096 6.7518 20.5227 6.30011 20.9972C5.52076 19.3505 5.17065 17.5333 5.28237 15.7149C5.39409 13.8965 5.964 12.1359 6.93907 10.5969C7.91413 9.05802 9.26268 7.79074 10.8592 6.91307C12.4557 6.0354 14.2483 5.57587 16.0701 5.57722L16.0601 5.59722ZM7.7901 23.4072C7.9101 23.2972 8.03011 23.1972 8.1501 23.0772C9.03975 22.2147 9.61082 21.0761 9.7701 19.8472C9.83468 19.1564 10.1431 18.5112 10.6401 18.0272C11.1184 17.5294 11.7621 17.2235 12.4501 17.1672C13.6735 16.9901 14.8068 16.4221 15.6809 15.548C16.555 14.6739 17.123 13.5406 17.3001 12.3172C17.3434 11.5947 17.6534 10.914 18.1701 10.4072C18.6602 9.91908 19.31 9.62433 20.0001 9.57722C21.124 9.42259 22.1722 8.92294 23.0001 8.14723C23.9428 8.9293 24.7414 9.87012 25.3601 10.9272C25.3221 10.9785 25.2785 11.0255 25.2301 11.0672C24.7528 11.5694 24.1099 11.882 23.4201 11.9472C22.1954 12.1212 21.0604 12.6882 20.1857 13.5628C19.3111 14.4375 18.7441 15.5725 18.5701 16.7972C18.4996 17.4856 18.1933 18.1285 17.7031 18.6169C17.2128 19.1054 16.5688 19.4093 15.8801 19.4772C14.6531 19.6529 13.5156 20.2198 12.6364 21.0935C11.7573 21.9673 11.1834 23.1013 11.0001 24.3272C10.9463 24.8159 10.7784 25.2852 10.5101 25.6972C9.4841 25.088 8.5652 24.3144 7.7901 23.4072ZM16.0601 27.2672C15.0454 27.2683 14.0355 27.1269 13.0601 26.8472C13.3938 26.2252 13.6107 25.5473 13.7001 24.8472C13.7702 24.1603 14.0751 23.5186 14.5633 23.0304C15.0515 22.5422 15.6932 22.2373 16.3801 22.1672C17.6053 21.9921 18.7409 21.425 19.617 20.5507C20.493 19.6765 21.0625 18.542 21.2401 17.3172C21.3102 16.6303 21.6151 15.9886 22.1033 15.5004C22.5915 15.0122 23.2332 14.7073 23.9201 14.6372C24.8421 14.5173 25.7209 14.174 26.4801 13.6372C26.9017 15.2351 26.9516 16.9083 26.6261 18.5285C26.3006 20.1487 25.6082 21.6729 24.6022 22.984C23.5962 24.295 22.3033 25.3583 20.8225 26.0921C19.3418 26.8259 17.7127 27.2108 16.0601 27.2172V27.2672Z" fill="#394149"/>
</svg>
