<svg width="12" height="15" viewBox="0 0 12 15" fill="none" xmlns="http://www.w3.org/2000/svg">
<path d="M5.8667 0.768695C5.9987 0.741745 6.13741 0.755808 6.26318 0.80971L10.5249 2.63588L10.7007 2.72768C11.0897 2.96802 11.3334 3.39499 11.3335 3.86147V8.43373C11.3333 10.1082 10.4358 11.6547 8.98193 12.4855L6.33057 14.0011C6.12585 14.1179 5.87415 14.1179 5.66943 14.0011L3.01807 12.4855C1.56433 11.6547 0.666678 10.1081 0.666504 8.43373V3.86147C0.666561 3.32817 0.984919 2.84598 1.4751 2.63588L5.73779 0.80971L5.8667 0.768695ZM8.47217 5.61635C8.21193 5.35611 7.78918 5.35633 7.52881 5.61635L5.3335 7.81166L4.47217 6.95034L4.36768 6.8644C4.10901 6.69348 3.75668 6.72277 3.52881 6.95034C3.30127 7.17818 3.27299 7.52957 3.44385 7.78823L3.52881 7.89272L4.86279 9.22573L4.96729 9.31166C5.226 9.48213 5.57752 9.45338 5.80518 9.22573L8.47217 6.55971C8.73214 6.29939 8.73225 5.87661 8.47217 5.61635Z" fill="url(#paint0_linear_38216_1414)"/>
<defs>
<linearGradient id="paint0_linear_38216_1414" x1="-0.223585" y1="1.62402" x2="8.80868" y2="14.089" gradientUnits="userSpaceOnUse">
<stop stop-color="white"/>
<stop offset="0.350508" stop-color="#9573DE"/>
<stop offset="1" stop-color="white"/>
</linearGradient>
</defs>
</svg>
