<svg width="467" height="282" viewBox="0 0 467 282" fill="none" xmlns="http://www.w3.org/2000/svg">
<g filter="url(#filter0_d_38156_11515)">
<g clip-path="url(#clip0_38156_11515)">
<rect x="3.33337" y="100.952" width="197.428" height="86.3749" rx="3.29047" fill="white"/>
<path d="M175.261 117.678C174.507 117.678 173.89 118.295 173.89 119.049C173.89 119.804 174.507 120.421 175.261 120.421C176.015 120.421 176.632 119.804 176.632 119.049C176.632 118.295 176.015 117.678 175.261 117.678ZM183.487 117.678C182.733 117.678 182.116 118.295 182.116 119.049C182.116 119.804 182.733 120.421 183.487 120.421C184.241 120.421 184.858 119.804 184.858 119.049C184.858 118.295 184.241 117.678 183.487 117.678ZM179.374 117.678C178.62 117.678 178.003 118.295 178.003 119.049C178.003 119.804 178.62 120.421 179.374 120.421C180.128 120.421 180.745 119.804 180.745 119.049C180.745 118.295 180.128 117.678 179.374 117.678Z" fill="#84818A"/>
<rect x="3.33289" y="137.147" width="197.428" height="0.822618" fill="#EBEAED"/>
<rect x="16.4952" y="116.856" width="4.93571" height="4.93571" rx="1.64524" fill="#00A5FF"/>
<path d="M30.5782 123.823V115.531H31.7817V123.823H30.5782ZM34.081 123.823V117.385C34.081 117.228 34.0867 117.061 34.0982 116.884C34.1098 116.704 34.1424 116.527 34.1961 116.355C34.2537 116.178 34.3478 116.017 34.4783 115.871C34.6357 115.698 34.8084 115.575 34.9965 115.502C35.1846 115.43 35.3708 115.387 35.5551 115.376C35.7432 115.364 35.916 115.358 36.0733 115.358H36.8565V116.349H36.1309C35.8469 116.349 35.6338 116.42 35.4918 116.562C35.3536 116.7 35.2845 116.898 35.2845 117.155V123.823H34.081ZM33.0502 118.572V117.604H36.8565V118.572H33.0502ZM42.7393 123.996C42.1021 123.996 41.5608 123.854 41.1155 123.57C40.6702 123.286 40.3285 122.896 40.0905 122.401C39.8563 121.906 39.7373 121.343 39.7335 120.714C39.7373 120.073 39.8602 119.506 40.102 119.015C40.3439 118.52 40.6894 118.132 41.1385 117.852C41.5877 117.572 42.127 117.431 42.7566 117.431C43.4361 117.431 44.0158 117.6 44.4956 117.938C44.9793 118.276 45.2979 118.739 45.4515 119.326L44.2538 119.671C44.1348 119.322 43.939 119.052 43.6664 118.86C43.3977 118.664 43.0887 118.566 42.7393 118.566C42.3439 118.566 42.0195 118.66 41.7662 118.848C41.5128 119.032 41.3247 119.286 41.2019 119.608C41.079 119.931 41.0157 120.299 41.0118 120.714C41.0157 121.355 41.1616 121.873 41.4495 122.268C41.7412 122.664 42.1712 122.862 42.7393 122.862C43.1271 122.862 43.4399 122.773 43.6779 122.597C43.9198 122.416 44.1041 122.159 44.2307 121.825L45.4515 122.113C45.248 122.72 44.9121 123.186 44.4438 123.512C43.9755 123.835 43.4073 123.996 42.7393 123.996ZM50.9894 123.823V120.766C50.9894 120.524 50.9683 120.276 50.9261 120.023C50.8877 119.766 50.8109 119.528 50.6957 119.309C50.5844 119.09 50.4251 118.913 50.2178 118.779C50.0143 118.645 49.7475 118.577 49.4174 118.577C49.2024 118.577 48.9989 118.614 48.807 118.687C48.615 118.756 48.4461 118.869 48.3003 119.027C48.1582 119.184 48.045 119.391 47.9605 119.648C47.8799 119.906 47.8396 120.219 47.8396 120.587L47.091 120.305C47.091 119.741 47.1966 119.243 47.4077 118.813C47.6189 118.38 47.9221 118.042 48.3175 117.8C48.7129 117.558 49.1909 117.437 49.7514 117.437C50.1813 117.437 50.5422 117.506 50.8339 117.645C51.1257 117.783 51.3618 117.965 51.5422 118.192C51.7265 118.414 51.8666 118.658 51.9626 118.923C52.0585 119.188 52.1238 119.447 52.1583 119.7C52.1929 119.954 52.2102 120.176 52.2102 120.368V123.823H50.9894ZM46.6188 123.823V115.531H47.6956V120.005H47.8396V123.823H46.6188ZM56.4107 123.996C55.7888 123.996 55.2494 123.856 54.7926 123.576C54.3358 123.295 53.9826 122.91 53.7331 122.418C53.4874 121.923 53.3645 121.353 53.3645 120.708C53.3645 120.059 53.4912 119.489 53.7446 118.998C53.9979 118.503 54.353 118.119 54.8099 117.846C55.2667 117.57 55.8003 117.431 56.4107 117.431C57.0326 117.431 57.5719 117.572 58.0288 117.852C58.4856 118.132 58.8388 118.518 59.0883 119.009C59.3378 119.501 59.4626 120.067 59.4626 120.708C59.4626 121.357 59.3359 121.929 59.0825 122.424C58.833 122.915 58.4798 123.301 58.023 123.581C57.5662 123.858 57.0287 123.996 56.4107 123.996ZM56.4107 122.862C57.0057 122.862 57.4491 122.662 57.7409 122.263C58.0365 121.86 58.1842 121.341 58.1842 120.708C58.1842 120.059 58.0345 119.541 57.7351 119.153C57.4395 118.762 56.998 118.566 56.4107 118.566C56.0076 118.566 55.6755 118.658 55.4145 118.842C55.1534 119.023 54.9596 119.274 54.8329 119.597C54.7062 119.915 54.6429 120.286 54.6429 120.708C54.6429 121.361 54.7926 121.883 55.092 122.274C55.3915 122.666 55.831 122.862 56.4107 122.862ZM63.4286 123.996C62.8067 123.996 62.2674 123.856 61.8106 123.576C61.3537 123.295 61.0006 122.91 60.751 122.418C60.5053 121.923 60.3825 121.353 60.3825 120.708C60.3825 120.059 60.5092 119.489 60.7625 118.998C61.0159 118.503 61.371 118.119 61.8278 117.846C62.2847 117.57 62.8183 117.431 63.4286 117.431C64.0505 117.431 64.5899 117.572 65.0467 117.852C65.5036 118.132 65.8567 118.518 66.1063 119.009C66.3558 119.501 66.4806 120.067 66.4806 120.708C66.4806 121.357 66.3539 121.929 66.1005 122.424C65.851 122.915 65.4978 123.301 65.041 123.581C64.5842 123.858 64.0467 123.996 63.4286 123.996ZM63.4286 122.862C64.0237 122.862 64.4671 122.662 64.7588 122.263C65.0544 121.86 65.2022 121.341 65.2022 120.708C65.2022 120.059 65.0525 119.541 64.7531 119.153C64.4575 118.762 64.016 118.566 63.4286 118.566C63.0256 118.566 62.6935 118.658 62.4325 118.842C62.1714 119.023 61.9775 119.274 61.8509 119.597C61.7242 119.915 61.6608 120.286 61.6608 120.708C61.6608 121.361 61.8106 121.883 62.11 122.274C62.4094 122.666 62.849 122.862 63.4286 122.862ZM70.0117 123.99C69.2554 123.99 68.6393 123.823 68.1633 123.489C67.6872 123.155 67.3955 122.685 67.288 122.078L68.5203 121.888C68.597 122.211 68.7736 122.466 69.05 122.654C69.3303 122.839 69.6777 122.931 70.0923 122.931C70.4685 122.931 70.7622 122.854 70.9733 122.7C71.1883 122.547 71.2958 122.336 71.2958 122.067C71.2958 121.91 71.2574 121.783 71.1806 121.687C71.1077 121.587 70.9522 121.493 70.7142 121.405C70.4762 121.316 70.1134 121.207 69.6259 121.077C69.0923 120.938 68.6681 120.791 68.3533 120.633C68.0423 120.472 67.8197 120.286 67.6853 120.075C67.5548 119.86 67.4895 119.6 67.4895 119.297C67.4895 118.921 67.5893 118.593 67.789 118.313C67.9886 118.032 68.2688 117.815 68.6297 117.662C68.9944 117.508 69.4205 117.431 69.908 117.431C70.384 117.431 70.8082 117.506 71.1806 117.656C71.553 117.806 71.8543 118.019 72.0847 118.295C72.315 118.568 72.4532 118.888 72.4993 119.257L71.267 119.481C71.2248 119.182 71.0846 118.946 70.8466 118.773C70.6086 118.6 70.2996 118.506 69.9195 118.491C69.5548 118.476 69.2593 118.537 69.0328 118.675C68.8063 118.81 68.693 118.996 68.693 119.234C68.693 119.372 68.7352 119.489 68.8197 119.585C68.908 119.681 69.0769 119.773 69.3264 119.862C69.576 119.95 69.9445 120.055 70.432 120.178C70.9541 120.313 71.3687 120.462 71.6758 120.627C71.9829 120.789 72.2018 120.982 72.3323 121.209C72.4666 121.432 72.5338 121.702 72.5338 122.021C72.5338 122.635 72.3092 123.117 71.8601 123.466C71.4148 123.816 70.7986 123.99 70.0117 123.99ZM76.5662 123.996C75.9481 123.996 75.4049 123.862 74.9366 123.593C74.4721 123.32 74.1093 122.942 73.8483 122.459C73.591 121.971 73.4624 121.407 73.4624 120.766C73.4624 120.086 73.5891 119.497 73.8425 118.998C74.0997 118.499 74.4567 118.113 74.9135 117.84C75.3704 117.568 75.9021 117.431 76.5086 117.431C77.142 117.431 77.6814 117.579 78.1267 117.875C78.572 118.167 78.9041 118.583 79.1229 119.124C79.3455 119.666 79.4338 120.309 79.3878 121.053H78.1843V120.616C78.1766 119.894 78.0384 119.361 77.7697 119.015C77.5048 118.67 77.0998 118.497 76.5547 118.497C75.952 118.497 75.499 118.687 75.1957 119.067C74.8924 119.447 74.7408 119.996 74.7408 120.714C74.7408 121.397 74.8924 121.927 75.1957 122.303C75.499 122.675 75.9366 122.862 76.5086 122.862C76.8848 122.862 77.2092 122.777 77.4818 122.608C77.7582 122.435 77.9731 122.19 78.1267 121.871L79.3071 122.245C79.0653 122.802 78.6987 123.234 78.2073 123.541C77.7159 123.844 77.1689 123.996 76.5662 123.996ZM74.3492 121.053V120.115H78.7889V121.053H74.3492ZM84.2924 118.301C83.8778 118.37 83.5611 118.289 83.3423 118.059C83.1235 117.829 83.0141 117.487 83.0141 117.034V115.531H84.2924V116.919H83.6245C83.6091 117.084 83.6149 117.232 83.6417 117.362C83.6724 117.493 83.7339 117.597 83.826 117.673C83.9181 117.746 84.0487 117.775 84.2176 117.76L84.2924 118.301ZM85.4461 123.823L88.141 115.531H89.8742L92.5691 123.823H91.3196L88.8377 116.257H89.1487L86.6956 123.823H85.4461ZM86.8453 121.952V120.823H91.1756V121.952H86.8453ZM92.7951 118.295L92.87 117.76C93.0351 117.771 93.1637 117.741 93.2558 117.668C93.3479 117.595 93.4094 117.493 93.4401 117.362C93.4708 117.232 93.4765 117.084 93.4573 116.919H92.7951V115.531H94.0677V117.034C94.0677 117.487 93.9583 117.829 93.7395 118.059C93.5245 118.289 93.2097 118.368 92.7951 118.295Z" fill="#84818A"/>
<path d="M20.6583 164.304C20.0901 164.304 19.5719 164.205 19.1035 164.005C18.6352 163.805 18.2321 163.519 17.8943 163.147C17.5564 162.771 17.2954 162.318 17.1111 161.788C16.9307 161.254 16.8405 160.654 16.8405 159.986C16.8405 159.103 16.9979 158.339 17.3127 157.694C17.6275 157.049 18.0709 156.552 18.6429 156.202C19.2148 155.849 19.8867 155.673 20.6583 155.673C21.5873 155.673 22.3359 155.89 22.904 156.323C23.4722 156.753 23.8637 157.343 24.0787 158.091L23.0422 158.304C22.8695 157.801 22.5854 157.4 22.19 157.101C21.7946 156.801 21.3013 156.652 20.7101 156.652C20.092 156.648 19.5776 156.786 19.1669 157.066C18.7599 157.343 18.4528 157.732 18.2455 158.235C18.0382 158.738 17.9327 159.321 17.9288 159.986C17.925 160.646 18.0267 161.226 18.234 161.725C18.4413 162.224 18.7503 162.615 19.1611 162.899C19.5757 163.18 20.092 163.322 20.7101 163.325C21.2437 163.329 21.6928 163.228 22.0575 163.02C22.4222 162.813 22.7044 162.514 22.904 162.122C23.1036 161.73 23.2246 161.26 23.2668 160.711H21.5047V159.865H24.3494C24.3609 159.941 24.3666 160.034 24.3666 160.141C24.3705 160.245 24.3724 160.316 24.3724 160.354C24.3724 161.11 24.2303 161.788 23.9463 162.387C23.666 162.982 23.2495 163.45 22.6967 163.792C22.1478 164.134 21.4683 164.304 20.6583 164.304ZM25.5225 164.132V157.913H26.4381V159.416L26.2884 159.22C26.3613 159.028 26.4554 158.851 26.5705 158.69C26.6895 158.529 26.822 158.396 26.9679 158.293C27.1291 158.162 27.3114 158.062 27.5149 157.993C27.7184 157.924 27.9257 157.884 28.1368 157.872C28.3479 157.857 28.5456 157.87 28.7299 157.913V158.874C28.5149 158.817 28.2788 158.801 28.0216 158.828C27.7644 158.855 27.5264 158.949 27.3076 159.11C27.108 159.252 26.9525 159.425 26.8412 159.629C26.7337 159.832 26.6588 160.053 26.6166 160.291C26.5744 160.525 26.5533 160.765 26.5533 161.011V164.132H25.5225ZM32.4012 164.304C31.7908 164.304 31.2572 164.17 30.8004 163.901C30.3474 163.629 29.9942 163.251 29.7409 162.767C29.4875 162.279 29.3608 161.711 29.3608 161.062C29.3608 160.383 29.4856 159.796 29.7351 159.3C29.9846 158.801 30.332 158.417 30.7774 158.149C31.2265 157.876 31.7524 157.74 32.3551 157.74C32.9809 157.74 33.5126 157.884 33.9502 158.172C34.3917 158.46 34.7218 158.87 34.9406 159.404C35.1633 159.938 35.2593 160.573 35.2285 161.31H34.192V160.941C34.1805 160.178 34.0251 159.607 33.7256 159.231C33.4262 158.851 32.9809 158.661 32.3897 158.661C31.7563 158.661 31.2745 158.865 30.9444 159.272C30.6142 159.678 30.4491 160.262 30.4491 161.022C30.4491 161.755 30.6142 162.323 30.9444 162.727C31.2745 163.13 31.7448 163.331 32.3551 163.331C32.7659 163.331 33.1229 163.237 33.4262 163.049C33.7295 162.861 33.9675 162.59 34.1402 162.237L35.1249 162.577C34.883 163.126 34.5184 163.552 34.0308 163.855C33.5471 164.155 33.0039 164.304 32.4012 164.304ZM30.1036 161.31V160.487H34.6988V161.31H30.1036ZM38.1659 164.304C37.7014 164.304 37.3118 164.22 36.997 164.051C36.686 163.878 36.4499 163.652 36.2887 163.371C36.1313 163.091 36.0526 162.784 36.0526 162.45C36.0526 162.124 36.114 161.842 36.2369 161.604C36.3636 161.362 36.5402 161.162 36.7667 161.005C36.9931 160.844 37.2638 160.717 37.5786 160.625C37.8742 160.544 38.2043 160.475 38.569 160.417C38.9375 160.356 39.3099 160.3 39.6861 160.25C40.0623 160.201 40.4136 160.153 40.7399 160.107L40.3714 160.32C40.3829 159.767 40.2716 159.358 40.0374 159.093C39.807 158.828 39.4078 158.696 38.8396 158.696C38.4634 158.696 38.1333 158.782 37.8492 158.955C37.569 159.124 37.3713 159.4 37.2561 159.784L36.283 159.49C36.4327 158.945 36.7225 158.517 37.1525 158.206C37.5824 157.895 38.1486 157.74 38.8512 157.74C39.4155 157.74 39.8992 157.842 40.3023 158.045C40.7092 158.245 41.0009 158.548 41.1775 158.955C41.2658 159.147 41.3215 159.356 41.3445 159.583C41.3676 159.805 41.3791 160.039 41.3791 160.285V164.132H40.4693V162.64L40.6823 162.778C40.4481 163.281 40.1199 163.661 39.6976 163.919C39.2792 164.176 38.7686 164.304 38.1659 164.304ZM38.3214 163.446C38.6899 163.446 39.0086 163.381 39.2773 163.251C39.5498 163.116 39.7687 162.942 39.9337 162.727C40.0988 162.508 40.2063 162.27 40.2562 162.013C40.3138 161.821 40.3445 161.608 40.3483 161.373C40.356 161.135 40.3598 160.953 40.3598 160.826L40.7169 160.982C40.3829 161.028 40.0547 161.072 39.7322 161.114C39.4097 161.156 39.1045 161.203 38.8166 161.252C38.5287 161.298 38.2696 161.354 38.0392 161.419C37.8703 161.473 37.711 161.542 37.5613 161.627C37.4154 161.711 37.2964 161.821 37.2043 161.955C37.116 162.085 37.0718 162.249 37.0718 162.444C37.0718 162.613 37.1141 162.775 37.1985 162.928C37.2868 163.082 37.4212 163.206 37.6016 163.302C37.7859 163.398 38.0258 163.446 38.3214 163.446ZM46.3485 164.132C45.98 164.205 45.6153 164.233 45.2544 164.218C44.8974 164.206 44.5788 164.135 44.2985 164.005C44.0183 163.871 43.8052 163.663 43.6594 163.383C43.5365 163.137 43.4693 162.89 43.4578 162.64C43.4501 162.387 43.4463 162.101 43.4463 161.782V156.185H44.4713V161.736C44.4713 161.989 44.4732 162.206 44.4771 162.387C44.4847 162.567 44.525 162.723 44.598 162.853C44.7362 163.099 44.955 163.243 45.2544 163.285C45.5577 163.327 45.9224 163.316 46.3485 163.251V164.132ZM42.1852 158.759V157.913H46.3485V158.759H42.1852ZM48.1869 164.132V163.072H49.2119V164.132H48.1869ZM48.1869 162.059V155.84H49.2119V162.059H48.1869ZM53.822 164.132V155.84H54.847V163.158H58.6936V164.132H53.822ZM62.3625 164.304C61.7521 164.304 61.2185 164.17 60.7617 163.901C60.3087 163.629 59.9555 163.251 59.7022 162.767C59.4488 162.279 59.3221 161.711 59.3221 161.062C59.3221 160.383 59.4469 159.796 59.6964 159.3C59.9459 158.801 60.2934 158.417 60.7387 158.149C61.1878 157.876 61.7137 157.74 62.3164 157.74C62.9422 157.74 63.4739 157.884 63.9115 158.172C64.353 158.46 64.6831 158.87 64.9019 159.404C65.1246 159.938 65.2206 160.573 65.1898 161.31H64.1534V160.941C64.1418 160.178 63.9864 159.607 63.6869 159.231C63.3875 158.851 62.9422 158.661 62.351 158.661C61.7176 158.661 61.2358 158.865 60.9057 159.272C60.5755 159.678 60.4104 160.262 60.4104 161.022C60.4104 161.755 60.5755 162.323 60.9057 162.727C61.2358 163.13 61.7061 163.331 62.3164 163.331C62.7272 163.331 63.0842 163.237 63.3875 163.049C63.6908 162.861 63.9288 162.59 64.1015 162.237L65.0862 162.577C64.8443 163.126 64.4797 163.552 63.9921 163.855C63.5084 164.155 62.9652 164.304 62.3625 164.304ZM60.0649 161.31V160.487H64.6601V161.31H60.0649ZM69.9442 164.132C69.5756 164.205 69.2109 164.233 68.8501 164.218C68.4931 164.206 68.1744 164.135 67.8942 164.005C67.614 163.871 67.4009 163.663 67.255 163.383C67.1322 163.137 67.065 162.89 67.0535 162.64C67.0458 162.387 67.042 162.101 67.042 161.782V156.185H68.0669V161.736C68.0669 161.989 68.0689 162.206 68.0727 162.387C68.0804 162.567 68.1207 162.723 68.1936 162.853C68.3318 163.099 68.5506 163.243 68.8501 163.285C69.1533 163.327 69.518 163.316 69.9442 163.251V164.132ZM65.7809 158.759V157.913H69.9442V158.759H65.7809ZM80.9463 164.132L80.9521 160.153C80.9521 159.688 80.8273 159.325 80.5778 159.064C80.3321 158.799 80.0116 158.667 79.6162 158.667C79.3858 158.667 79.167 158.721 78.9597 158.828C78.7524 158.932 78.5835 159.097 78.453 159.323C78.3225 159.546 78.2572 159.832 78.2572 160.181L77.7159 159.963C77.7082 159.521 77.7985 159.135 77.9866 158.805C78.1785 158.471 78.4396 158.212 78.7697 158.028C79.0998 157.843 79.4722 157.751 79.8868 157.751C80.5356 157.751 81.0462 157.949 81.4185 158.344C81.7909 158.736 81.9771 159.264 81.9771 159.928L81.9713 164.132H80.9463ZM73.5066 164.132V157.913H74.4222V159.577H74.5373V164.132H73.5066ZM77.2322 164.132L77.238 160.193C77.238 159.717 77.1151 159.345 76.8694 159.076C76.6238 158.803 76.2975 158.667 75.8905 158.667C75.4874 158.667 75.1611 158.805 74.9116 159.082C74.6621 159.358 74.5373 159.725 74.5373 160.181L73.996 159.859C73.996 159.456 74.092 159.095 74.284 158.776C74.4759 158.458 74.7369 158.208 75.0671 158.028C75.3972 157.843 75.7715 157.751 76.19 157.751C76.6084 157.751 76.9731 157.84 77.284 158.016C77.595 158.193 77.8349 158.446 78.0038 158.776C78.1728 159.103 78.2572 159.492 78.2572 159.945L78.2514 164.132H77.2322ZM86.1156 164.304C85.5052 164.304 84.9716 164.17 84.5148 163.901C84.0618 163.629 83.7086 163.251 83.4553 162.767C83.2019 162.279 83.0752 161.711 83.0752 161.062C83.0752 160.383 83.2 159.796 83.4495 159.3C83.699 158.801 84.0465 158.417 84.4918 158.149C84.9409 157.876 85.4668 157.74 86.0695 157.74C86.6953 157.74 87.227 157.884 87.6646 158.172C88.1061 158.46 88.4362 158.87 88.655 159.404C88.8777 159.938 88.9737 160.573 88.943 161.31H87.9065V160.941C87.8949 160.178 87.7395 159.607 87.44 159.231C87.1406 158.851 86.6953 158.661 86.1041 158.661C85.4707 158.661 84.9889 158.865 84.6588 159.272C84.3286 159.678 84.1635 160.262 84.1635 161.022C84.1635 161.755 84.3286 162.323 84.6588 162.727C84.9889 163.13 85.4592 163.331 86.0695 163.331C86.4803 163.331 86.8373 163.237 87.1406 163.049C87.4439 162.861 87.6819 162.59 87.8546 162.237L88.8393 162.577C88.5975 163.126 88.2328 163.552 87.7452 163.855C87.2615 164.155 86.7183 164.304 86.1156 164.304ZM83.818 161.31V160.487H88.4132V161.31H83.818ZM96.9587 164.132V161.016C96.9587 160.721 96.9319 160.437 96.8781 160.164C96.8282 159.892 96.738 159.648 96.6075 159.433C96.4808 159.214 96.308 159.041 96.0892 158.915C95.8742 158.788 95.6017 158.725 95.2715 158.725C95.0143 158.725 94.7802 158.769 94.569 158.857C94.3617 158.941 94.1832 159.072 94.0335 159.249C93.8838 159.425 93.7667 159.648 93.6822 159.916C93.6016 160.181 93.5613 160.494 93.5613 160.855L92.8876 160.648C92.8876 160.045 92.9951 159.529 93.2101 159.099C93.4289 158.665 93.7341 158.333 94.1256 158.103C94.521 157.868 94.9855 157.751 95.5191 157.751C95.9222 157.751 96.2658 157.815 96.5499 157.941C96.834 158.068 97.0701 158.237 97.2582 158.448C97.4463 158.655 97.5941 158.89 97.7015 159.151C97.809 159.408 97.8839 159.671 97.9261 159.94C97.9722 160.204 97.9952 160.456 97.9952 160.694V164.132H96.9587ZM92.5248 164.132V155.84H93.4461V160.417H93.5613V164.132H92.5248ZM102.187 164.304C101.577 164.304 101.043 164.17 100.586 163.901C100.133 163.629 99.7802 163.251 99.5269 162.767C99.2735 162.279 99.1468 161.711 99.1468 161.062C99.1468 160.383 99.2716 159.796 99.5211 159.3C99.7706 158.801 100.118 158.417 100.563 158.149C101.012 157.876 101.538 157.74 102.141 157.74C102.767 157.74 103.299 157.884 103.736 158.172C104.178 158.46 104.508 158.87 104.727 159.404C104.949 159.938 105.045 160.573 105.015 161.31H103.978V160.941C103.967 160.178 103.811 159.607 103.512 159.231C103.212 158.851 102.767 158.661 102.176 158.661C101.542 158.661 101.06 158.865 100.73 159.272C100.4 159.678 100.235 160.262 100.235 161.022C100.235 161.755 100.4 162.323 100.73 162.727C101.06 163.13 101.531 163.331 102.141 163.331C102.552 163.331 102.909 163.237 103.212 163.049C103.515 162.861 103.753 162.59 103.926 162.237L104.911 162.577C104.669 163.126 104.304 163.552 103.817 163.855C103.333 164.155 102.79 164.304 102.187 164.304ZM99.8896 161.31V160.487H104.485V161.31H99.8896ZM106.412 164.132V155.667H107.437V164.132H106.412ZM112.021 164.304C111.437 164.304 110.946 164.16 110.546 163.872C110.147 163.581 109.844 163.187 109.637 162.692C109.433 162.193 109.331 161.634 109.331 161.016C109.331 160.391 109.433 159.83 109.637 159.335C109.844 158.84 110.147 158.45 110.546 158.166C110.95 157.882 111.443 157.74 112.026 157.74C112.602 157.74 113.097 157.884 113.512 158.172C113.93 158.456 114.251 158.845 114.474 159.341C114.696 159.836 114.808 160.394 114.808 161.016C114.808 161.638 114.696 162.197 114.474 162.692C114.251 163.187 113.93 163.581 113.512 163.872C113.097 164.16 112.6 164.304 112.021 164.304ZM109.159 166.896V157.913H110.074V162.49H110.189V166.896H109.159ZM111.894 163.366C112.305 163.366 112.644 163.262 112.913 163.055C113.182 162.847 113.383 162.567 113.518 162.214C113.652 161.857 113.719 161.458 113.719 161.016C113.719 160.579 113.652 160.183 113.518 159.83C113.387 159.477 113.184 159.197 112.907 158.989C112.635 158.782 112.287 158.678 111.865 158.678C111.462 158.678 111.128 158.778 110.863 158.978C110.598 159.174 110.401 159.448 110.27 159.801C110.14 160.151 110.074 160.556 110.074 161.016C110.074 161.469 110.138 161.874 110.264 162.231C110.395 162.585 110.594 162.863 110.863 163.066C111.132 163.266 111.476 163.366 111.894 163.366ZM119.239 166.896L120.443 163.625L120.46 164.592L117.742 157.913H118.819L120.95 163.285H120.581L122.579 157.913H123.621L120.236 166.896H119.239ZM126.996 164.304C126.378 164.304 125.845 164.164 125.396 163.884C124.95 163.604 124.607 163.216 124.365 162.721C124.123 162.226 124.002 161.657 124.002 161.016C124.002 160.364 124.125 159.792 124.371 159.3C124.616 158.809 124.964 158.427 125.413 158.154C125.862 157.878 126.39 157.74 126.996 157.74C127.618 157.74 128.154 157.88 128.603 158.16C129.052 158.437 129.396 158.822 129.634 159.318C129.876 159.809 129.997 160.375 129.997 161.016C129.997 161.665 129.876 162.237 129.634 162.732C129.392 163.224 129.046 163.61 128.597 163.89C128.148 164.166 127.614 164.304 126.996 164.304ZM126.996 163.331C127.641 163.331 128.121 163.116 128.436 162.686C128.751 162.256 128.908 161.7 128.908 161.016C128.908 160.314 128.749 159.755 128.43 159.341C128.112 158.922 127.634 158.713 126.996 158.713C126.563 158.713 126.206 158.811 125.925 159.007C125.645 159.202 125.436 159.473 125.298 159.819C125.16 160.164 125.09 160.563 125.09 161.016C125.09 161.715 125.252 162.275 125.574 162.698C125.897 163.12 126.371 163.331 126.996 163.331ZM133.625 164.293C133.226 164.293 132.882 164.229 132.595 164.103C132.31 163.976 132.074 163.807 131.886 163.596C131.698 163.385 131.55 163.151 131.443 162.894C131.335 162.636 131.259 162.373 131.213 162.105C131.17 161.836 131.149 161.584 131.149 161.35V157.913H132.186V161.028C132.186 161.32 132.213 161.602 132.266 161.874C132.32 162.147 132.41 162.393 132.537 162.611C132.667 162.83 132.84 163.003 133.055 163.13C133.274 163.256 133.547 163.32 133.873 163.32C134.13 163.32 134.364 163.276 134.575 163.187C134.787 163.099 134.967 162.968 135.117 162.796C135.266 162.619 135.382 162.396 135.462 162.128C135.543 161.859 135.583 161.546 135.583 161.189L136.257 161.396C136.257 161.995 136.147 162.512 135.929 162.945C135.714 163.379 135.408 163.713 135.013 163.947C134.621 164.178 134.159 164.293 133.625 164.293ZM135.698 164.132V162.467H135.583V157.913H136.614V164.132H135.698Z" fill="#2E2C34"/>
</g>
</g>
<g filter="url(#filter1_d_38156_11515)">
<g clip-path="url(#clip1_38156_11515)">
<rect x="266.572" y="2.23779" width="197.428" height="86.3749" rx="3.29047" fill="white"/>
<path d="M438.499 18.9641C437.745 18.9641 437.128 19.5811 437.128 20.3351C437.128 21.0892 437.745 21.7062 438.499 21.7062C439.253 21.7062 439.87 21.0892 439.87 20.3351C439.87 19.5811 439.253 18.9641 438.499 18.9641ZM446.725 18.9641C445.971 18.9641 445.354 19.5811 445.354 20.3351C445.354 21.0892 445.971 21.7062 446.725 21.7062C447.479 21.7062 448.096 21.0892 448.096 20.3351C448.096 19.5811 447.479 18.9641 446.725 18.9641ZM442.612 18.9641C441.858 18.9641 441.241 19.5811 441.241 20.3351C441.241 21.0892 441.858 21.7062 442.612 21.7062C443.366 21.7062 443.983 21.0892 443.983 20.3351C443.983 19.5811 443.366 18.9641 442.612 18.9641Z" fill="#84818A"/>
<rect x="266.571" y="38.4329" width="197.428" height="0.822618" fill="#EBEAED"/>
<rect x="279.733" y="18.1414" width="4.93571" height="4.93571" rx="1.64524" fill="#00A5FF"/>
<path d="M297.162 25.2816C296.333 25.2816 295.626 25.1012 295.043 24.7404C294.459 24.3757 294.012 23.8689 293.701 23.2202C293.394 22.5714 293.241 21.819 293.241 20.9629C293.241 20.1068 293.394 19.3544 293.701 18.7056C294.012 18.0569 294.459 17.552 295.043 17.1912C295.626 16.8265 296.333 16.6441 297.162 16.6441C297.987 16.6441 298.692 16.8265 299.275 17.1912C299.863 17.552 300.31 18.0569 300.617 18.7056C300.924 19.3544 301.078 20.1068 301.078 20.9629C301.078 21.819 300.924 22.5714 300.617 23.2202C300.31 23.8689 299.863 24.3757 299.275 24.7404C298.692 25.1012 297.987 25.2816 297.162 25.2816ZM297.162 24.1357C297.749 24.1434 298.237 24.0148 298.625 23.7499C299.016 23.4812 299.31 23.1088 299.506 22.6328C299.701 22.1529 299.799 21.5963 299.799 20.9629C299.799 20.3295 299.701 19.7767 299.506 19.3045C299.31 18.8285 299.016 18.458 298.625 18.1931C298.237 17.9283 297.749 17.7939 297.162 17.7901C296.575 17.7824 296.085 17.911 295.694 18.1759C295.306 18.4407 295.014 18.8131 294.818 19.293C294.623 19.7728 294.523 20.3295 294.519 20.9629C294.515 21.5963 294.611 22.151 294.807 22.627C295.003 23.0992 295.296 23.4678 295.688 23.7326C296.083 23.9975 296.575 24.1319 297.162 24.1357ZM305.146 25.2816C304.551 25.2816 304.052 25.1377 303.649 24.8498C303.245 24.558 302.94 24.1645 302.733 23.6693C302.526 23.1741 302.422 22.6155 302.422 21.9936C302.422 21.3717 302.524 20.8132 302.727 20.318C302.934 19.8227 303.238 19.4331 303.637 19.149C304.04 18.8611 304.535 18.7171 305.123 18.7171C305.706 18.7171 306.209 18.8611 306.631 19.149C307.057 19.4331 307.386 19.8227 307.616 20.318C307.846 20.8093 307.962 21.3679 307.962 21.9936C307.962 22.6155 307.846 23.176 307.616 23.6751C307.39 24.1703 307.065 24.5618 306.643 24.8498C306.224 25.1377 305.725 25.2816 305.146 25.2816ZM302.22 27.8729V18.8899H303.292V23.3641H303.43V27.8729H302.22ZM304.979 24.1933C305.363 24.1933 305.679 24.0954 305.929 23.8996C306.182 23.7039 306.37 23.4409 306.493 23.1107C306.62 22.7768 306.683 22.4044 306.683 21.9936C306.683 21.5867 306.62 21.2182 306.493 20.888C306.37 20.5579 306.18 20.2949 305.923 20.0991C305.666 19.9034 305.338 19.8055 304.938 19.8055C304.562 19.8055 304.251 19.8976 304.006 20.0819C303.764 20.2661 303.583 20.5233 303.464 20.8535C303.349 21.1836 303.292 21.5637 303.292 21.9936C303.292 22.4236 303.349 22.8036 303.464 23.1338C303.579 23.4639 303.762 23.723 304.011 23.9112C304.261 24.0993 304.583 24.1933 304.979 24.1933ZM312.792 25.1089C312.4 25.1857 312.016 25.2183 311.64 25.2068C311.264 25.1953 310.928 25.1223 310.632 24.988C310.337 24.8536 310.114 24.6425 309.964 24.3545C309.83 24.0973 309.757 23.8363 309.745 23.5714C309.738 23.3027 309.734 22.9994 309.734 22.6616V17.1624H310.943V22.604C310.943 22.8535 310.945 23.0704 310.949 23.2547C310.957 23.439 310.997 23.5944 311.07 23.7211C311.208 23.9591 311.427 24.0954 311.726 24.13C312.03 24.1607 312.385 24.1472 312.792 24.0897V25.1089ZM308.542 19.8573V18.8899H312.792V19.8573H308.542ZM314.218 17.8707V16.7017H315.421V17.8707H314.218ZM314.218 25.1089V18.8899H315.421V25.1089H314.218ZM319.851 25.2816C319.229 25.2816 318.69 25.1415 318.233 24.8613C317.776 24.581 317.423 24.1952 317.174 23.7039C316.928 23.2086 316.805 22.6386 316.805 21.9936C316.805 21.3449 316.932 20.7748 317.185 20.2834C317.439 19.7882 317.794 19.4043 318.25 19.1317C318.707 18.8553 319.241 18.7171 319.851 18.7171C320.473 18.7171 321.013 18.8573 321.469 19.1375C321.926 19.4177 322.279 19.8035 322.529 20.2949C322.778 20.7863 322.903 21.3525 322.903 21.9936C322.903 22.6424 322.777 23.2144 322.523 23.7096C322.274 24.201 321.92 24.5868 321.464 24.867C321.007 25.1434 320.469 25.2816 319.851 25.2816ZM319.851 24.1472C320.446 24.1472 320.89 23.9476 321.181 23.5484C321.477 23.1453 321.625 22.627 321.625 21.9936C321.625 21.3449 321.475 20.8266 321.176 20.4389C320.88 20.0473 320.439 19.8515 319.851 19.8515C319.448 19.8515 319.116 19.9437 318.855 20.1279C318.594 20.3084 318.4 20.5598 318.274 20.8823C318.147 21.2009 318.083 21.5714 318.083 21.9936C318.083 22.6462 318.233 23.1683 318.533 23.5599C318.832 23.9515 319.272 24.1472 319.851 24.1472ZM328.533 25.1089V22.0512C328.533 21.8094 328.512 21.5618 328.47 21.3084C328.432 21.0512 328.355 20.8132 328.24 20.5944C328.128 20.3755 327.969 20.199 327.762 20.0646C327.558 19.9302 327.292 19.863 326.961 19.863C326.746 19.863 326.543 19.8995 326.351 19.9725C326.159 20.0416 325.99 20.1548 325.844 20.3122C325.702 20.4696 325.589 20.6769 325.505 20.9341C325.424 21.1913 325.384 21.5042 325.384 21.8727L324.635 21.5905C324.635 21.0262 324.741 20.5291 324.952 20.0991C325.163 19.6653 325.466 19.3275 325.862 19.0857C326.257 18.8438 326.735 18.7229 327.295 18.7229C327.725 18.7229 328.086 18.792 328.378 18.9302C328.67 19.0684 328.906 19.2507 329.086 19.4772C329.27 19.6999 329.411 19.9437 329.507 20.2085C329.603 20.4734 329.668 20.7326 329.702 20.9859C329.737 21.2393 329.754 21.4619 329.754 21.6539V25.1089H328.533ZM324.163 25.1089V18.8899H325.24V20.6865H325.384V25.1089H324.163ZM335.005 25.1089V18.1413L333.444 19.0914V17.7497L335.005 16.8169H336.231V25.1089H335.005Z" fill="#84818A"/>
<path d="M282.676 65.4172V58.0984H279.848V57.1252H286.528V58.0984H283.701V65.4172H282.676ZM291.873 65.4172V62.302C291.873 62.0064 291.846 61.7223 291.792 61.4497C291.742 61.1772 291.652 60.9334 291.522 60.7184C291.395 60.4996 291.222 60.3269 291.003 60.2002C290.788 60.0735 290.516 60.0102 290.186 60.0102C289.929 60.0102 289.694 60.0543 289.483 60.1426C289.276 60.2271 289.097 60.3576 288.948 60.5342C288.798 60.7108 288.681 60.9334 288.596 61.2021C288.516 61.467 288.476 61.7799 288.476 62.1407L287.802 61.9334C287.802 61.3307 287.909 60.8144 288.124 60.3845C288.343 59.9507 288.648 59.6186 289.04 59.3883C289.435 59.1541 289.9 59.037 290.433 59.037C290.836 59.037 291.18 59.1003 291.464 59.227C291.748 59.3537 291.984 59.5226 292.172 59.7338C292.361 59.9411 292.508 60.1752 292.616 60.4363C292.723 60.6935 292.798 60.9565 292.84 61.2252C292.886 61.4901 292.909 61.7415 292.909 61.9795V65.4172H291.873ZM287.439 65.4172V57.1252H288.36V61.7031H288.476V65.4172H287.439ZM294.522 58.0984V57.0389H295.547V58.0984H294.522ZM294.522 65.4172V59.1982H295.547V65.4172H294.522ZM299.624 65.5842C298.883 65.5842 298.274 65.423 297.798 65.1005C297.326 64.7742 297.036 64.3193 296.929 63.7358L297.977 63.5688C298.061 63.9066 298.255 64.1754 298.559 64.375C298.862 64.5708 299.238 64.6687 299.687 64.6687C300.113 64.6687 300.447 64.5804 300.689 64.4038C300.931 64.2272 301.052 63.9873 301.052 63.684C301.052 63.5074 301.012 63.3654 300.931 63.2579C300.85 63.1465 300.683 63.0429 300.43 62.9469C300.18 62.8509 299.802 62.7358 299.296 62.6014C298.747 62.4555 298.315 62.3039 298 62.1465C297.685 61.9891 297.461 61.8068 297.326 61.5995C297.192 61.3922 297.125 61.1407 297.125 60.8451C297.125 60.4804 297.225 60.1618 297.424 59.8892C297.624 59.6128 297.902 59.3998 298.259 59.2501C298.62 59.1003 299.038 59.0255 299.514 59.0255C299.987 59.0255 300.409 59.1003 300.781 59.2501C301.154 59.3998 301.453 59.6128 301.68 59.8892C301.91 60.1618 302.046 60.4804 302.088 60.8451L301.04 61.0351C300.991 60.7012 300.829 60.4382 300.557 60.2463C300.288 60.0543 299.941 59.9526 299.514 59.9411C299.111 59.9257 298.783 59.9967 298.53 60.1541C298.28 60.3115 298.155 60.5246 298.155 60.7933C298.155 60.943 298.202 61.0716 298.294 61.1791C298.39 61.2866 298.564 61.3883 298.818 61.4843C299.075 61.5803 299.447 61.6897 299.935 61.8125C300.484 61.9507 300.916 62.1024 301.23 62.2674C301.549 62.4287 301.776 62.6206 301.91 62.8433C302.044 63.0621 302.111 63.3327 302.111 63.6552C302.111 64.2541 301.891 64.7262 301.449 65.0717C301.008 65.4134 300.399 65.5842 299.624 65.5842ZM309.159 65.4172C308.791 65.4902 308.426 65.519 308.065 65.5036C307.708 65.4921 307.39 65.4211 307.109 65.2906C306.829 65.1562 306.616 64.9489 306.47 64.6687C306.347 64.423 306.28 64.1754 306.269 63.9258C306.261 63.6725 306.257 63.3865 306.257 63.0678V57.4707H307.282V63.0218C307.282 63.2751 307.284 63.492 307.288 63.6725C307.296 63.8529 307.336 64.0084 307.409 64.1389C307.547 64.3846 307.766 64.5285 308.065 64.5708C308.368 64.613 308.733 64.6015 309.159 64.5362V65.4172ZM304.996 60.0447V59.1982H309.159V60.0447H304.996ZM314.85 65.4172V62.302C314.85 62.0064 314.823 61.7223 314.769 61.4497C314.72 61.1772 314.629 60.9334 314.499 60.7184C314.372 60.4996 314.199 60.3269 313.981 60.2002C313.766 60.0735 313.493 60.0102 313.163 60.0102C312.906 60.0102 312.671 60.0543 312.46 60.1426C312.253 60.2271 312.075 60.3576 311.925 60.5342C311.775 60.7108 311.658 60.9334 311.574 61.2021C311.493 61.467 311.453 61.7799 311.453 62.1407L310.779 61.9334C310.779 61.3307 310.886 60.8144 311.101 60.3845C311.32 59.9507 311.625 59.6186 312.017 59.3883C312.412 59.1541 312.877 59.037 313.41 59.037C313.814 59.037 314.157 59.1003 314.441 59.227C314.725 59.3537 314.961 59.5226 315.149 59.7338C315.338 59.9411 315.485 60.1752 315.593 60.4363C315.7 60.6935 315.775 60.9565 315.817 61.2252C315.864 61.4901 315.887 61.7415 315.887 61.9795V65.4172H314.85ZM310.416 65.4172V57.1252H311.337V61.7031H311.453V65.4172H310.416ZM320.079 65.59C319.468 65.59 318.935 65.4556 318.478 65.1869C318.025 64.9143 317.672 64.5362 317.418 64.0525C317.165 63.565 317.038 62.9968 317.038 62.348C317.038 61.6686 317.163 61.0812 317.412 60.586C317.662 60.0869 318.009 59.7031 318.455 59.4343C318.904 59.1618 319.43 59.0255 320.032 59.0255C320.658 59.0255 321.19 59.1694 321.628 59.4574C322.069 59.7453 322.399 60.156 322.618 60.6896C322.841 61.2233 322.937 61.8586 322.906 62.5957H321.869V62.2271C321.858 61.4632 321.702 60.8931 321.403 60.5169C321.104 60.1368 320.658 59.9468 320.067 59.9468C319.434 59.9468 318.952 60.1503 318.622 60.5572C318.292 60.9641 318.126 61.5476 318.126 62.3077C318.126 63.041 318.292 63.6091 318.622 64.0122C318.952 64.4153 319.422 64.6168 320.032 64.6168C320.443 64.6168 320.8 64.5228 321.104 64.3347C321.407 64.1466 321.645 63.8759 321.818 63.5227L322.802 63.8625C322.56 64.4114 322.196 64.8376 321.708 65.1408C321.224 65.4403 320.681 65.59 320.079 65.59ZM317.781 62.5957V61.7722H322.376V62.5957H317.781ZM328.843 65.5842C328.102 65.5842 327.494 65.423 327.017 65.1005C326.545 64.7742 326.255 64.3193 326.148 63.7358L327.196 63.5688C327.28 63.9066 327.474 64.1754 327.778 64.375C328.081 64.5708 328.457 64.6687 328.906 64.6687C329.332 64.6687 329.666 64.5804 329.908 64.4038C330.15 64.2272 330.271 63.9873 330.271 63.684C330.271 63.5074 330.231 63.3654 330.15 63.2579C330.069 63.1465 329.902 63.0429 329.649 62.9469C329.4 62.8509 329.021 62.7358 328.515 62.6014C327.966 62.4555 327.534 62.3039 327.219 62.1465C326.904 61.9891 326.68 61.8068 326.545 61.5995C326.411 61.3922 326.344 61.1407 326.344 60.8451C326.344 60.4804 326.444 60.1618 326.643 59.8892C326.843 59.6128 327.121 59.3998 327.478 59.2501C327.839 59.1003 328.257 59.0255 328.733 59.0255C329.206 59.0255 329.628 59.1003 330 59.2501C330.373 59.3998 330.672 59.6128 330.899 59.8892C331.129 60.1618 331.265 60.4804 331.307 60.8451L330.259 61.0351C330.21 60.7012 330.048 60.4382 329.776 60.2463C329.507 60.0543 329.16 59.9526 328.733 59.9411C328.33 59.9257 328.002 59.9967 327.749 60.1541C327.499 60.3115 327.375 60.5246 327.375 60.7933C327.375 60.943 327.421 61.0716 327.513 61.1791C327.609 61.2866 327.783 61.3883 328.037 61.4843C328.294 61.5803 328.666 61.6897 329.154 61.8125C329.703 61.9507 330.135 62.1024 330.449 62.2674C330.768 62.4287 330.995 62.6206 331.129 62.8433C331.263 63.0621 331.33 63.3327 331.33 63.6552C331.33 64.2541 331.11 64.7262 330.668 65.0717C330.227 65.4134 329.618 65.5842 328.843 65.5842ZM335.249 65.59C334.631 65.59 334.098 65.4499 333.648 65.1696C333.203 64.8894 332.86 64.5017 332.618 64.0064C332.376 63.5112 332.255 62.9431 332.255 62.302C332.255 61.6494 332.378 61.0774 332.623 60.586C332.869 60.0946 333.217 59.7127 333.666 59.4401C334.115 59.1637 334.643 59.0255 335.249 59.0255C335.871 59.0255 336.407 59.1656 336.856 59.4458C337.305 59.7222 337.649 60.1081 337.887 60.6033C338.128 61.0947 338.249 61.6609 338.249 62.302C338.249 62.9508 338.128 63.5227 337.887 64.018C337.645 64.5093 337.299 64.8951 336.85 65.1754C336.401 65.4518 335.867 65.59 335.249 65.59ZM335.249 64.6168C335.894 64.6168 336.374 64.4019 336.689 63.9719C337.004 63.5419 337.161 62.9853 337.161 62.302C337.161 61.5995 337.002 61.0409 336.683 60.6263C336.364 60.2079 335.887 59.9986 335.249 59.9986C334.815 59.9986 334.458 60.0965 334.178 60.2923C333.898 60.4881 333.689 60.7587 333.551 61.1042C333.412 61.4497 333.343 61.849 333.343 62.302C333.343 63.0007 333.505 63.5611 333.827 63.9834C334.149 64.4057 334.624 64.6168 335.249 64.6168ZM339.632 65.4172V56.9525H340.657V65.4172H339.632ZM344.746 65.5785C344.347 65.5785 344.003 65.5151 343.715 65.3884C343.431 65.2618 343.195 65.0929 343.007 64.8817C342.819 64.6706 342.671 64.4364 342.564 64.1792C342.456 63.922 342.379 63.659 342.333 63.3903C342.291 63.1216 342.27 62.8701 342.27 62.636V59.1982H343.306V62.3135C343.306 62.6053 343.333 62.8874 343.387 63.16C343.441 63.4325 343.531 63.6782 343.658 63.897C343.788 64.1159 343.961 64.2886 344.176 64.4153C344.395 64.542 344.667 64.6053 344.994 64.6053C345.251 64.6053 345.485 64.5612 345.696 64.4729C345.907 64.3846 346.088 64.2541 346.237 64.0813C346.387 63.9047 346.502 63.6821 346.583 63.4133C346.664 63.1446 346.704 62.8317 346.704 62.4747L347.378 62.682C347.378 63.2809 347.268 63.7972 347.049 64.231C346.834 64.6648 346.529 64.9988 346.134 65.233C345.742 65.4633 345.28 65.5785 344.746 65.5785ZM346.819 65.4172V63.7531H346.704V59.1982H347.735V65.4172H346.819ZM352.819 65.4172C352.451 65.4902 352.086 65.519 351.725 65.5036C351.368 65.4921 351.049 65.4211 350.769 65.2906C350.489 65.1562 350.276 64.9489 350.13 64.6687C350.007 64.423 349.94 64.1754 349.928 63.9258C349.921 63.6725 349.917 63.3865 349.917 63.0678V57.4707H350.942V63.0218C350.942 63.2751 350.944 63.492 350.948 63.6725C350.955 63.8529 350.996 64.0084 351.069 64.1389C351.207 64.3846 351.426 64.5285 351.725 64.5708C352.028 64.613 352.393 64.6015 352.819 64.5362V65.4172ZM348.656 60.0447V59.1982H352.819V60.0447H348.656ZM354.197 58.0984V57.0389H355.222V58.0984H354.197ZM354.197 65.4172V59.1982H355.222V65.4172H354.197ZM359.598 65.59C358.98 65.59 358.447 65.4499 357.998 65.1696C357.552 64.8894 357.209 64.5017 356.967 64.0064C356.725 63.5112 356.604 62.9431 356.604 62.302C356.604 61.6494 356.727 61.0774 356.973 60.586C357.218 60.0946 357.566 59.7127 358.015 59.4401C358.464 59.1637 358.992 59.0255 359.598 59.0255C360.22 59.0255 360.756 59.1656 361.205 59.4458C361.654 59.7222 361.998 60.1081 362.236 60.6033C362.478 61.0947 362.599 61.6609 362.599 62.302C362.599 62.9508 362.478 63.5227 362.236 64.018C361.994 64.5093 361.648 64.8951 361.199 65.1754C360.75 65.4518 360.217 65.59 359.598 65.59ZM359.598 64.6168C360.243 64.6168 360.723 64.4019 361.038 63.9719C361.353 63.5419 361.51 62.9853 361.51 62.302C361.51 61.5995 361.351 61.0409 361.032 60.6263C360.714 60.2079 360.236 59.9986 359.598 59.9986C359.165 59.9986 358.808 60.0965 358.527 60.2923C358.247 60.4881 358.038 60.7587 357.9 61.1042C357.762 61.4497 357.692 61.849 357.692 62.302C357.692 63.0007 357.854 63.5611 358.176 63.9834C358.499 64.4057 358.973 64.6168 359.598 64.6168ZM368.295 65.4172V62.302C368.295 62.0064 368.268 61.7223 368.214 61.4497C368.164 61.1772 368.074 60.9334 367.943 60.7184C367.817 60.4996 367.644 60.3269 367.425 60.2002C367.21 60.0735 366.937 60.0102 366.607 60.0102C366.35 60.0102 366.116 60.0543 365.905 60.1426C365.698 60.2271 365.519 60.3576 365.369 60.5342C365.22 60.7108 365.103 60.9334 365.018 61.2021C364.937 61.467 364.897 61.7799 364.897 62.1407L364.223 61.9334C364.223 61.3307 364.331 60.8144 364.546 60.3845C364.765 59.9507 365.07 59.6186 365.461 59.3883C365.857 59.1541 366.321 59.037 366.855 59.037C367.258 59.037 367.602 59.1003 367.886 59.227C368.17 59.3537 368.406 59.5226 368.594 59.7338C368.782 59.9411 368.93 60.1752 369.037 60.4363C369.145 60.6935 369.22 60.9565 369.262 61.2252C369.308 61.4901 369.331 61.7415 369.331 61.9795V65.4172H368.295ZM363.861 65.4172V59.1982H364.782V60.8624H364.897V65.4172H363.861Z" fill="#2E2C34"/>
</g>
</g>
<g filter="url(#filter2_d_38156_11515)">
<g clip-path="url(#clip2_38156_11515)">
<rect x="266.572" y="192.263" width="197.428" height="86.3749" rx="3.29047" fill="white"/>
<path d="M438.499 208.989C437.745 208.989 437.128 209.606 437.128 210.36C437.128 211.114 437.745 211.731 438.499 211.731C439.253 211.731 439.87 211.114 439.87 210.36C439.87 209.606 439.253 208.989 438.499 208.989ZM446.725 208.989C445.971 208.989 445.354 209.606 445.354 210.36C445.354 211.114 445.971 211.731 446.725 211.731C447.479 211.731 448.096 211.114 448.096 210.36C448.096 209.606 447.479 208.989 446.725 208.989ZM442.612 208.989C441.858 208.989 441.241 209.606 441.241 210.36C441.241 211.114 441.858 211.731 442.612 211.731C443.366 211.731 443.983 211.114 443.983 210.36C443.983 209.606 443.366 208.989 442.612 208.989Z" fill="#84818A"/>
<rect x="266.571" y="228.458" width="197.428" height="0.822618" fill="#EBEAED"/>
<rect x="279.733" y="208.166" width="4.93571" height="4.93571" rx="1.64524" fill="#00A5FF"/>
<path d="M297.162 215.307C296.333 215.307 295.626 215.126 295.043 214.765C294.459 214.401 294.012 213.894 293.701 213.245C293.394 212.596 293.241 211.844 293.241 210.988C293.241 210.132 293.394 209.379 293.701 208.731C294.012 208.082 294.459 207.577 295.043 207.216C295.626 206.851 296.333 206.669 297.162 206.669C297.987 206.669 298.692 206.851 299.275 207.216C299.863 207.577 300.31 208.082 300.617 208.731C300.924 209.379 301.078 210.132 301.078 210.988C301.078 211.844 300.924 212.596 300.617 213.245C300.31 213.894 299.863 214.401 299.275 214.765C298.692 215.126 297.987 215.307 297.162 215.307ZM297.162 214.161C297.749 214.168 298.237 214.04 298.625 213.775C299.016 213.506 299.31 213.134 299.506 212.658C299.701 212.178 299.799 211.621 299.799 210.988C299.799 210.354 299.701 209.802 299.506 209.329C299.31 208.853 299.016 208.483 298.625 208.218C298.237 207.953 297.749 207.819 297.162 207.815C296.575 207.807 296.085 207.936 295.694 208.201C295.306 208.466 295.014 208.838 294.818 209.318C294.623 209.798 294.523 210.354 294.519 210.988C294.515 211.621 294.611 212.176 294.807 212.652C295.003 213.124 295.296 213.493 295.688 213.758C296.083 214.022 296.575 214.157 297.162 214.161ZM305.146 215.307C304.551 215.307 304.052 215.163 303.649 214.875C303.245 214.583 302.94 214.189 302.733 213.694C302.526 213.199 302.422 212.64 302.422 212.019C302.422 211.397 302.524 210.838 302.727 210.343C302.934 209.848 303.238 209.458 303.637 209.174C304.04 208.886 304.535 208.742 305.123 208.742C305.706 208.742 306.209 208.886 306.631 209.174C307.057 209.458 307.386 209.848 307.616 210.343C307.846 210.834 307.962 211.393 307.962 212.019C307.962 212.64 307.846 213.201 307.616 213.7C307.39 214.195 307.065 214.587 306.643 214.875C306.224 215.163 305.725 215.307 305.146 215.307ZM302.22 217.898V208.915H303.292V213.389H303.43V217.898H302.22ZM304.979 214.218C305.363 214.218 305.679 214.12 305.929 213.925C306.182 213.729 306.37 213.466 306.493 213.136C306.62 212.802 306.683 212.429 306.683 212.019C306.683 211.612 306.62 211.243 306.493 210.913C306.37 210.583 306.18 210.32 305.923 210.124C305.666 209.928 305.338 209.83 304.938 209.83C304.562 209.83 304.251 209.923 304.006 210.107C303.764 210.291 303.583 210.548 303.464 210.878C303.349 211.209 303.292 211.589 303.292 212.019C303.292 212.448 303.349 212.829 303.464 213.159C303.579 213.489 303.762 213.748 304.011 213.936C304.261 214.124 304.583 214.218 304.979 214.218ZM312.792 215.134C312.4 215.211 312.016 215.243 311.64 215.232C311.264 215.22 310.928 215.147 310.632 215.013C310.337 214.879 310.114 214.667 309.964 214.379C309.83 214.122 309.757 213.861 309.745 213.596C309.738 213.328 309.734 213.024 309.734 212.686V207.187H310.943V212.629C310.943 212.878 310.945 213.095 310.949 213.28C310.957 213.464 310.997 213.619 311.07 213.746C311.208 213.984 311.427 214.12 311.726 214.155C312.03 214.186 312.385 214.172 312.792 214.115V215.134ZM308.542 209.882V208.915H312.792V209.882H308.542ZM314.218 207.896V206.727H315.421V207.896H314.218ZM314.218 215.134V208.915H315.421V215.134H314.218ZM319.851 215.307C319.229 215.307 318.69 215.166 318.233 214.886C317.776 214.606 317.423 214.22 317.174 213.729C316.928 213.234 316.805 212.663 316.805 212.019C316.805 211.37 316.932 210.8 317.185 210.308C317.439 209.813 317.794 209.429 318.25 209.157C318.707 208.88 319.241 208.742 319.851 208.742C320.473 208.742 321.013 208.882 321.469 209.162C321.926 209.443 322.279 209.828 322.529 210.32C322.778 210.811 322.903 211.377 322.903 212.019C322.903 212.667 322.777 213.239 322.523 213.735C322.274 214.226 321.92 214.612 321.464 214.892C321.007 215.168 320.469 215.307 319.851 215.307ZM319.851 214.172C320.446 214.172 320.89 213.973 321.181 213.573C321.477 213.17 321.625 212.652 321.625 212.019C321.625 211.37 321.475 210.852 321.176 210.464C320.88 210.072 320.439 209.876 319.851 209.876C319.448 209.876 319.116 209.969 318.855 210.153C318.594 210.333 318.4 210.585 318.274 210.907C318.147 211.226 318.083 211.596 318.083 212.019C318.083 212.671 318.233 213.193 318.533 213.585C318.832 213.976 319.272 214.172 319.851 214.172ZM328.533 215.134V212.076C328.533 211.834 328.512 211.587 328.47 211.333C328.432 211.076 328.355 210.838 328.24 210.619C328.128 210.4 327.969 210.224 327.762 210.089C327.558 209.955 327.292 209.888 326.961 209.888C326.746 209.888 326.543 209.924 326.351 209.997C326.159 210.066 325.99 210.18 325.844 210.337C325.702 210.494 325.589 210.702 325.505 210.959C325.424 211.216 325.384 211.529 325.384 211.898L324.635 211.615C324.635 211.051 324.741 210.554 324.952 210.124C325.163 209.69 325.466 209.352 325.862 209.111C326.257 208.869 326.735 208.748 327.295 208.748C327.725 208.748 328.086 208.817 328.378 208.955C328.67 209.093 328.906 209.276 329.086 209.502C329.27 209.725 329.411 209.969 329.507 210.233C329.603 210.498 329.668 210.757 329.702 211.011C329.737 211.264 329.754 211.487 329.754 211.679V215.134H328.533ZM324.163 215.134V208.915H325.24V210.711H325.384V215.134H324.163ZM333.329 215.128L333.335 214.057L336.946 210.821C337.237 210.564 337.435 210.318 337.539 210.084C337.646 209.85 337.7 209.615 337.7 209.381C337.7 209.086 337.635 208.821 337.504 208.587C337.374 208.349 337.193 208.16 336.963 208.022C336.732 207.884 336.468 207.815 336.168 207.815C335.861 207.815 335.587 207.888 335.345 208.034C335.107 208.176 334.92 208.366 334.786 208.604C334.652 208.842 334.587 209.099 334.59 209.375H333.358C333.358 208.838 333.479 208.368 333.721 207.965C333.967 207.558 334.302 207.241 334.729 207.015C335.155 206.784 335.642 206.669 336.191 206.669C336.713 206.669 337.182 206.788 337.596 207.026C338.011 207.26 338.337 207.583 338.575 207.993C338.817 208.404 338.938 208.873 338.938 209.398C338.938 209.779 338.888 210.101 338.788 210.366C338.688 210.631 338.539 210.876 338.339 211.103C338.139 211.329 337.89 211.575 337.59 211.84L334.803 214.328L334.671 213.982H338.938V215.128H333.329Z" fill="#84818A"/>
<path d="M280.539 255.442V247.15H281.472L284.605 253.755L287.72 247.15H288.664V255.436H287.691V249.402L284.875 255.442H284.328L281.512 249.402V255.442H280.539ZM292.047 255.615C291.582 255.615 291.193 255.53 290.878 255.362C290.567 255.189 290.331 254.962 290.17 254.682C290.012 254.402 289.933 254.095 289.933 253.761C289.933 253.434 289.995 253.152 290.118 252.914C290.244 252.672 290.421 252.473 290.648 252.315C290.874 252.154 291.145 252.027 291.459 251.935C291.755 251.855 292.085 251.786 292.45 251.728C292.818 251.667 293.191 251.611 293.567 251.561C293.943 251.511 294.294 251.463 294.621 251.417L294.252 251.63C294.264 251.077 294.152 250.668 293.918 250.404C293.688 250.139 293.289 250.006 292.721 250.006C292.344 250.006 292.014 250.093 291.73 250.265C291.45 250.434 291.252 250.711 291.137 251.095L290.164 250.801C290.314 250.256 290.603 249.828 291.033 249.517C291.463 249.206 292.03 249.05 292.732 249.05C293.296 249.05 293.78 249.152 294.183 249.356C294.59 249.555 294.882 249.858 295.058 250.265C295.147 250.457 295.202 250.667 295.225 250.893C295.248 251.116 295.26 251.35 295.26 251.596V255.442H294.35V253.951L294.563 254.089C294.329 254.592 294.001 254.972 293.579 255.229C293.16 255.486 292.65 255.615 292.047 255.615ZM292.202 254.757C292.571 254.757 292.889 254.692 293.158 254.561C293.431 254.427 293.65 254.252 293.815 254.037C293.98 253.818 294.087 253.58 294.137 253.323C294.195 253.131 294.225 252.918 294.229 252.684C294.237 252.446 294.241 252.264 294.241 252.137L294.598 252.292C294.264 252.338 293.936 252.383 293.613 252.425C293.291 252.467 292.985 252.513 292.697 252.563C292.41 252.609 292.15 252.665 291.92 252.73C291.751 252.784 291.592 252.853 291.442 252.937C291.296 253.022 291.177 253.131 291.085 253.265C290.997 253.396 290.953 253.559 290.953 253.755C290.953 253.924 290.995 254.085 291.079 254.239C291.168 254.392 291.302 254.517 291.482 254.613C291.667 254.709 291.907 254.757 292.202 254.757ZM297.272 258.206L298.476 254.935L298.493 255.903L295.775 249.223H296.852L298.982 254.596H298.614L300.612 249.223H301.654L298.268 258.206H297.272ZM305.462 255.615C304.878 255.615 304.387 255.471 303.987 255.183C303.588 254.891 303.285 254.498 303.078 254.003C302.874 253.504 302.772 252.945 302.772 252.327C302.772 251.701 302.874 251.141 303.078 250.645C303.285 250.15 303.588 249.761 303.987 249.477C304.39 249.192 304.884 249.05 305.467 249.05C306.043 249.05 306.538 249.194 306.953 249.482C307.371 249.766 307.692 250.156 307.915 250.651C308.137 251.146 308.249 251.705 308.249 252.327C308.249 252.949 308.137 253.507 307.915 254.003C307.692 254.498 307.371 254.891 306.953 255.183C306.538 255.471 306.041 255.615 305.462 255.615ZM302.6 255.442V247.15H303.63V250.864H303.515V255.442H302.6ZM305.335 254.676C305.746 254.676 306.085 254.573 306.354 254.365C306.623 254.158 306.824 253.878 306.959 253.525C307.093 253.168 307.16 252.768 307.16 252.327C307.16 251.889 307.093 251.494 306.959 251.141C306.828 250.787 306.625 250.507 306.348 250.3C306.076 250.093 305.728 249.989 305.306 249.989C304.903 249.989 304.569 250.089 304.304 250.288C304.039 250.484 303.842 250.759 303.711 251.112C303.58 251.461 303.515 251.866 303.515 252.327C303.515 252.78 303.579 253.185 303.705 253.542C303.836 253.895 304.035 254.173 304.304 254.377C304.573 254.576 304.916 254.676 305.335 254.676ZM312.206 255.615C311.595 255.615 311.062 255.481 310.605 255.212C310.152 254.939 309.799 254.561 309.545 254.077C309.292 253.59 309.165 253.022 309.165 252.373C309.165 251.693 309.29 251.106 309.54 250.611C309.789 250.112 310.137 249.728 310.582 249.459C311.031 249.187 311.557 249.05 312.16 249.05C312.785 249.05 313.317 249.194 313.755 249.482C314.196 249.77 314.526 250.181 314.745 250.715C314.968 251.248 315.064 251.883 315.033 252.621H313.997V252.252C313.985 251.488 313.83 250.918 313.53 250.542C313.231 250.162 312.785 249.972 312.194 249.972C311.561 249.972 311.079 250.175 310.749 250.582C310.419 250.989 310.254 251.573 310.254 252.333C310.254 253.066 310.419 253.634 310.749 254.037C311.079 254.44 311.549 254.642 312.16 254.642C312.571 254.642 312.928 254.548 313.231 254.36C313.534 254.171 313.772 253.901 313.945 253.548L314.929 253.887C314.688 254.436 314.323 254.862 313.835 255.166C313.352 255.465 312.809 255.615 312.206 255.615ZM309.908 252.621V251.797H314.503V252.621H309.908ZM319.485 258.206L320.688 254.935L320.705 255.903L317.987 249.223H319.064L321.195 254.596H320.826L322.824 249.223H323.867L320.481 258.206H319.485ZM327.242 255.615C326.624 255.615 326.09 255.475 325.641 255.195C325.195 254.914 324.852 254.527 324.61 254.031C324.368 253.536 324.247 252.968 324.247 252.327C324.247 251.674 324.37 251.102 324.616 250.611C324.862 250.12 325.209 249.738 325.658 249.465C326.107 249.189 326.635 249.05 327.242 249.05C327.864 249.05 328.399 249.191 328.848 249.471C329.297 249.747 329.641 250.133 329.879 250.628C330.121 251.12 330.242 251.686 330.242 252.327C330.242 252.976 330.121 253.548 329.879 254.043C329.637 254.534 329.292 254.92 328.842 255.2C328.393 255.477 327.86 255.615 327.242 255.615ZM327.242 254.642C327.887 254.642 328.366 254.427 328.681 253.997C328.996 253.567 329.153 253.01 329.153 252.327C329.153 251.624 328.994 251.066 328.675 250.651C328.357 250.233 327.879 250.024 327.242 250.024C326.808 250.024 326.451 250.121 326.171 250.317C325.89 250.513 325.681 250.784 325.543 251.129C325.405 251.475 325.336 251.874 325.336 252.327C325.336 253.026 325.497 253.586 325.819 254.008C326.142 254.431 326.616 254.642 327.242 254.642ZM333.87 255.603C333.471 255.603 333.128 255.54 332.84 255.413C332.556 255.287 332.32 255.118 332.131 254.907C331.943 254.695 331.796 254.461 331.688 254.204C331.581 253.947 331.504 253.684 331.458 253.415C331.415 253.146 331.394 252.895 331.394 252.661V249.223H332.431V252.338C332.431 252.63 332.458 252.912 332.511 253.185C332.565 253.457 332.655 253.703 332.782 253.922C332.913 254.141 333.085 254.314 333.3 254.44C333.519 254.567 333.792 254.63 334.118 254.63C334.375 254.63 334.609 254.586 334.821 254.498C335.032 254.409 335.212 254.279 335.362 254.106C335.512 253.93 335.627 253.707 335.707 253.438C335.788 253.17 335.828 252.857 335.828 252.5L336.502 252.707C336.502 253.306 336.393 253.822 336.174 254.256C335.959 254.69 335.654 255.024 335.258 255.258C334.867 255.488 334.404 255.603 333.87 255.603ZM335.943 255.442V253.778H335.828V249.223H336.859V255.442H335.943ZM343.126 255.609C342.385 255.609 341.777 255.448 341.301 255.125C340.829 254.799 340.539 254.344 340.431 253.761L341.479 253.594C341.564 253.932 341.758 254.2 342.061 254.4C342.364 254.596 342.74 254.694 343.19 254.694C343.616 254.694 343.95 254.605 344.192 254.429C344.433 254.252 344.554 254.012 344.554 253.709C344.554 253.532 344.514 253.39 344.433 253.283C344.353 253.171 344.186 253.068 343.932 252.972C343.683 252.876 343.305 252.761 342.798 252.626C342.249 252.48 341.817 252.329 341.502 252.171C341.188 252.014 340.963 251.832 340.829 251.624C340.694 251.417 340.627 251.166 340.627 250.87C340.627 250.505 340.727 250.187 340.927 249.914C341.126 249.638 341.404 249.425 341.762 249.275C342.122 249.125 342.541 249.05 343.017 249.05C343.489 249.05 343.911 249.125 344.284 249.275C344.656 249.425 344.955 249.638 345.182 249.914C345.412 250.187 345.549 250.505 345.591 250.87L344.543 251.06C344.493 250.726 344.332 250.463 344.059 250.271C343.79 250.079 343.443 249.977 343.017 249.966C342.614 249.951 342.286 250.022 342.032 250.179C341.783 250.336 341.658 250.549 341.658 250.818C341.658 250.968 341.704 251.097 341.796 251.204C341.892 251.311 342.067 251.413 342.32 251.509C342.577 251.605 342.95 251.715 343.437 251.837C343.986 251.976 344.418 252.127 344.733 252.292C345.051 252.454 345.278 252.646 345.412 252.868C345.547 253.087 345.614 253.358 345.614 253.68C345.614 254.279 345.393 254.751 344.952 255.097C344.51 255.438 343.902 255.609 343.126 255.609ZM351.312 255.442V252.327C351.312 252.031 351.285 251.747 351.231 251.475C351.181 251.202 351.091 250.958 350.961 250.743C350.834 250.525 350.661 250.352 350.442 250.225C350.227 250.098 349.955 250.035 349.625 250.035C349.368 250.035 349.133 250.079 348.922 250.168C348.715 250.252 348.536 250.382 348.387 250.559C348.237 250.736 348.12 250.958 348.035 251.227C347.955 251.492 347.915 251.805 347.915 252.166L347.241 251.958C347.241 251.356 347.348 250.839 347.563 250.409C347.782 249.976 348.087 249.644 348.479 249.413C348.874 249.179 349.339 249.062 349.872 249.062C350.275 249.062 350.619 249.125 350.903 249.252C351.187 249.379 351.423 249.548 351.611 249.759C351.8 249.966 351.947 250.2 352.055 250.461C352.162 250.718 352.237 250.981 352.279 251.25C352.325 251.515 352.348 251.766 352.348 252.004V255.442H351.312ZM346.878 255.442V247.15H347.799V251.728H347.915V255.442H346.878ZM356.494 255.615C355.876 255.615 355.343 255.475 354.894 255.195C354.448 254.914 354.105 254.527 353.863 254.031C353.621 253.536 353.5 252.968 353.5 252.327C353.5 251.674 353.623 251.102 353.869 250.611C354.114 250.12 354.462 249.738 354.911 249.465C355.36 249.189 355.888 249.05 356.494 249.05C357.116 249.05 357.652 249.191 358.101 249.471C358.55 249.747 358.894 250.133 359.132 250.628C359.374 251.12 359.494 251.686 359.494 252.327C359.494 252.976 359.374 253.548 359.132 254.043C358.89 254.534 358.544 254.92 358.095 255.2C357.646 255.477 357.112 255.615 356.494 255.615ZM356.494 254.642C357.139 254.642 357.619 254.427 357.934 253.997C358.249 253.567 358.406 253.01 358.406 252.327C358.406 251.624 358.247 251.066 357.928 250.651C357.61 250.233 357.132 250.024 356.494 250.024C356.061 250.024 355.704 250.121 355.423 250.317C355.143 250.513 354.934 250.784 354.796 251.129C354.657 251.475 354.588 251.874 354.588 252.327C354.588 253.026 354.75 253.586 355.072 254.008C355.395 254.431 355.869 254.642 356.494 254.642ZM363.123 255.603C362.724 255.603 362.38 255.54 362.092 255.413C361.808 255.287 361.572 255.118 361.384 254.907C361.196 254.695 361.048 254.461 360.941 254.204C360.833 253.947 360.757 253.684 360.71 253.415C360.668 253.146 360.647 252.895 360.647 252.661V249.223H361.684V252.338C361.684 252.63 361.71 252.912 361.764 253.185C361.818 253.457 361.908 253.703 362.035 253.922C362.165 254.141 362.338 254.314 362.553 254.44C362.772 254.567 363.044 254.63 363.371 254.63C363.628 254.63 363.862 254.586 364.073 254.498C364.284 254.409 364.465 254.279 364.615 254.106C364.764 253.93 364.879 253.707 364.96 253.438C365.041 253.17 365.081 252.857 365.081 252.5L365.755 252.707C365.755 253.306 365.645 253.822 365.427 254.256C365.212 254.69 364.906 255.024 364.511 255.258C364.119 255.488 363.657 255.603 363.123 255.603ZM365.196 255.442V253.778H365.081V249.223H366.112V255.442H365.196ZM367.839 255.442V246.977H368.864V255.442H367.839ZM373.033 255.615C372.454 255.615 371.957 255.471 371.542 255.183C371.127 254.891 370.807 254.498 370.58 254.003C370.358 253.507 370.246 252.949 370.246 252.327C370.246 251.705 370.358 251.146 370.58 250.651C370.807 250.156 371.127 249.766 371.542 249.482C371.957 249.194 372.452 249.05 373.028 249.05C373.615 249.05 374.108 249.192 374.508 249.477C374.907 249.761 375.208 250.15 375.412 250.645C375.619 251.141 375.723 251.701 375.723 252.327C375.723 252.945 375.619 253.504 375.412 254.003C375.208 254.498 374.907 254.891 374.508 255.183C374.108 255.471 373.617 255.615 373.033 255.615ZM373.16 254.676C373.579 254.676 373.922 254.576 374.191 254.377C374.46 254.173 374.657 253.895 374.784 253.542C374.915 253.185 374.98 252.78 374.98 252.327C374.98 251.866 374.915 251.461 374.784 251.112C374.657 250.759 374.462 250.484 374.197 250.288C373.932 250.089 373.596 249.989 373.189 249.989C372.767 249.989 372.417 250.093 372.141 250.3C371.868 250.507 371.665 250.787 371.531 251.141C371.4 251.494 371.335 251.889 371.335 252.327C371.335 252.768 371.402 253.168 371.536 253.525C371.671 253.878 371.872 254.158 372.141 254.365C372.413 254.573 372.753 254.676 373.16 254.676ZM374.98 255.442V250.864H374.865V247.15H375.895V255.442H374.98ZM382.256 255.615C381.676 255.615 381.179 255.471 380.764 255.183C380.35 254.891 380.029 254.498 379.803 254.003C379.58 253.507 379.469 252.949 379.469 252.327C379.469 251.705 379.58 251.146 379.803 250.651C380.029 250.156 380.35 249.766 380.764 249.482C381.179 249.194 381.674 249.05 382.25 249.05C382.837 249.05 383.331 249.192 383.73 249.477C384.129 249.761 384.431 250.15 384.634 250.645C384.841 251.141 384.945 251.701 384.945 252.327C384.945 252.945 384.841 253.504 384.634 254.003C384.431 254.498 384.129 254.891 383.73 255.183C383.331 255.471 382.839 255.615 382.256 255.615ZM382.382 254.676C382.801 254.676 383.144 254.576 383.413 254.377C383.682 254.173 383.88 253.895 384.006 253.542C384.137 253.185 384.202 252.78 384.202 252.327C384.202 251.866 384.137 251.461 384.006 251.112C383.88 250.759 383.684 250.484 383.419 250.288C383.154 250.089 382.818 249.989 382.411 249.989C381.989 249.989 381.64 250.093 381.363 250.3C381.091 250.507 380.887 250.787 380.753 251.141C380.622 251.494 380.557 251.889 380.557 252.327C380.557 252.768 380.624 253.168 380.759 253.525C380.893 253.878 381.095 254.158 381.363 254.365C381.636 254.573 381.976 254.676 382.382 254.676ZM384.202 255.442V250.864H384.087V247.15H385.118V255.442H384.202ZM389.38 255.615C388.762 255.615 388.228 255.475 387.779 255.195C387.334 254.914 386.99 254.527 386.748 254.031C386.506 253.536 386.385 252.968 386.385 252.327C386.385 251.674 386.508 251.102 386.754 250.611C387 250.12 387.347 249.738 387.796 249.465C388.245 249.189 388.773 249.05 389.38 249.05C390.002 249.05 390.537 249.191 390.986 249.471C391.436 249.747 391.779 250.133 392.017 250.628C392.259 251.12 392.38 251.686 392.38 252.327C392.38 252.976 392.259 253.548 392.017 254.043C391.775 254.534 391.43 254.92 390.981 255.2C390.531 255.477 389.998 255.615 389.38 255.615ZM389.38 254.642C390.025 254.642 390.505 254.427 390.819 253.997C391.134 253.567 391.292 253.01 391.292 252.327C391.292 251.624 391.132 251.066 390.814 250.651C390.495 250.233 390.017 250.024 389.38 250.024C388.946 250.024 388.589 250.121 388.309 250.317C388.029 250.513 387.819 250.784 387.681 251.129C387.543 251.475 387.474 251.874 387.474 252.327C387.474 253.026 387.635 253.586 387.958 254.008C388.28 254.431 388.754 254.642 389.38 254.642ZM393.607 255.442V254.314H394.736V255.442H393.607ZM396.711 255.442V254.314H397.84V255.442H396.711Z" fill="#2E2C34"/>
</g>
</g>
<circle cx="266.16" cy="234.628" r="4.93571" fill="white" stroke="#5542F6" stroke-width="0.822618"/>
<path fill-rule="evenodd" clip-rule="evenodd" d="M265.749 44.603V45.4256H250.942C242.177 45.4256 235.054 52.4555 234.903 61.1845L234.901 61.4667V128.099C234.901 137.317 227.504 144.808 218.322 144.96L218.037 144.962H207.343V144.14H218.037C226.802 144.14 233.925 137.11 234.076 128.381L234.078 128.099V61.4667C234.078 52.2482 241.475 44.7573 250.657 44.6054L250.942 44.603H265.749Z" fill="#5542F6"/>
<path fill-rule="evenodd" clip-rule="evenodd" d="M260.813 236.272V235.45H246.006C237.241 235.45 230.118 228.42 229.967 219.691L229.965 219.409V161.003C229.965 151.784 222.568 144.293 213.386 144.142L213.101 144.139H202.407V144.962H213.101C221.866 144.962 228.989 151.992 229.14 160.721L229.142 161.003V219.409C229.142 228.627 236.539 236.118 245.722 236.27L246.006 236.272H260.813Z" fill="#5542F6"/>
<circle cx="266.16" cy="44.6026" r="4.93571" fill="white" stroke="#5542F6" stroke-width="0.822618"/>
<circle cx="200.351" cy="144.139" r="4.93571" fill="white" stroke="#5542F6" stroke-width="0.822618"/>
<defs>
<filter id="filter0_d_38156_11515" x="0.865519" y="99.3069" width="202.364" height="91.3107" filterUnits="userSpaceOnUse" color-interpolation-filters="sRGB">
<feFlood flood-opacity="0" result="BackgroundImageFix"/>
<feColorMatrix in="SourceAlpha" type="matrix" values="0 0 0 0 0 0 0 0 0 0 0 0 0 0 0 0 0 0 127 0" result="hardAlpha"/>
<feOffset dy="0.822618"/>
<feGaussianBlur stdDeviation="1.23393"/>
<feColorMatrix type="matrix" values="0 0 0 0 0 0 0 0 0 0 0 0 0 0 0 0 0 0 0.12 0"/>
<feBlend mode="normal" in2="BackgroundImageFix" result="effect1_dropShadow_38156_11515"/>
<feBlend mode="normal" in="SourceGraphic" in2="effect1_dropShadow_38156_11515" result="shape"/>
</filter>
<filter id="filter1_d_38156_11515" x="264.104" y="0.592556" width="202.364" height="91.3107" filterUnits="userSpaceOnUse" color-interpolation-filters="sRGB">
<feFlood flood-opacity="0" result="BackgroundImageFix"/>
<feColorMatrix in="SourceAlpha" type="matrix" values="0 0 0 0 0 0 0 0 0 0 0 0 0 0 0 0 0 0 127 0" result="hardAlpha"/>
<feOffset dy="0.822618"/>
<feGaussianBlur stdDeviation="1.23393"/>
<feColorMatrix type="matrix" values="0 0 0 0 0 0 0 0 0 0 0 0 0 0 0 0 0 0 0.12 0"/>
<feBlend mode="normal" in2="BackgroundImageFix" result="effect1_dropShadow_38156_11515"/>
<feBlend mode="normal" in="SourceGraphic" in2="effect1_dropShadow_38156_11515" result="shape"/>
</filter>
<filter id="filter2_d_38156_11515" x="264.104" y="190.617" width="202.364" height="91.3107" filterUnits="userSpaceOnUse" color-interpolation-filters="sRGB">
<feFlood flood-opacity="0" result="BackgroundImageFix"/>
<feColorMatrix in="SourceAlpha" type="matrix" values="0 0 0 0 0 0 0 0 0 0 0 0 0 0 0 0 0 0 127 0" result="hardAlpha"/>
<feOffset dy="0.822618"/>
<feGaussianBlur stdDeviation="1.23393"/>
<feColorMatrix type="matrix" values="0 0 0 0 0 0 0 0 0 0 0 0 0 0 0 0 0 0 0.12 0"/>
<feBlend mode="normal" in2="BackgroundImageFix" result="effect1_dropShadow_38156_11515"/>
<feBlend mode="normal" in="SourceGraphic" in2="effect1_dropShadow_38156_11515" result="shape"/>
</filter>
<clipPath id="clip0_38156_11515">
<rect x="3.33337" y="100.952" width="197.428" height="86.3749" rx="3.29047" fill="white"/>
</clipPath>
<clipPath id="clip1_38156_11515">
<rect x="266.572" y="2.23779" width="197.428" height="86.3749" rx="3.29047" fill="white"/>
</clipPath>
<clipPath id="clip2_38156_11515">
<rect x="266.572" y="192.263" width="197.428" height="86.3749" rx="3.29047" fill="white"/>
</clipPath>
</defs>
</svg>
