<svg width="30" height="33" viewBox="0 0 30 33" fill="none" xmlns="http://www.w3.org/2000/svg">
<path fill-rule="evenodd" clip-rule="evenodd" d="M15.3804 25.5309V25.4423C16.8433 24.2547 18.4426 23.2475 20.1432 22.442V22.4545C21.1072 21.9894 22.1057 21.5917 23.1309 21.2662C22.9607 20.4708 22.8329 19.666 22.7489 18.8549H15.3812V14.0827L20.144 14.0913V14.0929H22.8501C22.956 13.2991 23.1058 12.5116 23.3004 11.7342L23.1286 11.6809L23.1113 11.6754L23.08 11.6652L23.0321 11.6495C22.5693 11.4997 22.1112 11.335 21.6594 11.1569L21.6147 11.1397L21.4021 11.0542C19.0278 10.0541 17.0205 8.71904 15.3804 7.05065V0.475098C16.6754 2.26978 18.2905 3.81739 20.1432 5.03476V5.04025C22.8337 6.80591 26.0222 7.87504 29.4523 7.99034V8.05074C29.2978 8.34411 29.1519 8.64217 29.0139 8.94495L28.9935 8.98966L28.9629 9.0579L28.9488 9.09006C28.8625 9.28381 28.7793 9.47912 28.7001 9.67522L28.6985 9.67757C28.4624 10.2619 28.2569 10.8573 28.0836 11.4605L28.0804 11.4723L28.002 11.7539L27.9957 11.7774L27.9824 11.8276L27.9628 11.9013L27.9549 11.9303L27.9432 11.9751L27.9243 12.0488L27.9157 12.0833L27.9063 12.1225L27.8883 12.197L27.871 12.2708L27.8538 12.3453L27.8028 12.5688C27.6914 13.0732 27.6028 13.5815 27.5345 14.0929H27.5361C27.4341 14.8695 27.3823 15.6609 27.3823 16.4657C27.3823 17.225 27.4294 17.9733 27.5204 18.709L27.5361 18.8338C27.8185 20.9924 28.4805 23.031 29.4531 24.8814V24.9591C26.0222 25.0744 22.8336 26.1435 20.144 27.9099V27.9154C18.292 29.1328 16.6762 30.6804 15.3812 32.4751V25.5325L15.3804 25.5309Z" fill="#7D5BC6"/>
<path fill-rule="evenodd" clip-rule="evenodd" d="M14.072 25.5309V25.4423C12.6091 24.2547 11.0097 23.2475 9.30914 22.442V22.4545C8.34513 21.9894 7.3466 21.5917 6.3214 21.2662C6.49161 20.4708 6.61869 19.666 6.7034 18.8549H14.0712V14.0827L9.30837 14.0913V14.0929H6.60222C6.49633 13.2991 6.3465 12.5116 6.15197 11.7342L6.32376 11.6809L6.34101 11.6754L6.37239 11.6652L6.42024 11.6495C6.88303 11.4997 7.34111 11.335 7.79292 11.1569L7.83763 11.1397L8.0502 11.0542C10.4246 10.0541 12.4318 8.71904 14.072 7.05065V0.475098C12.7769 2.26978 11.1619 3.81739 9.30914 5.03476V5.04025C6.61868 6.80591 3.43014 7.87504 0 7.99034V8.05074C0.154525 8.34411 0.300419 8.64217 0.438472 8.94495L0.458867 8.98966L0.489459 9.0579L0.503582 9.09006C0.589865 9.28381 0.673005 9.47912 0.753013 9.67522L0.754583 9.67757C0.990685 10.2619 1.19619 10.8573 1.36954 11.4605L1.37268 11.4723L1.45112 11.7539L1.45739 11.7774L1.47073 11.8276L1.49034 11.9013L1.49818 11.9303L1.50995 11.9751L1.52878 12.0488L1.5374 12.0833L1.5476 12.1225L1.56564 12.197L1.58289 12.2708L1.60016 12.3453L1.65115 12.5688C1.76175 13.0732 1.85116 13.5815 1.9194 14.0929H1.91783C2.0198 14.8695 2.07158 15.6609 2.07158 16.4657C2.07158 17.225 2.02451 17.9733 1.93352 18.709L1.91783 18.8338C1.63545 20.9924 0.97343 23.031 0.000785157 24.8814V24.9591C3.43171 25.0744 6.62025 26.1435 9.30993 27.9099V27.9154C11.1619 29.1328 12.7777 30.6804 14.0728 32.4751V25.5325L14.072 25.5309Z" fill="#7D5BC6"/>
</svg>
