<svg width="12" height="14" viewBox="0 0 12 14" fill="none" xmlns="http://www.w3.org/2000/svg">
<path d="M5.8667 0.346306C5.99865 0.319402 6.13746 0.333442 6.26318 0.387322L10.5249 2.21349L10.7007 2.30529C11.0898 2.54553 11.3333 2.97261 11.3335 3.43908V8.01134C11.3335 9.6859 10.4358 11.2322 8.98193 12.0631L6.33057 13.5787C6.12573 13.6956 5.87423 13.6957 5.66943 13.5787L3.01807 12.0631C1.56421 11.2322 0.666504 9.6859 0.666504 8.01134V3.43908C0.666707 2.90591 0.985009 2.42353 1.4751 2.21349L5.73779 0.387322L5.8667 0.346306ZM8.47217 5.19494C8.21191 4.93468 7.78918 4.93485 7.52881 5.19494L5.3335 7.39025L4.47217 6.52892L4.36768 6.44299C4.10899 6.27206 3.75668 6.3013 3.52881 6.52892C3.30127 6.75677 3.27299 7.10816 3.44385 7.36681L3.52881 7.47131L4.86279 8.80431L4.96729 8.89025C5.226 9.06068 5.57754 9.03195 5.80518 8.80431L8.47217 6.1383C8.73218 5.878 8.73221 5.45522 8.47217 5.19494Z" fill="url(#paint0_linear_38232_32)"/>
<defs>
<linearGradient id="paint0_linear_38232_32" x1="-0.223585" y1="1.20166" x2="8.80876" y2="13.6666" gradientUnits="userSpaceOnUse">
<stop stop-color="white"/>
<stop offset="0.350508" stop-color="#9573DE"/>
<stop offset="1" stop-color="white"/>
</linearGradient>
</defs>
</svg>
