<svg width="169" height="42" viewBox="0 0 169 42" fill="none" xmlns="http://www.w3.org/2000/svg">
<g clip-path="url(#clip0_10239_1878)">
<path d="M50.8599 29.7604H62.8119V26.1604H55.1079V12.6004H50.8599V29.7604Z" fill="#1A1414"/>
<path d="M69.8933 27.3604C68.1893 27.3604 67.3013 25.8724 67.3013 23.6404C67.3013 21.4084 68.1893 19.8964 69.8933 19.8964C71.5973 19.8964 72.5093 21.4084 72.5093 23.6404C72.5093 25.8724 71.5973 27.3604 69.8933 27.3604ZM69.9173 30.1444C73.8773 30.1444 76.4693 27.3364 76.4693 23.6404C76.4693 19.9444 73.8773 17.1364 69.9173 17.1364C65.9813 17.1364 63.3413 19.9444 63.3413 23.6404C63.3413 27.3364 65.9813 30.1444 69.9173 30.1444Z" fill="#1A1414"/>
<path d="M83.3236 34.0084C85.1476 34.0084 86.7556 33.6004 87.8356 32.6404C88.8196 31.7524 89.4676 30.4084 89.4676 28.5604V17.4724H85.7236V18.7924H85.6756C84.9556 17.7604 83.8516 17.1124 82.2196 17.1124C79.1716 17.1124 77.0596 19.6564 77.0596 23.2564C77.0596 27.0244 79.6276 29.0884 82.3876 29.0884C83.8756 29.0884 84.8116 28.4884 85.5316 27.6724H85.6276V28.8964C85.6276 30.3844 84.9316 31.2484 83.2756 31.2484C81.9796 31.2484 81.3316 30.6964 81.1156 30.0484H77.3236C77.7076 32.6164 79.9396 34.0084 83.3236 34.0084ZM83.2996 26.1844C81.8356 26.1844 80.8756 24.9844 80.8756 23.1364C80.8756 21.2644 81.8356 20.0644 83.2996 20.0644C84.9316 20.0644 85.7956 21.4564 85.7956 23.1124C85.7956 24.8404 85.0036 26.1844 83.2996 26.1844Z" fill="#1A1414"/>
<path d="M97.1658 27.3604C95.4618 27.3604 94.5738 25.8724 94.5738 23.6404C94.5738 21.4084 95.4618 19.8964 97.1658 19.8964C98.8698 19.8964 99.7818 21.4084 99.7818 23.6404C99.7818 25.8724 98.8698 27.3604 97.1658 27.3604ZM97.1898 30.1444C101.15 30.1444 103.742 27.3364 103.742 23.6404C103.742 19.9444 101.15 17.1364 97.1898 17.1364C93.2538 17.1364 90.6138 19.9444 90.6138 23.6404C90.6138 27.3364 93.2538 30.1444 97.1898 30.1444Z" fill="#1A1414"/>
<path d="M104.884 29.7604H108.796V17.4724H104.884V29.7604ZM104.884 15.7684H108.796V12.6004H104.884V15.7684Z" fill="#1A1414"/>
<path d="M110.494 33.8164H114.406V28.4884H114.454C115.222 29.5204 116.35 30.1444 117.934 30.1444C121.15 30.1444 123.286 27.6004 123.286 23.6164C123.286 19.9204 121.294 17.1124 118.03 17.1124C116.35 17.1124 115.15 17.8564 114.31 18.9604H114.238V17.4724H110.494V33.8164ZM116.926 27.1204C115.246 27.1204 114.286 25.7524 114.286 23.7604C114.286 21.7684 115.15 20.2564 116.854 20.2564C118.534 20.2564 119.326 21.6484 119.326 23.7604C119.326 25.8484 118.414 27.1204 116.926 27.1204Z" fill="#1A1414"/>
<path d="M129.655 30.1444C132.871 30.1444 135.247 28.7524 135.247 26.0644C135.247 22.9204 132.703 22.3684 130.543 22.0084C128.983 21.7204 127.591 21.6004 127.591 20.7364C127.591 19.9684 128.335 19.6084 129.295 19.6084C130.375 19.6084 131.119 19.9444 131.263 21.0484H134.863C134.671 18.6244 132.799 17.1124 129.319 17.1124C126.415 17.1124 124.015 18.4564 124.015 21.0484C124.015 23.9284 126.295 24.5044 128.431 24.8644C130.063 25.1524 131.551 25.2724 131.551 26.3764C131.551 27.1684 130.807 27.6004 129.631 27.6004C128.335 27.6004 127.519 27.0004 127.375 25.7764H123.679C123.799 28.4884 126.055 30.1444 129.655 30.1444Z" fill="#1A1414"/>
<path d="M140.561 30.1204C142.265 30.1204 143.345 29.4484 144.233 28.2484H144.305V29.7604H148.049V17.4724H144.137V24.3364C144.137 25.8004 143.321 26.8084 141.977 26.8084C140.729 26.8084 140.129 26.0644 140.129 24.7204V17.4724H136.241V25.5364C136.241 28.2724 137.729 30.1204 140.561 30.1204Z" fill="#1A1414"/>
<path d="M149.75 29.7604H153.662V22.8724C153.662 21.4084 154.382 20.3764 155.606 20.3764C156.782 20.3764 157.334 21.1444 157.334 22.4644V29.7604H161.246V22.8724C161.246 21.4084 161.942 20.3764 163.19 20.3764C164.366 20.3764 164.918 21.1444 164.918 22.4644V29.7604H168.83V21.7684C168.83 19.0084 167.438 17.1124 164.654 17.1124C163.07 17.1124 161.75 17.7844 160.79 19.2724H160.742C160.118 17.9524 158.894 17.1124 157.286 17.1124C155.51 17.1124 154.334 17.9524 153.566 19.2244H153.494V17.4724H149.75V29.7604Z" fill="#1A1414"/>
<path fill-rule="evenodd" clip-rule="evenodd" d="M20.6843 1.36916C31.9461 1.36916 41.0756 10.4986 41.0756 21.7604C41.0756 33.0223 31.9461 42.1518 20.6843 42.1518C9.42246 42.1518 0.292969 33.0223 0.292969 21.7604C0.292969 10.4986 9.42246 1.36916 20.6843 1.36916ZM40.2929 21.7604C40.2929 10.9309 31.5138 2.15178 20.6843 2.15178C19.8107 2.15178 18.9506 2.2089 18.1072 2.31961C18.6521 2.27197 19.2035 2.24765 19.7607 2.24765C30.1089 2.24765 38.4978 10.6365 38.4978 20.9847C38.4978 31.3328 30.1089 39.7217 19.7607 39.7217C9.96378 39.7217 1.92296 32.2028 1.09413 22.6207C1.54438 33.0511 10.1429 41.3691 20.6843 41.3691C31.5138 41.3691 40.2929 32.59 40.2929 21.7604ZM37.7151 20.9847C37.7151 11.0687 29.6767 3.03028 19.7607 3.03028C18.9556 3.03028 18.1628 3.08328 17.3857 3.18597C17.8642 3.14571 18.3483 3.12517 18.8372 3.12517C28.2718 3.12517 35.92 10.7734 35.92 20.2079C35.92 29.6425 28.2718 37.2907 18.8372 37.2907C9.9166 37.2907 2.59299 30.453 1.82162 21.7328C2.21381 31.3018 10.0954 38.9391 19.7607 38.9391C29.6767 38.9391 37.7151 30.9006 37.7151 20.9847ZM18.8372 3.9078C27.8395 3.9078 35.1374 11.2056 35.1374 20.2079C35.1374 29.2102 27.8395 36.508 18.8372 36.508C10.0435 36.508 2.87614 29.5444 2.54879 20.8307C3.25554 28.6957 9.86483 34.8596 17.9138 34.8596C26.4341 34.8596 33.3413 27.9525 33.3413 19.4321C33.3413 10.9117 26.4341 4.00464 17.9138 4.00464C17.473 4.00464 17.0365 4.02313 16.6051 4.05936C17.3349 3.95943 18.08 3.9078 18.8372 3.9078ZM32.5586 19.4321C32.5586 11.344 26.0019 4.78727 17.9138 4.78727C17.2304 4.78727 16.5579 4.83407 15.8995 4.92465C16.259 4.89651 16.6224 4.88218 16.9892 4.88218C24.596 4.88218 30.7625 11.0486 30.7625 18.6554C30.7625 26.2621 24.596 32.4286 16.9892 32.4286C9.82959 32.4286 3.94588 26.9657 3.27897 19.9808C3.5675 27.8147 10.0093 34.077 17.9138 34.077C26.0019 34.077 32.5586 27.5203 32.5586 19.4321ZM16.9892 5.6648C24.1637 5.6648 29.9798 11.4809 29.9798 18.6554C29.9798 25.8299 24.1637 31.646 16.9892 31.646C9.95606 31.646 4.22832 26.0568 4.00538 19.0778C4.60751 25.208 9.7773 29.9976 16.0657 29.9976C22.7589 29.9976 28.1847 24.5717 28.1847 17.8786C28.1847 11.1855 22.7589 5.75969 16.0657 5.75969C15.7588 5.75969 15.4545 5.7711 15.1533 5.79352C15.7531 5.70868 16.366 5.6648 16.9892 5.6648ZM27.4021 17.8786C27.4021 11.6177 22.3266 6.54232 16.0657 6.54232C15.4942 6.54232 14.9326 6.58461 14.3838 6.66623C14.6343 6.64829 14.8872 6.63916 15.1423 6.63916C20.9212 6.63916 25.606 11.3239 25.606 17.1028C25.606 22.8818 20.9212 27.5665 15.1423 27.5665C9.72709 27.5665 5.27269 23.453 4.73336 18.1802C4.89325 24.3017 9.90573 29.215 16.0657 29.215C22.3266 29.215 27.4021 24.1395 27.4021 17.8786ZM15.1423 7.42179C20.489 7.42179 24.8233 11.7561 24.8233 17.1028C24.8233 22.4496 20.489 26.7839 15.1423 26.7839C9.8636 26.7839 5.57168 22.5592 5.46329 17.3065C5.95092 21.7104 9.68487 25.1355 14.2188 25.1355C19.0841 25.1355 23.0282 21.1914 23.0282 16.3261C23.0282 11.4608 19.0841 7.51668 14.2188 7.51668C14.0327 7.51668 13.848 7.52245 13.6648 7.53382C14.1465 7.46005 14.6399 7.42179 15.1423 7.42179ZM22.2456 16.3261C22.2456 11.893 18.6519 8.29931 14.2188 8.29931C13.7736 8.29931 13.3369 8.33555 12.9114 8.40524C13.0382 8.39856 13.1658 8.39518 13.2943 8.39518C17.2459 8.39518 20.4494 11.5986 20.4494 15.5503C20.4494 19.502 17.2459 22.7055 13.2943 22.7055C9.64035 22.7055 6.62612 19.9665 6.19264 16.4297C6.24814 20.8151 9.82032 24.3529 14.2188 24.3529C18.6519 24.3529 22.2456 20.7592 22.2456 16.3261ZM13.2943 9.1778C16.8137 9.1778 19.6668 12.0308 19.6668 15.5503C19.6668 19.0698 16.8137 21.9228 13.2943 21.9228C9.77483 21.9228 6.92175 19.0698 6.92175 15.5503C6.92175 15.5419 6.92177 15.5334 6.9218 15.525C7.28822 18.207 9.58818 20.2735 12.3708 20.2735C15.4083 20.2735 17.8707 17.8111 17.8707 14.7736C17.8707 11.736 15.4083 9.27369 12.3708 9.27369C12.3021 9.27369 12.2337 9.27494 12.1656 9.27744C12.5319 9.21197 12.9091 9.1778 13.2943 9.1778ZM17.088 14.7736C17.088 12.1683 14.9761 10.0563 12.3708 10.0563C9.76552 10.0563 7.65352 12.1683 7.65352 14.7736C7.65352 17.3788 9.76552 19.4908 12.3708 19.4908C14.9761 19.4908 17.088 17.3788 17.088 14.7736Z" fill="#1A1414"/>
</g>
<defs>
<clipPath id="clip0_10239_1878">
<rect width="169" height="42" fill="white"/>
</clipPath>
</defs>
</svg>
