<svg width="172" height="40" viewBox="0 0 172 40" fill="none" xmlns="http://www.w3.org/2000/svg">
<g clip-path="url(#clip0_10239_1835)">
<path d="M49.0366 29.4072H60.3893V26.1745H52.4984V11.0799H49.0366V29.4072Z" fill="#0F0F11"/>
<path d="M67.2113 29.789C68.5859 29.789 69.795 29.4835 70.8386 28.8726C71.8907 28.2532 72.7095 27.4005 73.295 26.3145C73.8889 25.2199 74.1859 23.9599 74.1859 22.5345C74.1859 21.1175 73.8931 19.866 73.3077 18.7799C72.7222 17.6854 71.9034 16.8284 70.8513 16.209C69.8077 15.5896 68.5944 15.2799 67.2113 15.2799C65.8537 15.2799 64.6531 15.5854 63.6095 16.1963C62.5659 16.8072 61.7471 17.6599 61.1531 18.7545C60.5592 19.8405 60.2622 21.1005 60.2622 22.5345C60.2622 23.9514 60.5507 25.2072 61.1277 26.3017C61.7131 27.3878 62.5277 28.2405 63.5713 28.8599C64.615 29.4793 65.8283 29.789 67.2113 29.789ZM67.2113 26.5563C66.1337 26.5563 65.315 26.1957 64.755 25.4745C64.2034 24.7448 63.9277 23.7648 63.9277 22.5345C63.9277 21.3381 64.1907 20.3708 64.7168 19.6326C65.2513 18.886 66.0828 18.5126 67.2113 18.5126C68.3059 18.5126 69.1289 18.8775 69.6804 19.6072C70.2404 20.3369 70.5204 21.3126 70.5204 22.5345C70.5204 23.7139 70.2447 24.6811 69.6931 25.4363C69.1501 26.1829 68.3228 26.5563 67.2113 26.5563Z" fill="#0F0F11"/>
<path d="M81.0319 29.789C81.6768 29.789 82.2707 29.7126 82.8138 29.5599C83.3653 29.4072 83.8659 29.1908 84.3156 28.9108V30.2981C84.3326 30.8072 84.201 31.2314 83.921 31.5708C83.6495 31.9187 83.2847 32.1775 82.8265 32.3472C82.3683 32.5254 81.8804 32.6145 81.3629 32.6145C80.8792 32.6145 80.4295 32.5084 80.0138 32.2963C79.6065 32.0842 79.2925 31.7745 79.0719 31.3672L75.8647 32.9199C76.3907 33.8108 77.1416 34.5278 78.1174 35.0708C79.0932 35.6223 80.1665 35.8981 81.3374 35.8981C82.3471 35.8981 83.2847 35.7623 84.1501 35.4908C85.0156 35.2278 85.7453 34.8248 86.3392 34.2817C86.9416 33.7387 87.3532 33.0472 87.5738 32.2072C87.6501 31.9102 87.701 31.609 87.7265 31.3035C87.7604 31.0066 87.7774 30.6884 87.7774 30.349V15.6617H84.7483V16.4254C84.2816 16.0605 83.7513 15.7805 83.1574 15.5854C82.5719 15.3817 81.9229 15.2799 81.2101 15.2799C79.895 15.2799 78.7495 15.5939 77.7738 16.2217C76.798 16.8496 76.0386 17.7108 75.4956 18.8054C74.961 19.8914 74.6938 21.1345 74.6938 22.5345C74.6938 23.909 74.9568 25.1435 75.4829 26.2381C76.0174 27.3326 76.7598 28.1981 77.7101 28.8345C78.6604 29.4708 79.7677 29.789 81.0319 29.789ZM81.5919 26.709C80.8453 26.709 80.2344 26.5223 79.7592 26.149C79.2841 25.7757 78.9319 25.2751 78.7029 24.6472C78.4738 24.0108 78.3592 23.3066 78.3592 22.5345C78.3592 21.7708 78.478 21.0751 78.7156 20.4472C78.9532 19.8108 79.318 19.306 79.8101 18.9326C80.3107 18.5508 80.9471 18.3599 81.7192 18.3599C82.8053 18.3599 83.5816 18.746 84.0483 19.5181C84.515 20.2817 84.7483 21.2872 84.7483 22.5345C84.7483 23.7817 84.5107 24.7914 84.0356 25.5635C83.5689 26.3272 82.7544 26.709 81.5919 26.709Z" fill="#0F0F11"/>
<path d="M95.9999 29.789C97.3745 29.789 98.5836 29.4835 99.6272 28.8726C100.679 28.2532 101.498 27.4005 102.083 26.3145C102.677 25.2199 102.974 23.9599 102.974 22.5345C102.974 21.1175 102.682 19.866 102.096 18.7799C101.511 17.6854 100.692 16.8284 99.6399 16.209C98.5963 15.5896 97.3829 15.2799 95.9999 15.2799C94.6423 15.2799 93.4417 15.5854 92.3981 16.1963C91.3545 16.8072 90.5357 17.6599 89.9417 18.7545C89.3478 19.8405 89.0508 21.1005 89.0508 22.5345C89.0508 23.9514 89.3393 25.2072 89.9163 26.3017C90.5017 27.3878 91.3163 28.2405 92.3599 28.8599C93.4036 29.4793 94.6169 29.789 95.9999 29.789ZM95.9999 26.5563C94.9223 26.5563 94.1035 26.1957 93.5435 25.4745C92.992 24.7448 92.7163 23.7648 92.7163 22.5345C92.7163 21.3381 92.9793 20.3708 93.5054 19.6326C94.0399 18.886 94.8714 18.5126 95.9999 18.5126C97.0945 18.5126 97.9175 18.8775 98.469 19.6072C99.029 20.3369 99.309 21.3126 99.309 22.5345C99.309 23.7139 99.0332 24.6811 98.4817 25.4363C97.9387 26.1829 97.1114 26.5563 95.9999 26.5563Z" fill="#0F0F11"/>
<path d="M104.5 13.7526H107.962V10.6981H104.5V13.7526ZM104.5 29.4072H107.962V15.6617H104.5V29.4072Z" fill="#0F0F11"/>
<path d="M110.225 35.5163H113.712V28.9108C114.162 29.1908 114.658 29.4072 115.201 29.5599C115.753 29.7126 116.351 29.789 116.996 29.789C118.26 29.789 119.368 29.4708 120.318 28.8345C121.268 28.1981 122.006 27.3326 122.532 26.2381C123.067 25.1435 123.334 23.909 123.334 22.5345C123.334 21.1345 123.063 19.8914 122.52 18.8054C121.985 17.7108 121.23 16.8496 120.254 16.2217C119.278 15.5939 118.133 15.2799 116.818 15.2799C116.105 15.2799 115.452 15.3817 114.858 15.5854C114.272 15.7805 113.746 16.0605 113.28 16.4254V15.6617H110.225V35.5163ZM116.436 26.709C115.282 26.709 114.468 26.3272 113.992 25.5635C113.517 24.7914 113.28 23.7817 113.28 22.5345C113.28 21.2872 113.513 20.2817 113.98 19.5181C114.455 18.746 115.231 18.3599 116.309 18.3599C117.081 18.3599 117.713 18.5508 118.205 18.9326C118.706 19.306 119.075 19.8108 119.312 20.4472C119.55 21.0751 119.669 21.7708 119.669 22.5345C119.669 23.3066 119.554 24.0108 119.325 24.6472C119.096 25.2751 118.744 25.7757 118.269 26.149C117.794 26.5223 117.183 26.709 116.436 26.709Z" fill="#0F0F11"/>
<path d="M129.606 29.789C131.404 29.789 132.813 29.386 133.831 28.5799C134.849 27.7738 135.358 26.6666 135.358 25.2581C135.358 24.189 135.027 23.3448 134.366 22.7254C133.712 22.106 132.601 21.5926 131.031 21.1854C129.962 20.9138 129.164 20.6932 128.638 20.5235C128.121 20.3539 127.777 20.1884 127.607 20.0272C127.446 19.866 127.366 19.6666 127.366 19.429C127.366 19.0302 127.556 18.7248 127.938 18.5126C128.329 18.3005 128.842 18.2157 129.478 18.2581C130.827 18.3599 131.566 18.9369 131.693 19.989L135.231 19.3526C135.053 18.1054 134.442 17.1169 133.398 16.3872C132.355 15.649 131.023 15.2799 129.402 15.2799C127.739 15.2799 126.411 15.6702 125.418 16.4508C124.426 17.2314 123.929 18.2835 123.929 19.6072C123.929 20.6593 124.273 21.4908 124.96 22.1017C125.647 22.7042 126.831 23.2217 128.511 23.6545C129.504 23.9175 130.233 24.1296 130.7 24.2908C131.175 24.452 131.481 24.6175 131.616 24.7872C131.752 24.9484 131.82 25.1648 131.82 25.4363C131.82 25.869 131.65 26.2084 131.311 26.4545C130.972 26.692 130.488 26.8108 129.86 26.8108C129.096 26.8108 128.464 26.6284 127.964 26.2635C127.472 25.8987 127.153 25.3939 127.009 24.749L123.471 25.2835C123.7 26.7175 124.345 27.829 125.406 28.6181C126.475 29.3987 127.875 29.789 129.606 29.789Z" fill="#0F0F11"/>
<path d="M141.744 29.8145C142.737 29.8145 143.602 29.649 144.341 29.3181C145.079 28.9872 145.698 28.546 146.199 27.9945V29.4072H149.253V15.6617H145.766V22.6363C145.766 23.4848 145.668 24.172 145.473 24.6981C145.287 25.2157 145.045 25.6102 144.748 25.8817C144.451 26.1448 144.133 26.3229 143.793 26.4163C143.454 26.5096 143.136 26.5563 142.839 26.5563C142.101 26.5563 141.528 26.3908 141.121 26.0599C140.722 25.729 140.433 25.3175 140.255 24.8254C140.077 24.3332 139.971 23.8454 139.937 23.3617C139.903 22.8696 139.886 22.4666 139.886 22.1526V15.6617H136.373V23.3745C136.373 23.6035 136.39 23.9684 136.424 24.469C136.458 24.9696 136.556 25.5254 136.717 26.1363C136.878 26.7387 137.145 27.3199 137.519 27.8799C137.901 28.4399 138.431 28.9023 139.11 29.2672C139.788 29.632 140.667 29.8145 141.744 29.8145Z" fill="#0F0F11"/>
<path d="M151.258 29.4072H154.745V21.0835C154.745 20.2945 154.961 19.6539 155.394 19.1617C155.835 18.6611 156.416 18.4108 157.138 18.4108C157.893 18.4108 158.483 18.6654 158.907 19.1745C159.339 19.6751 159.556 20.3793 159.556 21.2872V29.4072H163.018V21.0835C163.018 20.2945 163.234 19.6539 163.667 19.1617C164.108 18.6611 164.689 18.4108 165.41 18.4108C166.166 18.4108 166.755 18.6654 167.179 19.1745C167.612 19.6751 167.829 20.3793 167.829 21.2872V29.4072H171.29V20.3708C171.29 18.869 170.887 17.6557 170.081 16.7308C169.284 15.7975 168.1 15.3308 166.53 15.3308C165.648 15.3308 164.838 15.5217 164.099 15.9035C163.361 16.2854 162.772 16.8072 162.33 17.469C161.974 16.8242 161.465 16.3066 160.803 15.9163C160.141 15.526 159.318 15.3308 158.334 15.3308C157.502 15.3308 156.739 15.4963 156.043 15.8272C155.347 16.1496 154.77 16.5951 154.312 17.1635V15.6617H151.258V29.4072Z" fill="#0F0F11"/>
<path d="M20 0.407227C8.9543 0.407227 0 9.36153 0 20.4072C11.0457 20.4072 20 11.4529 20 0.407227Z" fill="#0F0F11"/>
<path d="M20 40.4072C31.0457 40.4072 40 31.4529 40 20.4072C28.9543 20.4072 20 29.3615 20 40.4072Z" fill="#0F0F11"/>
<path d="M20 0.407227C31.0457 0.407227 40 9.36153 40 20.4072C28.9543 20.4072 20 11.4529 20 0.407227Z" fill="#0F0F11"/>
<path d="M20 40.4072C8.9543 40.4072 -9.65645e-07 31.4529 0 20.4072C11.0457 20.4072 20 29.3615 20 40.4072Z" fill="#0F0F11"/>
</g>
<defs>
<clipPath id="clip0_10239_1835">
<rect width="172" height="40" fill="white"/>
</clipPath>
</defs>
</svg>
