<svg width="36" height="37" viewBox="0 0 36 37" fill="none" xmlns="http://www.w3.org/2000/svg">
<g filter="url(#filter0_d_38156_11090)">
<rect x="2" y="2.43799" width="32" height="32" rx="5.33333" fill="white"/>
<rect x="2.66667" y="3.10465" width="30.6667" height="30.6667" rx="4.66667" stroke="#E4D7FF" stroke-width="1.33333"/>
<g clip-path="url(#clip0_38156_11090)">
<path d="M12.1954 12.6334C12.3857 12.4431 12.6721 12.3864 12.921 12.4888L24.254 17.1549C24.502 17.2572 24.6651 17.4989 24.6671 17.7672C24.6686 18.0017 24.547 18.2174 24.3516 18.3385L24.2628 18.3844L20.087 20.1744C19.9691 20.2249 19.869 20.3081 19.7979 20.4127L19.7364 20.525L17.9464 24.7008C17.8407 24.9472 17.5973 25.1068 17.3292 25.1051C17.0609 25.1031 16.8192 24.9399 16.7169 24.692L12.0509 13.359C11.9484 13.1101 12.0051 12.8237 12.1954 12.6334Z" fill="url(#paint0_linear_38156_11090)"/>
</g>
</g>
<defs>
<filter id="filter0_d_38156_11090" x="-5.96046e-08" y="0.437988" width="36" height="36" filterUnits="userSpaceOnUse" color-interpolation-filters="sRGB">
<feFlood flood-opacity="0" result="BackgroundImageFix"/>
<feColorMatrix in="SourceAlpha" type="matrix" values="0 0 0 0 0 0 0 0 0 0 0 0 0 0 0 0 0 0 127 0" result="hardAlpha"/>
<feMorphology radius="1.33333" operator="dilate" in="SourceAlpha" result="effect1_dropShadow_38156_11090"/>
<feOffset/>
<feGaussianBlur stdDeviation="0.333333"/>
<feComposite in2="hardAlpha" operator="out"/>
<feColorMatrix type="matrix" values="0 0 0 0 0.929412 0 0 0 0 0.894118 0 0 0 0 1 0 0 0 1 0"/>
<feBlend mode="normal" in2="BackgroundImageFix" result="effect1_dropShadow_38156_11090"/>
<feBlend mode="normal" in="SourceGraphic" in2="effect1_dropShadow_38156_11090" result="shape"/>
</filter>
<linearGradient id="paint0_linear_38156_11090" x1="10.9435" y1="13.2637" x2="18.7794" y2="26.7806" gradientUnits="userSpaceOnUse">
<stop stop-color="white"/>
<stop offset="0.350508" stop-color="#9573DE"/>
<stop offset="1" stop-color="white"/>
</linearGradient>
<clipPath id="clip0_38156_11090">
<rect width="16" height="16" fill="white" transform="translate(10 10.438)"/>
</clipPath>
</defs>
</svg>
