<svg width="12" height="14" viewBox="0 0 12 14" fill="none" xmlns="http://www.w3.org/2000/svg">
<path d="M5.8667 0.34629C5.99864 0.319387 6.13747 0.333427 6.26318 0.387306L10.5249 2.21348L10.7007 2.30527C11.0898 2.54551 11.3333 2.9726 11.3335 3.43906V8.01133C11.3335 9.68588 10.4358 11.2322 8.98193 12.0631L6.33057 13.5787C6.12573 13.6956 5.87423 13.6957 5.66943 13.5787L3.01807 12.0631C1.56422 11.2322 0.666504 9.68588 0.666504 8.01133V3.43906C0.666713 2.9059 0.985014 2.42351 1.4751 2.21348L5.73779 0.387306L5.8667 0.34629ZM8.47217 5.19492C8.21191 4.93466 7.78918 4.93485 7.52881 5.19492L5.3335 7.39024L4.47217 6.52891L4.36768 6.44297C4.10899 6.27204 3.75668 6.30129 3.52881 6.52891C3.30127 6.75676 3.27299 7.10814 3.44385 7.3668L3.52881 7.47129L4.86279 8.8043L4.96729 8.89024C5.226 9.06067 5.57754 9.03193 5.80518 8.8043L8.47217 6.13828C8.73217 5.87798 8.73221 5.4552 8.47217 5.19492Z" fill="url(#paint0_linear_38266_2042)"/>
<defs>
<linearGradient id="paint0_linear_38266_2042" x1="-0.223585" y1="1.20164" x2="8.80876" y2="13.6666" gradientUnits="userSpaceOnUse">
<stop stop-color="white"/>
<stop offset="0.350508" stop-color="#9573DE"/>
<stop offset="1" stop-color="white"/>
</linearGradient>
</defs>
</svg>
