<svg width="13" height="13" viewBox="0 0 13 13" fill="none" xmlns="http://www.w3.org/2000/svg">
<path d="M0.195385 0.195291C0.385692 0.00499367 0.672114 -0.051711 0.920971 0.0507597L12.254 4.71678C12.502 4.81907 12.6651 5.06081 12.6671 5.32908C12.6686 5.56357 12.547 5.77932 12.3516 5.90037L12.2628 5.94627L8.08699 7.73631C7.96913 7.78682 7.86899 7.86998 7.79792 7.97459L7.7364 8.08689L5.94636 12.2627C5.84067 12.5091 5.59732 12.6687 5.32917 12.667C5.0609 12.6651 4.81916 12.5019 4.71687 12.2539L0.0508541 0.920877C-0.0516185 0.672015 0.00507897 0.385597 0.195385 0.195291Z" fill="url(#paint0_linear_38266_1842)"/>
<defs>
<linearGradient id="paint0_linear_38266_1842" x1="-1.05646" y1="0.825613" x2="6.7794" y2="14.3425" gradientUnits="userSpaceOnUse">
<stop stop-color="white"/>
<stop offset="0.350508" stop-color="#9573DE"/>
<stop offset="1" stop-color="white"/>
</linearGradient>
</defs>
</svg>
