<svg width="13" height="13" viewBox="0 0 13 13" fill="none" xmlns="http://www.w3.org/2000/svg">
<path d="M5.44824 0C5.97846 0.000139653 6.48736 0.211028 6.8623 0.585938L11.5293 5.25293C12.3097 6.03394 12.3099 7.30018 11.5293 8.08105L8.08105 11.5293C7.30018 12.3099 6.03394 12.3097 5.25293 11.5293L0.585938 6.8623C0.211028 6.48736 0.000139537 5.97846 0 5.44824V0.666992L0.0136719 0.532227C0.0759722 0.228614 0.344951 0 0.666992 0H5.44824ZM4 3C3.48232 3 3.05621 3.39333 3.00488 3.89746L3 4V4.00684C3.00009 4.55904 3.44777 5.00684 4 5.00684H4.00684C4.52438 5.00675 4.95056 4.61338 5.00195 4.10938L5.00684 4.00684V4C5.00684 3.48238 4.61342 3.05629 4.10938 3.00488L4.00684 3H4Z" fill="url(#paint0_linear_38266_1859)"/>
<defs>
<linearGradient id="paint0_linear_38266_1859" x1="-1.01089" y1="0.789252" x2="6.48348" y2="13.7171" gradientUnits="userSpaceOnUse">
<stop stop-color="white"/>
<stop offset="0.350508" stop-color="#9573DE"/>
<stop offset="1" stop-color="white"/>
</linearGradient>
</defs>
</svg>
