<svg width="20" height="16" viewBox="0 0 20 16" fill="none" xmlns="http://www.w3.org/2000/svg">
<path d="M1.6665 3.83331L8.4706 8.59618C9.02158 8.98187 9.29707 9.17471 9.59672 9.2494C9.86142 9.31538 10.1383 9.31538 10.403 9.2494C10.7026 9.17471 10.9781 8.98187 11.5291 8.59618L18.3332 3.83331M5.6665 14.6666H14.3332C15.7333 14.6666 16.4334 14.6666 16.9681 14.3942C17.4386 14.1545 17.821 13.772 18.0607 13.3016C18.3332 12.7668 18.3332 12.0668 18.3332 10.6666V5.33331C18.3332 3.93318 18.3332 3.23312 18.0607 2.69834C17.821 2.22793 17.4386 1.84548 16.9681 1.6058C16.4334 1.33331 15.7333 1.33331 14.3332 1.33331H5.6665C4.26637 1.33331 3.56631 1.33331 3.03153 1.6058C2.56112 1.84548 2.17867 2.22793 1.93899 2.69834C1.6665 3.23312 1.6665 3.93318 1.6665 5.33331V10.6666C1.6665 12.0668 1.6665 12.7668 1.93899 13.3016C2.17867 13.772 2.56112 14.1545 3.03153 14.3942C3.56631 14.6666 4.26637 14.6666 5.6665 14.6666Z" stroke="#1C1C1C" stroke-opacity="0.7" stroke-width="1.66667" stroke-linecap="round" stroke-linejoin="round"/>
</svg>
