<svg width="14" height="14" viewBox="0 0 14 14" fill="none" xmlns="http://www.w3.org/2000/svg">
<path d="M7.00049 0.333282C10.6822 0.333546 13.6675 3.31854 13.6675 7.00027C13.6673 10.6819 10.6821 13.667 7.00049 13.6673C3.3187 13.6673 0.333667 10.682 0.333496 7.00027C0.333496 3.31838 3.31859 0.333282 7.00049 0.333282ZM6.99951 8.66727C6.48202 8.66747 6.05571 9.06073 6.00439 9.56473L5.99951 9.66727V9.6741C5.99993 10.2259 6.44767 10.6739 6.99951 10.6741H7.00635C7.52368 10.674 7.94977 10.2803 8.00146 9.77664L8.00635 9.6741V9.66727C8.00635 9.14966 7.61292 8.72357 7.10889 8.67215L7.00635 8.66727H6.99951ZM6.33252 7.00223C6.33399 7.37 6.63375 7.66813 7.00146 7.66727C7.36941 7.66597 7.66741 7.36618 7.6665 6.99832L6.33252 7.00223ZM6.99561 3.00027C6.48645 3.00139 5.97466 3.19629 5.58545 3.58524C5.3255 3.84558 5.32532 4.26836 5.58545 4.52859C5.84568 4.78882 6.26843 4.78858 6.52881 4.52859C6.65858 4.39908 6.82774 4.33376 6.99854 4.33328L7.12646 4.345C7.2527 4.36924 7.37239 4.43098 7.47021 4.52859C7.60047 4.65885 7.66547 4.8287 7.66553 5.00027L7.65381 5.1282C7.62939 5.25395 7.56848 5.37349 7.47119 5.47098C7.34074 5.60123 7.17029 5.66747 6.99854 5.66727C6.82136 5.66712 6.6501 5.73719 6.5249 5.86258C6.39995 5.98809 6.32994 6.15908 6.33057 6.33621L6.33252 7.00223L6.99561 6.9993V7.00027C7.00053 7.00028 7.00629 6.99938 7.01123 6.9993L7.6665 6.99832L7.66553 6.88309C7.93794 6.78685 8.19575 6.63197 8.41357 6.41434C8.75509 6.07272 8.94804 5.63642 8.99072 5.1907L8.99951 5.00027C8.99939 4.48961 8.80385 3.97551 8.41357 3.58524C8.07131 3.24322 7.63451 3.05122 7.18799 3.00906L6.99561 3.00027Z" fill="url(#paint0_linear_38266_2246)"/>
<defs>
<linearGradient id="paint0_linear_38266_2246" x1="-0.779136" y1="1.20197" x2="7.46953" y2="15.4309" gradientUnits="userSpaceOnUse">
<stop stop-color="white"/>
<stop offset="0.350508" stop-color="#9573DE"/>
<stop offset="1" stop-color="white"/>
</linearGradient>
</defs>
</svg>
