<svg width="14" height="14" viewBox="0 0 14 14" fill="none" xmlns="http://www.w3.org/2000/svg">
<path d="M5.89018 0.425267C6.75889 0.278748 7.6394 0.307544 8.481 0.499485L8.59037 0.534642C8.79997 0.622239 8.95194 0.811806 8.99077 1.03562L8.99955 1.14988V2.38132C8.99977 2.89435 9.55617 3.21502 10.0005 2.95847L11.0679 2.34226L11.1714 2.29343C11.4201 2.20227 11.7042 2.26762 11.8892 2.46726C12.2213 2.82609 12.5199 3.22643 12.774 3.66648C13.0279 4.10629 13.226 4.56399 13.3706 5.03074C13.4627 5.32792 13.3371 5.65032 13.0679 5.80613L12.0005 6.42234C11.5561 6.67891 11.5553 7.32095 11.9996 7.57761L13.066 8.19284C13.3016 8.32903 13.4279 8.59222 13.3941 8.85495L13.3697 8.96726C13.0787 9.91006 12.5784 10.7908 11.8892 11.5337C11.6776 11.7615 11.3362 11.8132 11.0669 11.6577L9.99955 11.0415C9.55523 10.7852 9.00071 11.1057 9.00053 11.6186V12.851C9.00053 13.1621 8.78425 13.4322 8.481 13.5014C7.4931 13.7268 6.48005 13.7199 5.51811 13.5005C5.21506 13.4312 4.99968 13.1609 4.99955 12.8501L5.00053 11.6186L4.9937 11.5249C4.93079 11.068 4.41609 10.801 3.99955 11.0415L2.93217 11.6577C2.69615 11.7938 2.40556 11.7709 2.19487 11.6098L2.10893 11.5327C1.77706 11.174 1.48005 10.7733 1.22612 10.3335C0.972075 9.89344 0.774153 9.43521 0.629437 8.96824L0.604047 8.85593C0.570246 8.59322 0.696526 8.33005 0.932172 8.19382L1.99955 7.57761C2.44387 7.32108 2.44459 6.67908 2.00053 6.42234L0.933148 5.8071C0.66401 5.6515 0.537772 5.32979 0.629437 5.03269C0.920376 4.08989 1.42076 3.20915 2.10991 2.46628L2.19487 2.38913C2.40558 2.22861 2.69742 2.20616 2.93315 2.34226L4.00053 2.95847C4.44483 3.21451 4.99941 2.89421 4.99955 2.38132V1.1489L5.0103 1.03367C5.05574 0.773034 5.25309 0.559133 5.51811 0.498509L5.89018 0.425267ZM7.00053 5.00046C5.89596 5.00046 5.00053 5.89589 5.00053 7.00046C5.00079 8.10481 5.89612 9.00046 7.00053 9.00046C8.10472 9.0002 9.00028 8.10465 9.00053 7.00046C9.00053 5.89606 8.10488 5.00073 7.00053 5.00046Z" fill="url(#paint0_linear_38266_2232)"/>
<defs>
<linearGradient id="paint0_linear_38266_2232" x1="-0.469606" y1="1.20129" x2="7.94351" y2="15.1336" gradientUnits="userSpaceOnUse">
<stop stop-color="white"/>
<stop offset="0.350508" stop-color="#9573DE"/>
<stop offset="1" stop-color="white"/>
</linearGradient>
</defs>
</svg>
